<svg xmlns="http://www.w3.org/2000/svg" xmlns:xlink="http://www.w3.org/1999/xlink" xmlns:lucid="lucid" width="1060" height="760.65"><g transform="translate(-220 -160)" lucid:page-tab-id="0_0"><path d="M0 0h1500v1000H0z" fill="#fff"/><path d="M644 244c-13.25 0-24-10.75-24-24 0-10.6 6.5-19.55 16.58-22.82C636 166 676 160 692 172c8-18 48-12 48 6 24-6 48 18 32 48 16 24 0 54-32 42-8 15.6-40 15.6-48 0-16 12-48 6-48-24z" stroke="#000" fill="#fff"/><path d="M580 196a6 6 0 0 1 6-6h228a6 6 0 0 1 6 6v48a6 6 0 0 1-6 6H586a6 6 0 0 1-6-6z" fill="none"/><use xlink:href="#a" transform="matrix(1,0,0,1,580,190) translate(50.81597222222223 38.083767361111114)"/><path d="M404 444c-13.25 0-24-10.75-24-24 0-10.6 6.5-19.55 16.58-22.82C396 366 436 360 452 372c8-18 48-12 48 6 24-6 48 18 32 48 16 24 0 54-32 42-8 15.6-40 15.6-48 0-16 12-48 6-48-24z" stroke="#000" fill="#fff"/><path d="M340 396a6 6 0 0 1 6-6h228a6 6 0 0 1 6 6v48a6 6 0 0 1-6 6H346a6 6 0 0 1-6-6z" fill="none"/><use xlink:href="#b" transform="matrix(1,0,0,1,340,390) translate(48.3669704861111 24.365668402777775)"/><use xlink:href="#c" transform="matrix(1,0,0,1,340,390) translate(59.68424479166666 46.95160590277778)"/><use xlink:href="#d" transform="matrix(1,0,0,1,340,390) translate(73.12825520833333 46.95160590277778)"/><path d="M904 444c-13.25 0-24-10.75-24-24 0-10.6 6.5-19.55 16.58-22.82C896 366 936 360 952 372c8-18 48-12 48 6 24-6 48 18 32 48 16 24 0 54-32 42-8 15.6-40 15.6-48 0-16 12-48 6-48-24z" stroke="#000" fill="#fff"/><path d="M840 396a6 6 0 0 1 6-6h228a6 6 0 0 1 6 6v48a6 6 0 0 1-6 6H846a6 6 0 0 1-6-6z" fill="none"/><use xlink:href="#e" transform="matrix(1,0,0,1,840,390) translate(60.36783854166666 24.365668402777775)"/><use xlink:href="#f" transform="matrix(1,0,0,1,840,390) translate(51.20008680555554 46.95160590277778)"/><use xlink:href="#g" transform="matrix(1,0,0,1,840,390) translate(93.59049479166666 46.95160590277778)"/><path d="M284 644c-13.25 0-24-10.75-24-24 0-10.6 6.5-19.55 16.58-22.83C276 566 316 560 332 572c8-18 48-12 48 6 24-6 48 18 32 48 16 24 0 54-32 42-8 15.6-40 15.6-48 0-16 12-48 6-48-24z" stroke="#000" stroke-width="3" fill="#fff"/><path d="M220 596a6 6 0 0 1 6-6h228a6 6 0 0 1 6 6v48a6 6 0 0 1-6 6H226a6 6 0 0 1-6-6z" fill="none"/><use xlink:href="#h" transform="matrix(1,0,0,1,220,590) translate(84.12651909722221 24.365668402777775)"/><use xlink:href="#i" transform="matrix(1,0,0,1,220,590) translate(62.6540798611111 46.95160590277778)"/><path d="M564 644c-13.25 0-24-10.75-24-24 0-10.6 6.5-19.55 16.58-22.83C556 566 596 560 612 572c8-18 48-12 48 6 24-6 48 18 32 48 16 24 0 54-32 42-8 15.6-40 15.6-48 0-16 12-48 6-48-24z" stroke="#000" stroke-width="3" fill="#fff"/><path d="M500 596a6 6 0 0 1 6-6h228a6 6 0 0 1 6 6v48a6 6 0 0 1-6 6H506a6 6 0 0 1-6-6z" fill="none"/><use xlink:href="#j" transform="matrix(1,0,0,1,500,590) translate(61.77680121527777 24.365668402777775)"/><use xlink:href="#k" transform="matrix(1,0,0,1,500,590) translate(98.03765190972221 46.95160590277778)"/><path d="M1104 644c-13.26 0-24-10.75-24-24 0-10.6 6.5-19.55 16.58-22.83C1096 566 1136 560 1152 572c8-18 48-12 48 6 24-6 48 18 32 48 16 24 0 54-32 42-8 15.6-40 15.6-48 0-16 12-48 6-48-24z" stroke="#000" stroke-width="3" fill="#fff"/><path d="M1040 596a6 6 0 0 1 6-6h228a6 6 0 0 1 6 6v48a6 6 0 0 1-6 6h-228a6 6 0 0 1-6-6z" fill="none"/><use xlink:href="#l" transform="matrix(1,0,0,1,1040,590) translate(53.41796875 24.365668402777775)"/><use xlink:href="#m" transform="matrix(1,0,0,1,1040,590) translate(55.871310763888886 46.95160590277778)"/><use xlink:href="#n" transform="matrix(1,0,0,1,1040,590) translate(82.94162326388889 46.95160590277778)"/><use xlink:href="#o" transform="matrix(1,0,0,1,1040,590) translate(120.37217881944444 46.95160590277778)"/><path d="M575.73 322.1H466.8l-.88.07-.84.2-.8.33-.74.46-.66.56-.57.66-.44.74-.33.8-.2.84-.07.88v34.97h-.95v-35l.1-1 .22-.98.4-.93.52-.88.66-.77.78-.66.86-.54.94-.4 1-.23.98-.08h108.97zm140.78-6.46l-.06 1-.24 1-.4.93-.52.86-.66.78-.77.67-.87.53-.94.4-1 .22-.98.08H601.1v-.95h108.92l.88-.07.85-.2.8-.33.74-.45.65-.57.56-.66.46-.74.33-.8.2-.84.06-.9v-20.96h.95z" stroke="#3a414a" stroke-width=".05" fill="#3a414a"/><path d="M461.26 362.92l-.65.25-.3.16v-.74h.96z" fill="#3a414a"/><path stroke="#3a414a" stroke-width=".05" fill="#3a414a"/><path d="M723.54 294.14h-15l7.5-13z" fill="#3a414a"/><path d="M724.36 294.6h-16.64l8.32-14.4zm-15-.94h13.36l-6.68-11.56z" stroke="#3a414a" stroke-width=".05" fill="#3a414a"/><use xlink:href="#p" transform="matrix(1,0,0,1,575.7246668712451,310.87140233909196) translate(0 17.22222222222222)"/><path d="M970.14 319.98l1 .08.98.23.94.38.87.53.77.67.66.78.53.86.38.95.24 1 .08 1v33.8h-.96v-33.78l-.06-.88-.2-.85-.34-.8-.45-.74-.57-.65-.66-.56-.74-.47-.8-.33-.85-.2-.88-.07H865.9v-.95zm-253.56-4.66l.2.84.34.8.45.74.56.66.66.56.73.45.8.34.84.2.9.08h104.18v.95H722.02l-1-.08-.98-.24-.94-.38-.87-.53-.77-.67-.66-.77-.53-.87-.4-.94-.23-1-.08-1v-19.82h.95v19.8z" stroke="#3a414a" stroke-width=".05" fill="#3a414a"/><path d="M976.6 360.78l-.96-.04v-.5h.96z" fill="#3a414a"/><path stroke="#3a414a" stroke-width=".05" fill="#3a414a"/><path d="M723.54 294.14h-15l7.5-13z" fill="#3a414a"/><path d="M724.36 294.6h-16.64l8.32-14.4zm-15-.94h13.36l-6.68-11.56z" stroke="#3a414a" stroke-width=".05" fill="#3a414a"/><use xlink:href="#q" transform="matrix(1,0,0,1,826.249006664188,309.698368207757) translate(0 17.22222222222222)"/><path d="M416.93 522.46h-73.56l-.88.07-.86.2-.8.33-.74.46-.66.56-.56.66-.45.74-.33.8-.2.84-.07.88v35.32h-.95v-35.36l.07-1 .24-.98.38-.94.53-.86.67-.78.77-.66.87-.53.95-.38 1-.23.98-.1h73.6zM476.5 516l-.06 1-.24 1-.4.92-.52.87-.66.76-.77.66-.87.53-.94.4-1 .23-.98.08H442.3v-.95h27.72l.88-.06.85-.2.8-.34.74-.45.64-.56.57-.67.46-.74.33-.8.2-.85.06-.88v-21.33h.95z" stroke="#3a414a" stroke-width=".05" fill="#3a414a"/><path d="M337.82 563.5l-.94.63v-.82h.94z" fill="#3a414a"/><path stroke="#3a414a" stroke-width=".05" fill="#3a414a"/><path d="M483.54 494.14h-15l7.5-13z" fill="#3a414a"/><path d="M484.36 494.6h-16.64l8.32-14.4zm-15-.94h13.36l-6.68-11.56z" stroke="#3a414a" stroke-width=".05" fill="#3a414a"/><use xlink:href="#p" transform="matrix(1,0,0,1,416.9270683682153,511.22856287316193) translate(0 17.22222222222222)"/><path d="M614.8 520.62l.98.08 1 .23.93.4.88.52.77.66.66.8.54.85.4.94.22.98.08 1v34.46h-.95V527.1l-.08-.87-.2-.84-.33-.8-.46-.75-.57-.66-.65-.58-.74-.45-.8-.33-.85-.2-.88-.07H561.1v-.95zm-138.22-4.66l.2.84.34.8.45.74.56.66.66.56.73.46.8.33.85.2.88.07h53.66v.95h-53.7l-1-.08-.98-.25-.94-.4-.87-.52-.77-.66-.66-.77-.53-.87-.4-.94-.23-1-.08-1v-20.46h.95v20.43z" stroke="#3a414a" stroke-width=".05" fill="#3a414a"/><path d="M621.24 561.85l-.95.37v-.7h.94z" fill="#3a414a"/><path stroke="#3a414a" stroke-width=".05" fill="#3a414a"/><path d="M483.54 494.14h-15l7.5-13z" fill="#3a414a"/><path d="M484.36 494.6h-16.64l8.32-14.4zm-15-.94h13.36l-6.68-11.56z" stroke="#3a414a" stroke-width=".05" fill="#3a414a"/><use xlink:href="#p" transform="matrix(1,0,0,1,535.7173851749963,510.33792355485474) translate(0 17.22222222222222)"/><path d="M1141.72 523.5l1 .1.98.23.94.4.87.52.78.66.66.78.53.87.4.94.23.98.08 1v37.35h-.95V530l-.07-.88-.2-.84-.34-.8-.45-.74-.56-.66-.65-.56-.74-.45-.8-.34-.84-.2-.88-.07h-59.98v-.95zm-165.14-4.65l.2.85.34.8.45.74.56.65.66.56.73.45.8.34.84.2.9.07h59.97v.96h-60.02l-1-.08-.98-.23-.94-.4-.87-.52-.77-.66-.66-.78-.53-.87-.4-.94-.23-1-.08-1v-23.36h.95v23.33z" stroke="#3a414a" stroke-width=".05" fill="#3a414a"/><path d="M1148.18 568.05l-.95-.44v-.28h.95z" fill="#3a414a"/><path stroke="#3a414a" stroke-width=".05" fill="#3a414a"/><path d="M983.54 494.14h-15l7.5-13z" fill="#3a414a"/><path d="M984.36 494.6h-16.64l8.32-14.4zm-15-.94h13.36l-6.68-11.56z" stroke="#3a414a" stroke-width=".05" fill="#3a414a"/><use xlink:href="#q" transform="matrix(1,0,0,1,1042.0396393446601,513.2328784079674) translate(0 17.22222222222222)"/><path d="M824 644c-13.25 0-24-10.75-24-24 0-10.6 6.5-19.55 16.58-22.83C816 566 856 560 872 572c8-18 48-12 48 6 24-6 48 18 32 48 16 24 0 54-32 42-8 15.6-40 15.6-48 0-16 12-48 6-48-24z" stroke="#000" stroke-width="3" fill="#fff"/><path d="M760 596a6 6 0 0 1 6-6h228a6 6 0 0 1 6 6v48a6 6 0 0 1-6 6H766a6 6 0 0 1-6-6z" fill="none"/><use xlink:href="#r" transform="matrix(1,0,0,1,760,590) translate(52.544487847222214 35.65863715277778)"/><use xlink:href="#s" transform="matrix(1,0,0,1,760,590) translate(122.59765625 35.65863715277778)"/><path d="M464 884c-13.25 0-24-10.75-24-24 0-10.6 6.5-19.55 16.58-22.83C456 806 496 800 512 812c8-18 48-12 48 6 24-6 48 18 32 48 16 24 0 54-32 42-8 15.6-40 15.6-48 0-16 12-48 6-48-24z" fill="#fff"/><path d="M457.52 883l-3.22-1.04-1.97-1.13m-3.13-2.05l-2.97-2.65-1-1.34m-2.14-3.1l-1.88-4.13-.24-1.08m-.8-3.68l-.03-.1L440 860l.33-3m.77-3.92l1.16-3.44 1.26-2.05m2.32-3.26l2.6-2.7 1.9-1.26m3.46-2.05l2.78-1.16.08-3.1V834m.63-4.18l.23-1.12.72-2.37.9-2.22.16-.27m2.12-3.66l.1-.16 1.48-1.9 1.7-1.83.93-.83m3.3-2.63l2.53-1.54 2.92-1.45.1-.03m3.98-1.47l2.84-.82 3.33-.64m4.2-.48l.5-.05 4.07-.03 1.76.14m4.2.53l1.48.25 3.13.83 1.5.56m3.86 1.74l1.46.86 1.2.84.7-1.38.8-1.22m2.72-2.9l.9-.74 1.68-1.1 2-1.03.54-.2m3.8-1.26l.97-.26 3.4-.54 1.55-.1m4-.05l2.43.12 3.52.53m3.88.94l.5.12 3.27 1.22 1.8.88m3.38 2.1l1.3 1.02 1.32 1.3 1.04 1.23.48.74m1.63 3.64l.1.36.22 1.2.08 1.22v.18l3.13-.6m4.23-.3l2.15.04 3.12.38 1.07.24m4.07 1.16l.85.3 2.83 1.3 2.02 1.2m3.43 2.5l1.93 1.8 2 2.28.42.57m2.3 3.57l.52.95 1.2 2.77.7 2.15m.9 4.14l.28 2.98-.03 3.38m-.52 4.22l-.75 3.44-.9 2.7m-1.6 3.94l-1 2.22-.35.66 1.6 2.75m1.87 3.8l.73 1.68 1.2 4.02.06.35m.65 4.2l.18 3.08-.22 3.27m-.83 4.16l-.74 2.35-1.23 2.7-.5.82m-2.4 3.48l-.24.28-1.87 1.9-2.07 1.63-.6.38m-3.76 1.98l-.4.18-2.72.88-3 .6m-4.25.2l-3-.13-3.32-.54m-4.1-1.05l-2.2-.64-.85-.3-.86 1.48-.64.88m-2.54 2.73l-.66.58-1.84 1.34-2.1 1.22m-3.45 1.45l-2.38.77-3.02.65m-3.7.45l-.68.07h-4l-.92-.08m-3.7-.45l-2.82-.58-2.6-.82m-3.42-1.47l-2-1.13-1.86-1.34-.76-.67m-2.54-2.74l-.6-.8-.85-1.47-.05-.1-2.24 1.5-.15.08m-3.4 1.68l-1.9.76-3.2.92-.36.06m-3.76.6l-2.83.2-2.9-.1m-3.78-.46l-.32-.05-3.25-.8-1.94-.7m-3.48-1.56l-.32-.15-2.46-1.53-1.96-1.52m-2.72-2.67l-1.22-1.43-1.53-2.24-.54-1m-1.6-3.45l-.3-.7-.88-3-.33-1.8m-.47-3.8l-.13-1.74-.02-1.1-2.8-.3" stroke="#000" stroke-width="2" fill="none"/><path d="M400 836a6 6 0 0 1 6-6h228a6 6 0 0 1 6 6v48a6 6 0 0 1-6 6H406a6 6 0 0 1-6-6z" fill="none"/><use xlink:href="#t" transform="matrix(1,0,0,1,400,830) translate(42.74251302083333 24.365668402777775)"/><use xlink:href="#u" transform="matrix(1,0,0,1,400,830) translate(133.06803385416669 24.365668402777775)"/><use xlink:href="#c" transform="matrix(1,0,0,1,400,830) translate(74.93977864583331 46.95160590277778)"/><use xlink:href="#v" transform="matrix(1,0,0,1,400,830) translate(88.38378906249999 46.95160590277778)"/><path d="M911.42 525.02h-25.5l-.87.07-.84.2-.8.33-.73.45-.66.56-.55.66-.46.74-.34.8-.2.84-.07.9v31.32h-.96v-31.37l.08-1 .24-.98.38-.94.54-.86.66-.77.77-.66.88-.52.93-.4 1-.23 1-.08h25.52zm65.1-6.45l-.08 1-.24.98-.4.94-.52.86-.66.77-.77.66-.87.52-.94.4-1 .23-.98.07h-18.98v-.95h18.94l.88-.07.85-.2.8-.33.74-.45.65-.57.56-.66.46-.74.33-.8.2-.85.06-.87v-23.9h.95z" stroke="#3a414a" stroke-width=".05" fill="#3a414a"/><path d="M880.4 562.18l-.2.08-.76.4v-.77h.95z" fill="#3a414a"/><path stroke="#3a414a" stroke-width=".05" fill="#3a414a"/><path d="M983.54 494.14h-15l7.5-13z" fill="#3a414a"/><path d="M984.36 494.6h-16.64l8.32-14.4zm-15-.94h13.36l-6.68-11.56z" stroke="#3a414a" stroke-width=".05" fill="#3a414a"/><use xlink:href="#q" transform="matrix(1,0,0,1,911.4186741426585,513.7933830825006) translate(0 17.22222222222222)"/><path d="M536.73 799.76h-.95v-48.3h.95zm100.05-65.03l-.08 1-.24.98-.38.95-.53.86-.66.8-.8.65-.85.53-.94.38-.98.24-1 .08h-55.3v-.95h55.27l.87-.07.84-.2.8-.33.75-.46.66-.56.57-.65.46-.74.33-.8.2-.83.07-.88v-39.06h.95z" stroke="#3a414a" stroke-width=".05" fill="#3a414a"/><path d="M536.73 800.3l-.95-.06v-.5h.95z" fill="#3a414a"/><path stroke="#3a414a" stroke-width=".05" fill="#3a414a"/><path d="M643.8 695.14h-15l7.5-13z" fill="#3a414a"/><path d="M644.63 695.6h-16.65l8.33-14.4zm-15-.94h13.35l-6.67-11.56zM536.73 799.76h-.95v-48.3h.95zm-179.88-64.2l.2.85.33.8.46.75.56.66.66.57.74.46.8.33.84.2.88.07H497.5v.95h-135.2l-1-.08-.97-.24-.93-.38-.87-.53-.77-.66-.66-.8-.53-.85-.4-.94-.23-.98-.07-1v-39.08h.95v39.05z" stroke="#3a414a" stroke-width=".05" fill="#3a414a"/><path d="M536.73 800.3l-.95-.06v-.5h.95z" fill="#3a414a"/><path stroke="#3a414a" stroke-width=".05" fill="#3a414a"/><path d="M363.8 695.14h-15l7.5-13z" fill="#3a414a"/><path d="M364.63 695.6h-16.65l8.33-14.4zm-15-.94h13.35l-6.67-11.56zM536.73 799.76h-.95v-48.3h.95zm360.05-65.03l-.08 1-.24.98-.38.95-.53.86-.66.8-.8.65-.85.53-.94.38-.98.24-1 .08h-315.3v-.95H890.3l.87-.07.84-.2.8-.33.75-.46.66-.56.57-.65.46-.74.33-.8.2-.83.07-.88v-39.06h.95z" stroke="#3a414a" stroke-width=".05" fill="#3a414a"/><path d="M536.73 800.3l-.95-.06v-.5h.95z" fill="#3a414a"/><path stroke="#3a414a" stroke-width=".05" fill="#3a414a"/><path d="M903.8 695.14h-15l7.5-13z" fill="#3a414a"/><path d="M904.63 695.6h-16.65l8.33-14.4zm-15-.94h13.35l-6.67-11.56z" stroke="#3a414a" stroke-width=".05" fill="#3a414a"/><g><use xlink:href="#w" transform="matrix(1,0,0,1,497.47846155426924,729.9507682990974) translate(0 17.22222222222222)"/></g><defs><path d="M180 0v-1490h510c348 0 508 209 508 474 0 266-160 477-507 477H370V0H180zm190-706h312c236 0 327-133 327-310 0-176-91-307-329-307H370v617" id="x"/><path d="M613 24c-304 0-509-231-509-576 0-350 205-580 509-580 305 0 511 230 511 580 0 345-206 576-511 576zm0-161c226 0 329-195 329-415 0-222-103-419-329-419-223 0-326 196-326 419 0 220 103 415 326 415" id="y"/><path d="M158 0v-1118h174v172h12c41-113 157-188 290-188 26 0 70 2 91 3v181c-11-2-60-10-108-10-161 0-279 109-279 260V0H158" id="z"/><path d="M598-1118v154H368v674c0 100 37 144 132 144 23 0 62-6 92-12L629-6c-37 13-88 20-134 20-193 0-307-107-307-290v-688H20v-154h168v-266h180v266h230" id="A"/><path d="M471 26C259 26 90-98 90-318c0-256 228-303 435-329 202-27 287-16 287-108 0-139-79-219-234-219-161 0-248 86-283 164l-173-57c86-203 278-265 451-265 150 0 419 46 419 395V0H815v-152h-12C765-73 660 26 471 26zm31-159c199 0 310-134 310-271v-155c-30 35-226 55-295 64-131 17-246 59-246 186 0 116 97 176 231 176" id="B"/><path d="M677 24c-213 0-288-135-325-197h-20V0H158v-1490h180v551h14c37-59 106-193 324-193 279 0 474 222 474 576 0 356-194 580-473 580zm-27-161c209 0 317-186 317-421 0-232-105-413-317-413-206 0-314 166-314 413 0 249 111 421 314 421" id="C"/><path d="M158 0v-1118h180V0H158zm91-1301c-68 0-125-53-125-119s57-119 125-119c69 0 126 53 126 119s-57 119-126 119" id="D"/><path d="M338-1490V0H158v-1490h180" id="E"/><path d="M577 24c-279 0-473-224-473-580 0-354 195-576 474-576 218 0 287 134 324 193h14v-551h180V0H922v-173h-20C865-111 790 24 577 24zm27-161c203 0 314-172 314-421 0-247-108-413-314-413-212 0-317 181-317 413 0 235 108 421 317 421" id="F"/><path d="M628 24c-324 0-524-230-524-574 0-343 198-582 503-582 237 0 487 146 487 559v75H286c9 234 145 362 343 362 132 0 231-58 273-172l174 48C1024-91 857 24 628 24zM287-650h624c-17-190-120-322-304-322-192 0-309 151-320 322" id="G"/><g id="a"><use transform="matrix(0.010850694444444444,0,0,0.010850694444444444,0,0)" xlink:href="#x"/><use transform="matrix(0.010850694444444444,0,0,0.010850694444444444,14.073350694444445,0)" xlink:href="#y"/><use transform="matrix(0.010850694444444444,0,0,0.010850694444444444,27.39800347222222,0)" xlink:href="#z"/><use transform="matrix(0.010850694444444444,0,0,0.010850694444444444,36.11111111111111,0)" xlink:href="#A"/><use transform="matrix(0.010850694444444444,0,0,0.010850694444444444,43.48958333333333,0)" xlink:href="#B"/><use transform="matrix(0.010850694444444444,0,0,0.010850694444444444,55.96788194444444,0)" xlink:href="#C"/><use transform="matrix(0.010850694444444444,0,0,0.010850694444444444,69.57465277777777,0)" xlink:href="#D"/><use transform="matrix(0.010850694444444444,0,0,0.010850694444444444,74.95659722222221,0)" xlink:href="#E"/><use transform="matrix(0.010850694444444444,0,0,0.010850694444444444,80.33854166666666,0)" xlink:href="#D"/><use transform="matrix(0.010850694444444444,0,0,0.010850694444444444,85.7204861111111,0)" xlink:href="#F"/><use transform="matrix(0.010850694444444444,0,0,0.010850694444444444,99.32725694444441,0)" xlink:href="#B"/><use transform="matrix(0.010850694444444444,0,0,0.010850694444444444,111.80555555555556,0)" xlink:href="#F"/><use transform="matrix(0.010850694444444444,0,0,0.010850694444444444,125.41232638888887,0)" xlink:href="#G"/></g><path d="M370-1490V0H180v-1490h190" id="H"/><path d="M338-670V0H158v-1118h173l1 207c72-158 192-221 342-221 226 0 378 139 378 422V0H872v-695c0-172-96-275-252-275-161 0-282 109-282 300" id="I"/><path d="M613 24c-304 0-509-231-509-576 0-350 205-580 509-580 216 0 392 114 453 309l-173 49c-33-115-133-197-280-197-223 0-326 196-326 419 0 220 103 415 326 415 150 0 252-85 285-206l172 49C1010-95 832 24 613 24" id="J"/><path d="M126 0v-134l627-806v-11H146v-167h839v143L376-178v11h629V0H126" id="K"/><path d="M502 418V313h118c73 0 98-17 98-66s-25-65-98-65h-82l21-161C285-4 104-228 104-552c0-350 205-580 509-580 216 0 392 114 453 309l-173 49c-33-115-133-197-280-197-223 0-326 196-326 419 0 220 103 415 326 415 150 0 252-85 285-206l172 49C1015-110 859 5 663 22v64c130 5 189 54 189 162 0 118-71 170-231 170H502" id="L"/><path d="M471 26C259 26 90-98 90-318c0-256 228-303 435-329 202-27 287-16 287-108 0-139-79-219-234-219-161 0-248 86-283 164l-173-57c86-203 278-265 451-265 150 0 419 46 419 395V0H815v-152h-12C765-73 660 26 471 26zm31-159c199 0 310-134 310-271v-155c-30 35-226 55-295 64-131 17-246 59-246 186 0 116 97 176 231 176zm187-1180c-99 0-192-83-243-83-35 0-51 40-53 79H267c4-120 55-208 162-208 104 0 174 85 241 85 33 0 49-23 56-81h123c-4 126-62 208-160 208" id="M"/><g id="b"><use transform="matrix(0.007595486111111112,0,0,0.007595486111111112,0,0)" xlink:href="#H"/><use transform="matrix(0.007595486111111112,0,0,0.007595486111111112,4.177517361111112,0)" xlink:href="#I"/><use transform="matrix(0.007595486111111112,0,0,0.007595486111111112,13.368055555555557,0)" xlink:href="#A"/><use transform="matrix(0.007595486111111112,0,0,0.007595486111111112,18.30512152777778,0)" xlink:href="#G"/><use transform="matrix(0.007595486111111112,0,0,0.007595486111111112,27.374131944444446,0)" xlink:href="#z"/><use transform="matrix(0.007595486111111112,0,0,0.007595486111111112,33.47330729166667,0)" xlink:href="#I"/><use transform="matrix(0.007595486111111112,0,0,0.007595486111111112,42.663845486111114,0)" xlink:href="#B"/><use transform="matrix(0.007595486111111112,0,0,0.007595486111111112,51.39865451388889,0)" xlink:href="#J"/><use transform="matrix(0.007595486111111112,0,0,0.007595486111111112,60.28537326388889,0)" xlink:href="#D"/><use transform="matrix(0.007595486111111112,0,0,0.007595486111111112,64.052734375,0)" xlink:href="#y"/><use transform="matrix(0.007595486111111112,0,0,0.007595486111111112,73.37999131944444,0)" xlink:href="#I"/><use transform="matrix(0.007595486111111112,0,0,0.007595486111111112,82.57052951388889,0)" xlink:href="#B"/><use transform="matrix(0.007595486111111112,0,0,0.007595486111111112,91.30533854166666,0)" xlink:href="#E"/><use transform="matrix(0.007595486111111112,0,0,0.007595486111111112,95.07269965277777,0)" xlink:href="#D"/><use transform="matrix(0.007595486111111112,0,0,0.007595486111111112,98.84006076388889,0)" xlink:href="#K"/><use transform="matrix(0.007595486111111112,0,0,0.007595486111111112,107.43055555555556,0)" xlink:href="#B"/><use transform="matrix(0.007595486111111112,0,0,0.007595486111111112,116.16536458333334,0)" xlink:href="#L"/><use transform="matrix(0.007595486111111112,0,0,0.007595486111111112,125.20399305555557,0)" xlink:href="#M"/><use transform="matrix(0.007595486111111112,0,0,0.007595486111111112,133.93880208333334,0)" xlink:href="#y"/></g><use transform="matrix(0.007595486111111112,0,0,0.007595486111111112,0,0)" xlink:href="#G" id="c"/><path d="M611 442c-248 0-391-105-460-228l146-94c47 65 117 165 314 165 178 0 307-82 307-266v-224h-17C863-141 792-18 576-18c-268 0-472-195-472-546 0-346 197-568 476-568 216 0 288 133 326 193h17v-179h175V29c0 289-215 413-487 413zm-5-620c203 0 314-146 314-390 0-237-108-403-314-403-213 0-319 180-319 403 0 230 109 390 319 390" id="N"/><g id="d"><use transform="matrix(0.007595486111111112,0,0,0.007595486111111112,0,0)" xlink:href="#z"/><use transform="matrix(0.007595486111111112,0,0,0.007595486111111112,5.597873263888889,0)" xlink:href="#G"/><use transform="matrix(0.007595486111111112,0,0,0.007595486111111112,14.666883680555557,0)" xlink:href="#N"/><use transform="matrix(0.007595486111111112,0,0,0.007595486111111112,24.206814236111114,0)" xlink:href="#D"/><use transform="matrix(0.007595486111111112,0,0,0.007595486111111112,27.974175347222225,0)" xlink:href="#y"/><use transform="matrix(0.007595486111111112,0,0,0.007595486111111112,37.30143229166667,0)" xlink:href="#I"/><use transform="matrix(0.007595486111111112,0,0,0.007595486111111112,46.491970486111114,0)" xlink:href="#B"/><use transform="matrix(0.007595486111111112,0,0,0.007595486111111112,55.22677951388889,0)" xlink:href="#E"/><use transform="matrix(0.007595486111111112,0,0,0.007595486111111112,58.99414062500001,0)" xlink:href="#D"/><use transform="matrix(0.007595486111111112,0,0,0.007595486111111112,62.761501736111114,0)" xlink:href="#K"/><use transform="matrix(0.007595486111111112,0,0,0.007595486111111112,71.35199652777779,0)" xlink:href="#B"/><use transform="matrix(0.007595486111111112,0,0,0.007595486111111112,80.08680555555557,0)" xlink:href="#L"/><use transform="matrix(0.007595486111111112,0,0,0.007595486111111112,89.1254340277778,0)" xlink:href="#M"/><use transform="matrix(0.007595486111111112,0,0,0.007595486111111112,97.86024305555557,0)" xlink:href="#y"/></g><path d="M783 20c-382 0-661-292-661-764 0-473 279-766 661-766 302 0 548 182 601 489h-190c-42-204-217-313-411-313-268 0-476 208-476 590 0 381 209 588 476 588 195 0 369-110 411-313h190c-52 303-296 489-601 489" id="O"/><path d="M158 0v-1118h175l1 205c55-151 181-225 313-225 147 0 245 90 285 228 53-141 190-228 352-228 194 0 352 125 352 384V0h-181v-749c0-161-105-225-225-225-151 0-243 103-243 244V0H807v-767c0-124-93-207-219-207-131 0-250 92-250 270V0H158" id="P"/><path d="M158 418v-1536h174v179h20c37-59 106-193 324-193 279 0 474 222 474 576 0 356-194 580-473 580-213 0-288-135-325-197h-14v591H158zm492-555c209 0 317-186 317-421 0-232-105-413-317-413-206 0-314 166-314 413 0 249 111 421 314 421" id="Q"/><g id="e"><use transform="matrix(0.007595486111111112,0,0,0.007595486111111112,0,0)" xlink:href="#O"/><use transform="matrix(0.007595486111111112,0,0,0.007595486111111112,11.362847222222223,0)" xlink:href="#y"/><use transform="matrix(0.007595486111111112,0,0,0.007595486111111112,20.690104166666668,0)" xlink:href="#P"/><use transform="matrix(0.007595486111111112,0,0,0.007595486111111112,34.31640625,0)" xlink:href="#Q"/><use transform="matrix(0.007595486111111112,0,0,0.007595486111111112,43.99305555555556,0)" xlink:href="#B"/><use transform="matrix(0.007595486111111112,0,0,0.007595486111111112,52.727864583333336,0)" xlink:href="#A"/><use transform="matrix(0.007595486111111112,0,0,0.007595486111111112,57.81684027777778,0)" xlink:href="#D"/><use transform="matrix(0.007595486111111112,0,0,0.007595486111111112,61.58420138888889,0)" xlink:href="#C"/><use transform="matrix(0.007595486111111112,0,0,0.007595486111111112,71.10894097222223,0)" xlink:href="#D"/><use transform="matrix(0.007595486111111112,0,0,0.007595486111111112,74.87630208333334,0)" xlink:href="#E"/><use transform="matrix(0.007595486111111112,0,0,0.007595486111111112,78.64366319444446,0)" xlink:href="#D"/><use transform="matrix(0.007595486111111112,0,0,0.007595486111111112,82.41102430555557,0)" xlink:href="#F"/><use transform="matrix(0.007595486111111112,0,0,0.007595486111111112,91.9357638888889,0)" xlink:href="#B"/><use transform="matrix(0.007595486111111112,0,0,0.007595486111111112,100.67057291666669,0)" xlink:href="#F"/><use transform="matrix(0.007595486111111112,0,0,0.007595486111111112,110.19531250000001,0)" xlink:href="#G"/></g><g id="f"><use transform="matrix(0.007595486111111112,0,0,0.007595486111111112,0,0)" xlink:href="#G"/><use transform="matrix(0.007595486111111112,0,0,0.007595486111111112,9.069010416666668,0)" xlink:href="#I"/><use transform="matrix(0.007595486111111112,0,0,0.007595486111111112,18.259548611111114,0)" xlink:href="#A"/><use transform="matrix(0.007595486111111112,0,0,0.007595486111111112,23.348524305555557,0)" xlink:href="#z"/><use transform="matrix(0.007595486111111112,0,0,0.007595486111111112,28.946397569444446,0)" xlink:href="#G"/></g><path d="M481 0L54-1118h197c107 314 236 620 325 951 87-331 217-637 324-951h197L670 0H481" id="R"/><path d="M538 24C308 24 148-78 108-271l171-41c32 123 123 178 257 178 156 0 256-77 256-169 0-77-54-128-164-154l-186-44c-203-48-300-148-300-305 0-192 176-326 414-326 230 0 351 112 402 269l-163 42c-31-80-94-158-238-158-133 0-233 69-233 162 0 83 57 129 188 160l169 40c203 48 298 149 298 302 0 196-179 339-441 339" id="S"/><g id="g"><use transform="matrix(0.007595486111111112,0,0,0.007595486111111112,0,0)" xlink:href="#I"/><use transform="matrix(0.007595486111111112,0,0,0.007595486111111112,9.190538194444445,0)" xlink:href="#B"/><use transform="matrix(0.007595486111111112,0,0,0.007595486111111112,17.69748263888889,0)" xlink:href="#R"/><use transform="matrix(0.007595486111111112,0,0,0.007595486111111112,26.136067708333336,0)" xlink:href="#G"/><use transform="matrix(0.007595486111111112,0,0,0.007595486111111112,35.205078125,0)" xlink:href="#N"/><use transform="matrix(0.007595486111111112,0,0,0.007595486111111112,44.74500868055556,0)" xlink:href="#B"/><use transform="matrix(0.007595486111111112,0,0,0.007595486111111112,53.479817708333336,0)" xlink:href="#F"/><use transform="matrix(0.007595486111111112,0,0,0.007595486111111112,63.00455729166667,0)" xlink:href="#y"/><use transform="matrix(0.007595486111111112,0,0,0.007595486111111112,72.33181423611111,0)" xlink:href="#z"/><use transform="matrix(0.007595486111111112,0,0,0.007595486111111112,77.92968750000001,0)" xlink:href="#G"/><use transform="matrix(0.007595486111111112,0,0,0.007595486111111112,86.99869791666669,0)" xlink:href="#S"/></g><path d="M180 0v-1490h908v168H370v486h669v168H370v500h727V0H180" id="T"/><path d="M65 0l393-574-370-544h210c88 136 192 297 267 435 67-142 176-302 264-435h206L661-564 1053 0H844c-94-144-206-310-287-458C484-308 366-142 273 0H65" id="U"/><path d="M537 14c-226 0-379-139-379-422v-710h180v695c0 172 97 275 253 275 160 0 281-109 281-300v-670h181V0H879v-209C806-46 684 14 537 14" id="V"/><g id="h"><use transform="matrix(0.007595486111111112,0,0,0.007595486111111112,0,0)" xlink:href="#T"/><use transform="matrix(0.007595486111111112,0,0,0.007595486111111112,9.350043402777779,0)" xlink:href="#U"/><use transform="matrix(0.007595486111111112,0,0,0.007595486111111112,17.492404513888893,0)" xlink:href="#G"/><use transform="matrix(0.007595486111111112,0,0,0.007595486111111112,26.56141493055556,0)" xlink:href="#J"/><use transform="matrix(0.007595486111111112,0,0,0.007595486111111112,35.448133680555564,0)" xlink:href="#V"/><use transform="matrix(0.007595486111111112,0,0,0.007595486111111112,44.64626736111112,0)" xlink:href="#L"/><use transform="matrix(0.007595486111111112,0,0,0.007595486111111112,53.68489583333334,0)" xlink:href="#M"/><use transform="matrix(0.007595486111111112,0,0,0.007595486111111112,62.419704861111114,0)" xlink:href="#y"/></g><path d="M678-1118v154H420V0H240v-964H20v-154h220v-149c0-194 155-293 318-293 85 0 141 18 168 30l-50 154c-19-6-47-17-97-17-111 0-159 58-159 166v109h258" id="W"/><g id="i"><use transform="matrix(0.007595486111111112,0,0,0.007595486111111112,0,0)" xlink:href="#P"/><use transform="matrix(0.007595486111111112,0,0,0.007595486111111112,13.626302083333334,0)" xlink:href="#V"/><use transform="matrix(0.007595486111111112,0,0,0.007595486111111112,22.824435763888893,0)" xlink:href="#E"/><use transform="matrix(0.007595486111111112,0,0,0.007595486111111112,26.819661458333336,0)" xlink:href="#A"/><use transform="matrix(0.007595486111111112,0,0,0.007595486111111112,31.908637152777782,0)" xlink:href="#D"/><use transform="matrix(0.007595486111111112,0,0,0.007595486111111112,35.67599826388889,0)" xlink:href="#Q"/><use transform="matrix(0.007595486111111112,0,0,0.007595486111111112,45.20073784722223,0)" xlink:href="#E"/><use transform="matrix(0.007595486111111112,0,0,0.007595486111111112,48.96809895833334,0)" xlink:href="#B"/><use transform="matrix(0.007595486111111112,0,0,0.007595486111111112,57.70290798611112,0)" xlink:href="#A"/><use transform="matrix(0.007595486111111112,0,0,0.007595486111111112,62.86783854166667,0)" xlink:href="#B"/><use transform="matrix(0.007595486111111112,0,0,0.007595486111111112,71.60264756944446,0)" xlink:href="#W"/><use transform="matrix(0.007595486111111112,0,0,0.007595486111111112,76.90429687500001,0)" xlink:href="#y"/><use transform="matrix(0.007595486111111112,0,0,0.007595486111111112,86.23155381944446,0)" xlink:href="#z"/><use transform="matrix(0.007595486111111112,0,0,0.007595486111111112,92.33072916666669,0)" xlink:href="#P"/><use transform="matrix(0.007595486111111112,0,0,0.007595486111111112,105.95703125000001,0)" xlink:href="#B"/></g><path d="M180 0v-1490h510c348 0 508 194 508 460 0 198-88 351-276 417L1256 0h-220L726-579c-117 2-238 0-356 1V0H180zm190-747h312c235 0 327-108 327-283 0-177-92-293-329-293H370v576" id="X"/><g id="j"><use transform="matrix(0.007595486111111112,0,0,0.007595486111111112,0,0)" xlink:href="#X"/><use transform="matrix(0.007595486111111112,0,0,0.007595486111111112,9.78298611111111,0)" xlink:href="#G"/><use transform="matrix(0.007595486111111112,0,0,0.007595486111111112,18.85199652777778,0)" xlink:href="#S"/><use transform="matrix(0.007595486111111112,0,0,0.007595486111111112,27.062717013888893,0)" xlink:href="#Q"/><use transform="matrix(0.007595486111111112,0,0,0.007595486111111112,36.58745659722223,0)" xlink:href="#y"/><use transform="matrix(0.007595486111111112,0,0,0.007595486111111112,45.91471354166667,0)" xlink:href="#I"/><use transform="matrix(0.007595486111111112,0,0,0.007595486111111112,55.105251736111114,0)" xlink:href="#S"/><use transform="matrix(0.007595486111111112,0,0,0.007595486111111112,63.31597222222223,0)" xlink:href="#D"/><use transform="matrix(0.007595486111111112,0,0,0.007595486111111112,67.08333333333334,0)" xlink:href="#R"/><use transform="matrix(0.007595486111111112,0,0,0.007595486111111112,75.82573784722223,0)" xlink:href="#D"/><use transform="matrix(0.007595486111111112,0,0,0.007595486111111112,79.59309895833334,0)" xlink:href="#F"/><use transform="matrix(0.007595486111111112,0,0,0.007595486111111112,89.11783854166667,0)" xlink:href="#B"/><use transform="matrix(0.007595486111111112,0,0,0.007595486111111112,97.85264756944446,0)" xlink:href="#F"/><use transform="matrix(0.007595486111111112,0,0,0.007595486111111112,107.37738715277779,0)" xlink:href="#G"/></g><path d="M613 24c-304 0-509-231-509-576 0-350 205-580 509-580 305 0 511 230 511 580 0 345-206 576-511 576zm0-161c226 0 329-195 329-415 0-222-103-419-329-419-223 0-326 196-326 419 0 220 103 415 326 415zm-79-1127l140-294h201l-194 294H534" id="Y"/><g id="k"><use transform="matrix(0.007595486111111112,0,0,0.007595486111111112,0,0)" xlink:href="#P"/><use transform="matrix(0.007595486111111112,0,0,0.007595486111111112,13.626302083333334,0)" xlink:href="#Y"/><use transform="matrix(0.007595486111111112,0,0,0.007595486111111112,22.649739583333336,0)" xlink:href="#R"/><use transform="matrix(0.007595486111111112,0,0,0.007595486111111112,31.088324652777782,0)" xlink:href="#G"/><use transform="matrix(0.007595486111111112,0,0,0.007595486111111112,40.15733506944445,0)" xlink:href="#E"/></g><g id="l"><use transform="matrix(0.007595486111111112,0,0,0.007595486111111112,0,0)" xlink:href="#H"/><use transform="matrix(0.007595486111111112,0,0,0.007595486111111112,4.177517361111112,0)" xlink:href="#I"/><use transform="matrix(0.007595486111111112,0,0,0.007595486111111112,13.368055555555557,0)" xlink:href="#A"/><use transform="matrix(0.007595486111111112,0,0,0.007595486111111112,18.30512152777778,0)" xlink:href="#G"/><use transform="matrix(0.007595486111111112,0,0,0.007595486111111112,27.374131944444446,0)" xlink:href="#z"/><use transform="matrix(0.007595486111111112,0,0,0.007595486111111112,32.972005208333336,0)" xlink:href="#y"/><use transform="matrix(0.007595486111111112,0,0,0.007595486111111112,42.29926215277778,0)" xlink:href="#Q"/><use transform="matrix(0.007595486111111112,0,0,0.007595486111111112,51.824001736111114,0)" xlink:href="#G"/><use transform="matrix(0.007595486111111112,0,0,0.007595486111111112,60.893012152777786,0)" xlink:href="#z"/><use transform="matrix(0.007595486111111112,0,0,0.007595486111111112,66.74913194444446,0)" xlink:href="#B"/><use transform="matrix(0.007595486111111112,0,0,0.007595486111111112,75.48394097222223,0)" xlink:href="#C"/><use transform="matrix(0.007595486111111112,0,0,0.007595486111111112,85.00868055555556,0)" xlink:href="#D"/><use transform="matrix(0.007595486111111112,0,0,0.007595486111111112,88.77604166666667,0)" xlink:href="#E"/><use transform="matrix(0.007595486111111112,0,0,0.007595486111111112,92.54340277777779,0)" xlink:href="#D"/><use transform="matrix(0.007595486111111112,0,0,0.007595486111111112,96.3107638888889,0)" xlink:href="#F"/><use transform="matrix(0.007595486111111112,0,0,0.007595486111111112,105.83550347222223,0)" xlink:href="#B"/><use transform="matrix(0.007595486111111112,0,0,0.007595486111111112,114.5703125,0)" xlink:href="#F"/><use transform="matrix(0.007595486111111112,0,0,0.007595486111111112,124.09505208333333,0)" xlink:href="#G"/></g><g id="m"><use transform="matrix(0.007595486111111112,0,0,0.007595486111111112,0,0)" xlink:href="#G"/><use transform="matrix(0.007595486111111112,0,0,0.007595486111111112,9.069010416666668,0)" xlink:href="#P"/></g><path d="M52 0l541-1490h220L1361 0h-200l-149-416H398L254 0H52zm404-582h497c-103-290-145-390-251-756-108 377-145 460-246 756" id="Z"/><g id="n"><use transform="matrix(0.007595486111111112,0,0,0.007595486111111112,0,0)" xlink:href="#Z"/><use transform="matrix(0.007595486111111112,0,0,0.007595486111111112,10.732421875000002,0)" xlink:href="#x"/><use transform="matrix(0.007595486111111112,0,0,0.007595486111111112,20.667317708333336,0)" xlink:href="#H"/><use transform="matrix(0.007595486111111112,0,0,0.007595486111111112,24.844835069444446,0)" xlink:href="#S"/></g><g id="o"><use transform="matrix(0.007595486111111112,0,0,0.007595486111111112,0,0)" xlink:href="#G"/><use transform="matrix(0.007595486111111112,0,0,0.007595486111111112,8.719618055555557,0)" xlink:href="#U"/><use transform="matrix(0.007595486111111112,0,0,0.007595486111111112,17.515190972222225,0)" xlink:href="#A"/><use transform="matrix(0.007595486111111112,0,0,0.007595486111111112,22.45225694444445,0)" xlink:href="#G"/><use transform="matrix(0.007595486111111112,0,0,0.007595486111111112,31.52126736111112,0)" xlink:href="#z"/><use transform="matrix(0.007595486111111112,0,0,0.007595486111111112,37.62044270833334,0)" xlink:href="#I"/><use transform="matrix(0.007595486111111112,0,0,0.007595486111111112,46.810980902777786,0)" xlink:href="#B"/><use transform="matrix(0.007595486111111112,0,0,0.007595486111111112,55.545789930555564,0)" xlink:href="#S"/></g><path fill="#333" d="M789 20C394 20 94-260 94-744c0-487 300-766 695-766s695 279 695 766c0 485-300 764-695 764zm0-271c231 0 385-174 385-493 0-321-154-495-385-495s-385 175-385 495c0 319 154 493 385 493" id="aa"/><path fill="#333" d="M135 0v-1490h581c339 0 533 192 533 485 0 204-94 351-264 424L1302 0H964L680-532H440V0H135zm305-779h220c186 0 274-77 274-226 0-150-88-233-275-233H440v459" id="ab"/><g id="p"><use transform="matrix(0.008680555555555556,0,0,0.008680555555555556,0,0)" xlink:href="#aa"/><use transform="matrix(0.008680555555555556,0,0,0.008680555555555556,13.697916666666668,0)" xlink:href="#ab"/></g><path fill="#333" d="M49 0l509-1490h400L1480 0h-339l-115-346H497L386 0H49zm524-585h374c-75-213-124-402-192-666-66 268-110 453-182 666" id="ac"/><path fill="#333" d="M135 0v-1490h340l471 754c59 97 122 210 187 365-32-387-14-721-19-1119h312V0h-341C855-382 627-689 427-1113c32 420 16 695 20 1113H135" id="ad"/><path fill="#333" d="M659 0H135v-1490h529c448 0 721 280 721 744 0 466-273 746-726 746zM440-263h204c287 0 437-148 437-483 0-333-150-481-435-481H440v964" id="ae"/><g id="q"><use transform="matrix(0.008680555555555556,0,0,0.008680555555555556,0,0)" xlink:href="#ac"/><use transform="matrix(0.008680555555555556,0,0,0.008680555555555556,13.272569444444445,0)" xlink:href="#ad"/><use transform="matrix(0.008680555555555556,0,0,0.008680555555555556,26.822916666666668,0)" xlink:href="#ae"/></g><g id="r"><use transform="matrix(0.007595486111111112,0,0,0.007595486111111112,0,0)" xlink:href="#H"/><use transform="matrix(0.007595486111111112,0,0,0.007595486111111112,4.177517361111112,0)" xlink:href="#I"/><use transform="matrix(0.007595486111111112,0,0,0.007595486111111112,13.368055555555557,0)" xlink:href="#A"/><use transform="matrix(0.007595486111111112,0,0,0.007595486111111112,18.30512152777778,0)" xlink:href="#G"/><use transform="matrix(0.007595486111111112,0,0,0.007595486111111112,27.374131944444446,0)" xlink:href="#z"/><use transform="matrix(0.007595486111111112,0,0,0.007595486111111112,33.47330729166667,0)" xlink:href="#W"/><use transform="matrix(0.007595486111111112,0,0,0.007595486111111112,38.987630208333336,0)" xlink:href="#B"/><use transform="matrix(0.007595486111111112,0,0,0.007595486111111112,47.722439236111114,0)" xlink:href="#J"/><use transform="matrix(0.007595486111111112,0,0,0.007595486111111112,56.609157986111114,0)" xlink:href="#G"/></g><path d="M157-1118h181V80c1 225-123 350-364 338V252c126 9 184-48 183-172v-1198zm91-183c-68 0-125-53-125-119s57-119 125-119c69 0 126 53 126 119s-57 119-126 119" id="af"/><path d="M471 26C259 26 90-98 90-318c0-256 228-303 435-329 202-27 287-16 287-108 0-139-79-219-234-219-161 0-248 86-283 164l-173-57c86-203 278-265 451-265 150 0 419 46 419 395V0H815v-152h-12C765-73 660 26 471 26zm31-159c199 0 310-134 310-271v-155c-30 35-226 55-295 64-131 17-246 59-246 186 0 116 97 176 231 176zm-23-1131l140-294h201l-194 294H479" id="ag"/><g id="s"><use transform="matrix(0.007595486111111112,0,0,0.007595486111111112,0,0)" xlink:href="#B"/><use transform="matrix(0.007595486111111112,0,0,0.007595486111111112,8.734809027777779,0)" xlink:href="#af"/><use transform="matrix(0.007595486111111112,0,0,0.007595486111111112,12.50217013888889,0)" xlink:href="#V"/><use transform="matrix(0.007595486111111112,0,0,0.007595486111111112,21.700303819444446,0)" xlink:href="#S"/><use transform="matrix(0.007595486111111112,0,0,0.007595486111111112,29.911024305555557,0)" xlink:href="#A"/><use transform="matrix(0.007595486111111112,0,0,0.007595486111111112,35.075954861111114,0)" xlink:href="#ag"/><use transform="matrix(0.007595486111111112,0,0,0.007595486111111112,43.58289930555556,0)" xlink:href="#R"/><use transform="matrix(0.007595486111111112,0,0,0.007595486111111112,52.021484375,0)" xlink:href="#G"/><use transform="matrix(0.007595486111111112,0,0,0.007595486111111112,61.09049479166667,0)" xlink:href="#E"/></g><path d="M628 24c-324 0-524-230-524-574 0-343 198-582 503-582 237 0 487 146 487 559v75H286c9 234 145 362 343 362 132 0 231-58 273-172l174 48C1024-91 857 24 628 24zM287-650h624c-17-190-120-322-304-322-192 0-309 151-320 322zm172-632H282v-9l235-267h171l236 267v9H745l-142-175" id="ah"/><g id="t"><use transform="matrix(0.007595486111111112,0,0,0.007595486111111112,0,0)" xlink:href="#T"/><use transform="matrix(0.007595486111111112,0,0,0.007595486111111112,9.350043402777779,0)" xlink:href="#U"/><use transform="matrix(0.007595486111111112,0,0,0.007595486111111112,17.841796875,0)" xlink:href="#Q"/><use transform="matrix(0.007595486111111112,0,0,0.007595486111111112,27.366536458333336,0)" xlink:href="#G"/><use transform="matrix(0.007595486111111112,0,0,0.007595486111111112,36.435546875,0)" xlink:href="#z"/><use transform="matrix(0.007595486111111112,0,0,0.007595486111111112,42.53472222222222,0)" xlink:href="#D"/><use transform="matrix(0.007595486111111112,0,0,0.007595486111111112,46.302083333333336,0)" xlink:href="#ah"/><use transform="matrix(0.007595486111111112,0,0,0.007595486111111112,55.37109375,0)" xlink:href="#I"/><use transform="matrix(0.007595486111111112,0,0,0.007595486111111112,64.56163194444444,0)" xlink:href="#J"/><use transform="matrix(0.007595486111111112,0,0,0.007595486111111112,73.44835069444444,0)" xlink:href="#D"/><use transform="matrix(0.007595486111111112,0,0,0.007595486111111112,77.21571180555556,0)" xlink:href="#B"/></g><g id="u"><use transform="matrix(0.007595486111111112,0,0,0.007595486111111112,0,0)" xlink:href="#D"/><use transform="matrix(0.007595486111111112,0,0,0.007595486111111112,3.7673611111111116,0)" xlink:href="#I"/><use transform="matrix(0.007595486111111112,0,0,0.007595486111111112,12.957899305555557,0)" xlink:href="#J"/><use transform="matrix(0.007595486111111112,0,0,0.007595486111111112,21.844618055555557,0)" xlink:href="#E"/><use transform="matrix(0.007595486111111112,0,0,0.007595486111111112,25.611979166666668,0)" xlink:href="#V"/><use transform="matrix(0.007595486111111112,0,0,0.007595486111111112,34.81011284722223,0)" xlink:href="#S"/><use transform="matrix(0.007595486111111112,0,0,0.007595486111111112,43.02083333333334,0)" xlink:href="#D"/><use transform="matrix(0.007595486111111112,0,0,0.007595486111111112,46.78819444444446,0)" xlink:href="#R"/><use transform="matrix(0.007595486111111112,0,0,0.007595486111111112,55.45464409722223,0)" xlink:href="#B"/></g><g id="v"><use transform="matrix(0.007595486111111112,0,0,0.007595486111111112,0,0)" xlink:href="#B"/><use transform="matrix(0.007595486111111112,0,0,0.007595486111111112,8.734809027777779,0)" xlink:href="#F"/><use transform="matrix(0.007595486111111112,0,0,0.007595486111111112,18.259548611111114,0)" xlink:href="#B"/><use transform="matrix(0.007595486111111112,0,0,0.007595486111111112,26.994357638888893,0)" xlink:href="#Q"/><use transform="matrix(0.007595486111111112,0,0,0.007595486111111112,36.51909722222223,0)" xlink:href="#A"/><use transform="matrix(0.007595486111111112,0,0,0.007595486111111112,41.684027777777786,0)" xlink:href="#B"/><use transform="matrix(0.007595486111111112,0,0,0.007595486111111112,50.418836805555564,0)" xlink:href="#A"/><use transform="matrix(0.007595486111111112,0,0,0.007595486111111112,55.50781250000001,0)" xlink:href="#D"/><use transform="matrix(0.007595486111111112,0,0,0.007595486111111112,59.27517361111112,0)" xlink:href="#R"/><use transform="matrix(0.007595486111111112,0,0,0.007595486111111112,67.9416232638889,0)" xlink:href="#B"/></g><path fill="#333" d="M135 0v-1490h468l242 684c30 94 76 293 111 455 34-161 80-360 110-455l238-684h470V0h-307c0-447-3-765 11-1227-122 503-246 788-395 1227H826C676-435 552-717 427-1215c15 453 11 775 11 1215H135" id="ai"/><path fill="#333" d="M135 0v-1490h305c1 251 0 501-5 746 157-254 405-512 598-746h373L849-845 1422 0h-361L638-644 440-426V0H135" id="aj"/><path fill="#333" d="M135 0v-1490h997v253H440v360h640v249H440v375h694V0H135" id="ak"/><path fill="#333" d="M568-82v-393H183v-240h385v-393h254v393h386v240H822v393H568" id="al"/><g id="w"><use transform="matrix(0.008680555555555556,0,0,0.008680555555555556,0,0)" xlink:href="#ai"/><use transform="matrix(0.008680555555555556,0,0,0.008680555555555556,16.5625,0)" xlink:href="#ac"/><use transform="matrix(0.008680555555555556,0,0,0.008680555555555556,29.835069444444443,0)" xlink:href="#aj"/><use transform="matrix(0.008680555555555556,0,0,0.008680555555555556,42.62152777777778,0)" xlink:href="#ak"/><use transform="matrix(0.008680555555555556,0,0,0.008680555555555556,53.420138888888886,0)" xlink:href="#al"/><use transform="matrix(0.008680555555555556,0,0,0.008680555555555556,65.48611111111111,0)" xlink:href="#al"/></g></defs></g></svg>