<svg xmlns="http://www.w3.org/2000/svg" xmlns:xlink="http://www.w3.org/1999/xlink" xmlns:lucid="lucid" width="1919.18" height="1049.5"><g transform="translate(1599.1803107208577 788.9139955464773)" lucid:page-tab-id="0_0"><path d="M-2000-1000H500V500h-2500z" fill="#fff"/><path d="M-851.24-704.9c-16.57 0-30-10.76-30-24 0-10.62 8.13-19.56 20.73-22.84-.74-31.17 49.26-37.17 69.26-25.17 10-18 60-12 60 6 30-6 60 18 40 48 20 24 0 54-40 42-10 15.6-50 15.6-60 0-20 12-60 6-60-24z" stroke="#000" stroke-width="2" fill="#fff"/><use xlink:href="#a" transform="matrix(1,0,0,1,-876.2385832327725,-783.9139955464773) translate(3.3018750000000185 63.843333333333334)"/><path d="M-1567.18-231.12c-16.57 0-30-12.6-30-28.14 0-12.43 8.12-22.92 20.73-26.76-.73-36.55 49.27-43.6 69.27-29.52 10-21.1 60-14.07 60 7.04 30-7.04 60 21.1 40 56.27 20 28.14 0 63.32-40 49.25-10 18.3-50 18.3-60 0-20 14.07-60 7.03-60-28.14z" stroke="#000" stroke-width="4" fill="#fff"/><use xlink:href="#b" transform="matrix(1,0,0,1,-1592.1803107208577,-324.60694875707577) translate(46.27887152777778 41.99652777777778)"/><use xlink:href="#c" transform="matrix(1,0,0,1,-1592.1803107208577,-324.60694875707577) translate(14.402126736111114 74.26215277777777)"/><use xlink:href="#d" transform="matrix(1,0,0,1,-1592.1803107208577,-324.60694875707577) translate(125.11176215277776 74.26215277777777)"/><use xlink:href="#e" transform="matrix(1,0,0,1,-1592.1803107208577,-324.60694875707577) translate(31.00478298611112 106.52777777777777)"/><use xlink:href="#f" transform="matrix(1,0,0,1,-1592.1803107208577,-324.60694875707577) translate(105.03907118055557 106.52777777777777)"/><path d="M-817-444.9c-13.26 0-24-10.76-24-24 0-10.62 6.5-19.56 16.58-22.84-.6-31.17 39.4-37.17 55.4-25.17 8-18 48-12 48 6 24-6 48 18 32 48 16 24 0 54-32 42-8 15.6-40 15.6-48 0-16 12-48 6-48-24z" stroke="#000" stroke-width="2" fill="#fff"/><use xlink:href="#g" transform="matrix(1,0,0,1,-836.0075988292397,-523.9139955464773) translate(7.0605555555555615 55.53777777777778)"/><use xlink:href="#h" transform="matrix(1,0,0,1,-836.0075988292397,-523.9139955464773) translate(36.010425347222224 87.80340277777776)"/><use xlink:href="#i" transform="matrix(1,0,0,1,-836.0075988292397,-523.9139955464773) translate(68.82292534722222 87.80340277777776)"/><path d="M-89.35-444.9c-13.26 0-24-10.76-24-24 0-10.62 6.5-19.56 16.58-22.84-.58-31.17 39.42-37.17 55.42-25.17 8-18 48-12 48 6 24-6 48 18 32 48 16 24 0 54-32 42-8 15.6-40 15.6-48 0-16 12-48 6-48-24z" stroke="#000" stroke-width="2" fill="#fff"/><use xlink:href="#j" transform="matrix(1,0,0,1,-108.3530226124758,-523.9139955464773) translate(6.648871527777786 62.77777777777778)"/><use xlink:href="#h" transform="matrix(1,0,0,1,-108.3530226124758,-523.9139955464773) translate(52.41710069444445 62.77777777777778)"/><use xlink:href="#k" transform="matrix(1,0,0,1,-108.3530226124758,-523.9139955464773) translate(85.22960069444444 62.77777777777778)"/><path d="M-1413.18-445.6c-13.25 0-24-10.75-24-24 0-10.6 6.5-19.56 16.58-22.83-.58-31.18 39.42-37.18 55.42-25.18 8-18 48-12 48 6 24-6 48 18 32 48 16 24 0 54-32 42-8 15.6-40 15.6-48 0-16 12-48 6-48-24z" stroke="#000" stroke-width="2" fill="#fff"/><use xlink:href="#l" transform="matrix(1,0,0,1,-1432.1803107208577,-524.6069487570758) translate(44.165156249999995 31.84027777777778)"/><use xlink:href="#m" transform="matrix(1,0,0,1,-1432.1803107208577,-524.6069487570758) translate(39.60785590277778 64.10590277777777)"/><use xlink:href="#n" transform="matrix(1,0,0,1,-1432.1803107208577,-524.6069487570758) translate(45.95508680555555 96.37152777777777)"/><path d="M-790.75-596.98h-560.4l-.9.07-.84.2-.8.33-.73.45-.66.56-.55.66-.45.74-.33.8-.2.84-.07.9v64.24h-.95v-64.3l.07-1 .24-.97.4-.94.52-.86.66-.77.77-.66.88-.52.94-.4 1-.23.98-.08h560.45zm30.22-20.2h-.95v-34.66h.95z" stroke="#3a414a" stroke-width=".05" fill="#3a414a"/><path d="M-1356.7-526.92l-.95.48v-.76h.95z" fill="#3a414a"/><path stroke="#3a414a" stroke-width=".05" fill="#3a414a"/><path d="M-756.37-652.34h-9.27l4.63-14.26z" fill="#3a414a"/><path d="M-755.72-651.86h-10.58l5.3-16.28zm-9.27-.95h7.97l-3.98-12.27zM-760.53-526.5h-.95v-58.4h.95zm0-90.68h-.95v-34.66h.95z" stroke="#3a414a" stroke-width=".05" fill="#3a414a"/><path d="M-760.53-526.23l-.95.48v-.75h.95z" fill="#3a414a"/><path stroke="#3a414a" stroke-width=".05" fill="#3a414a"/><path d="M-756.37-652.34h-9.27l4.63-14.26z" fill="#3a414a"/><path d="M-755.72-651.86h-10.58l5.3-16.28zm-9.27-.95h7.97l-3.98-12.27zM-39.33-597.58l1 .08.98.24.94.38.85.53.78.67.66.77.52.85.4.94.22.98.08 1v64.63h-.95v-64.6l-.07-.87-.2-.84-.33-.8-.45-.75-.57-.66-.66-.57-.74-.46-.8-.33-.85-.2-.87-.07h-691.9v-.95zm-721.2-19.6h-.95v-34.66h.95z" stroke="#3a414a" stroke-width=".05" fill="#3a414a"/><path d="M-32.88-526.23l-.95.48v-.75h.95z" fill="#3a414a"/><path stroke="#3a414a" stroke-width=".05" fill="#3a414a"/><path d="M-756.37-652.34h-9.27l4.63-14.26z" fill="#3a414a"/><path d="M-755.72-651.86h-10.58l5.3-16.28zm-9.27-.95h7.97l-3.98-12.27z" stroke="#3a414a" stroke-width=".05" fill="#3a414a"/><use xlink:href="#o" transform="matrix(1,0,0,1,-790.7536925792397,-617.177508092812) translate(0 25.833333333333336)"/><path d="M-1287.18-245.6c-16.57 0-30-10.75-30-24 0-10.6 8.12-19.56 20.73-22.83-.73-31.18 49.27-37.18 69.27-25.18 10-18 60-12 60 6 30-6 60 18 40 48 20 24 0 54-40 42-10 15.6-50 15.6-60 0-20 12-60 6-60-24z" stroke="#000" stroke-width="4" fill="#fff"/><use xlink:href="#p" transform="matrix(1,0,0,1,-1312.1803107208577,-324.60694875707577) translate(49.689027777777774 62.77777777777778)"/><path d="M-1340.53-374.35l.07.88.2.85.33.8.45.74.57.65.65.57.73.45.8.32.85.2.88.07h111.84l1 .07.98.24.94.4.87.53.77.66.66.76.53.87.38.94.24.98.08 1v34.15h-.95v-34.1l-.07-.9-.2-.84-.34-.8-.45-.74-.58-.66-.65-.56-.74-.45-.8-.33-.85-.2-.88-.08h-111.83l-1-.07-.98-.24-.95-.4-.86-.52-.8-.65-.65-.77-.53-.87-.4-.93-.22-1-.08-.98v-2.8h.95z" stroke="#3a414a" stroke-width=".05" fill="#3a414a"/><path d="M-1216.7-327.88l-.95.35v-.7h.95z" fill="#3a414a"/><path stroke="#3a414a" stroke-width=".05" fill="#3a414a"/><path d="M-1338.17-398.6h-5.68l2.84-8.74z" fill="#3a414a"/><path d="M-1337.67-398.6h-1l-2.34-7.2-2.35 7.2h-1l3.34-10.28zM-1340.53-375.52l-.08 1-.25.98-.4.94-.52.87-.66.77-.77.66-.87.53-.94.4-1 .23-1 .07h-123.6l-.9.07-.83.2-.8.34-.74.45-.66.55-.56.66-.44.75-.34.8-.2.84-.07.88v32.9h-.95v-32.94l.08-1 .24-.98.4-.94.52-.87.66-.77.77-.66.87-.53.94-.4.98-.24 1-.08h123.6l.9-.07.84-.2.8-.32.74-.45.66-.57.56-.66.45-.73.35-.8.2-.85.07-.88v-1.53h.95z" stroke="#3a414a" stroke-width=".05" fill="#3a414a"/><path d="M-1476.15-330.1l-.95-.06v-.48h.95z" fill="#3a414a"/><path stroke="#3a414a" stroke-width=".05" fill="#3a414a"/><path d="M-1338.17-398.6h-5.68l2.84-8.74z" fill="#3a414a"/><path d="M-1337.67-398.6h-1l-2.34-7.2-2.35 7.2h-1l3.34-10.28z" stroke="#3a414a" stroke-width=".05" fill="#3a414a"/><use xlink:href="#q" transform="matrix(1,0,0,1,-1360.8383279959064,-398.6008163404703) translate(0 17.22222222222222)"/><path d="M-1413.18-5.6c-13.25 0-24-10.75-24-24 0-10.6 6.5-19.56 16.58-22.83-.58-31.18 39.42-37.18 55.42-25.18 8-18 48-12 48 6 24-6 48 18 32 48 16 24 0 54-32 42-8 15.6-40 15.6-48 0-16 12-48 6-48-24z" fill="#fff"/><path d="M-1426.48-9.7l-.73-.43-3.75-3.34-2.1-2.87m-3.55-8.6l-.43-1.94-.15-2.73.4-3.75m2.2-7.16l2.3-3.8 2.16-2.24m6.04-4.44l3.48-1.45.08-3.1.07-.6m1.55-7.22l.88-2.15 1.08-2.1 1.28-2 .2-.27m5.1-5.34l2.08-1.57 2.56-1.58 1.6-.8m6.92-2.6l1.32-.37 3.93-.76 2.02-.2m7.4-.16l2.64.2 3.56.62 1.1.3m6.93 2.55h.02l1.9 1.12 1.2.84.7-1.38.84-1.3.4-.5m5.82-4.66l1.05-.54 2.42-.93 2.88-.8.73-.12m7.45-.6l3.2.14 4.1.6.16.05m7.13 2.27l2.44 1.22 2.13 1.35 1.68 1.34.07.06m4.2 6.1l.3 1.1.22 1.18.08 1.23v.2l3.18-.63.47-.04m7.42 0l1.54.18 3.05.7 2.6.9m6.5 3.5l1.8 1.34 2.25 2.07 1.42 1.62m4.02 6.22l1 2.32.92 2.93.37 1.8m.55 7.4v.58l-.42 3.66-.68 3.08m-2.46 7l-1.24 2.72-.34.65 1.88 3.2m2.86 6.84l.66 2.2.68 3.9.06 1.17m-.35 7.4l-.35 1.95-.94 3-.94 2.1m-4.27 6.05l-1.02 1.02-2.07 1.64-2.25 1.4-.64.3m-7.05 2.2l-.53.1-3.4.26-3.48-.16m-7.27-1.47l-2.7-.8-.85-.3-.86 1.47-1.04 1.43-.02.02m-5.32 4.5l-1.5.86-2.64 1.18-2.26.73m-6.87 1.3l-1.36.14h-4l-1.6-.16m-6.88-1.3l-2.08-.66-2.67-1.16-1.64-.95m-5.32-4.48l-1-1.36-.87-1.48-.05-.1-2.24 1.52-1.3.7m-7.83 2.8l-2.94.53-3.53.25-1.82-.06m-8.23-1.28l-.2-.05-3-1.1-2.74-1.3-1.63-1.02m-6.2-5.52l-.53-.62-1.53-2.24-1.33-2.45-.78-1.9m-1.93-8.1l-.24-3.05v-1.1l-4.7-.5" stroke="#000" stroke-width="2" fill="none"/><use xlink:href="#r" transform="matrix(1,0,0,1,-1432.1803107208577,-84.60694875707577) translate(24.41059895833333 45.59027777777778)"/><use xlink:href="#s" transform="matrix(1,0,0,1,-1432.1803107208577,-84.60694875707577) translate(25.76216145833335 77.85590277777777)"/><use xlink:href="#t" transform="matrix(1,0,0,1,-1432.1803107208577,-84.60694875707577) translate(58.94358506944445 77.85590277777777)"/><path d="M-1340.45-105.73h-.95v-11.7h.95zm-156.25-40.72l.06.88.2.85.34.8.45.74.56.66.67.56.74.45.8.32.86.2.88.08h144.25l1 .07.98.24.93.4.88.53.77.66.06.05h-1.46l-.66-.4-.8-.33-.84-.2-.88-.07h-144.26l-1-.08-.98-.24-.94-.4-.87-.52-.76-.65-.66-.77-.53-.87-.4-.93-.23-1-.08-.98v-44.62h.96z" stroke="#3a414a" stroke-width=".05" fill="#3a414a"/><path d="M-1496.7-191.28v.28h-.95v-.76z" fill="#3a414a"/><path stroke="#3a414a" stroke-width=".05" fill="#3a414a"/><path d="M-1340.93-90.96l-4.63-14.27h9.27z" fill="#3a414a"/><path d="M-1340.93-89.42l-5.28-16.28h10.56zm-3.98-15.33l3.97 12.25 4-12.25z" stroke="#3a414a" stroke-width=".05" fill="#3a414a"/><path d="M-1339-105.65h-.96v-11.8h.95zm122.3-50.75l-.08 1-.24 1-.4.93-.52.86-.66.76-.77.66-.87.54-.94.38-1 .24-.98.08h-110.3l-.9.07-.83.2-.8.33-.73.46-.66.56-.55.66-.45.74-.34.8-.2.84-.07.88v5.45h-.96v-5.48l.08-1 .24-1 .4-.92.52-.87.66-.77.77-.65.88-.53.94-.4.98-.23 1-.1h110.3l.88-.06.85-.2.8-.33.74-.45.65-.56.57-.67.44-.74.33-.8.2-.85.08-.88v-54.64h.95z" stroke="#3a414a" stroke-width=".05" fill="#3a414a"/><path d="M-1216.7-211.38v.33h-.95v-.7z" fill="#3a414a"/><path stroke="#3a414a" stroke-width=".05" fill="#3a414a"/><path d="M-1339.48-90.88l-4.64-14.27h9.27z" fill="#3a414a"/><path d="M-1339.48-89.34l-5.3-16.28h10.6zm-3.98-15.33l3.98 12.25 3.98-12.25z" stroke="#3a414a" stroke-width=".05" fill="#3a414a"/><use xlink:href="#u" transform="matrix(1,0,0,1,-1384.9603158020002,-138.9480675717949) translate(0 17.22222222222222)"/><path d="M-1066.06-200c-21.93 0-39.7-17.9-39.7-40 0-17.67 10.74-32.58 27.43-38.04-.96-51.96 65.23-61.96 91.7-41.96 13.24-30 79.43-20 79.43 10 39.72-10 79.43 30 52.95 80 26.48 40 0 90-52.95 70-13.24 26-66.2 26-79.43 0-26.47 20-79.43 10-79.43-40z" stroke="#000" stroke-width="4" fill="#fff"/><use xlink:href="#v" transform="matrix(1,0,0,1,-1100.7704660812865,-335) translate(36.36589409722224 63.09027777777778)"/><use xlink:href="#w" transform="matrix(1,0,0,1,-1100.7704660812865,-335) translate(181.5047829861111 63.09027777777778)"/><use xlink:href="#x" transform="matrix(1,0,0,1,-1100.7704660812865,-335) translate(31.390633680555563 95.35590277777777)"/><use xlink:href="#y" transform="matrix(1,0,0,1,-1100.7704660812865,-335) translate(100.72657118055557 95.35590277777777)"/><use xlink:href="#z" transform="matrix(1,0,0,1,-1100.7704660812865,-335) translate(25.75565104166669 127.62152777777777)"/><use xlink:href="#A" transform="matrix(1,0,0,1,-1100.7704660812865,-335) translate(131.75608506944445 127.62152777777777)"/><use xlink:href="#B" transform="matrix(1,0,0,1,-1100.7704660812865,-335) translate(164.460078125 127.62152777777777)"/><path d="M-801.6-224.88c-19.65 0-35.58-13.4-35.58-29.92 0-13.22 9.63-24.38 24.58-28.46-.86-38.87 58.43-46.35 82.15-31.4 11.86-22.43 71.16-14.95 71.16 7.5 35.58-7.5 71.16 22.44 47.44 59.84 23.72 29.92 0 67.32-47.43 52.36-11.85 19.45-59.3 19.45-71.15 0-23.72 14.96-71.15 7.48-71.15-29.92z" stroke="#000" stroke-width="4" fill="#fff"/><use xlink:href="#C" transform="matrix(1,0,0,1,-832.1803107208577,-324.60694875707577) translate(57.51867187500001 47.77777777777778)"/><use xlink:href="#D" transform="matrix(1,0,0,1,-832.1803107208577,-324.60694875707577) translate(4.862196180555557 80.04340277777777)"/><use xlink:href="#E" transform="matrix(1,0,0,1,-832.1803107208577,-324.60694875707577) translate(115.82139756944444 80.04340277777777)"/><use xlink:href="#F" transform="matrix(1,0,0,1,-832.1803107208577,-324.60694875707577) translate(154.49327256944446 80.04340277777777)"/><use xlink:href="#h" transform="matrix(1,0,0,1,-832.1803107208577,-324.60694875707577) translate(69.32878472222222 112.30902777777777)"/><use xlink:href="#G" transform="matrix(1,0,0,1,-832.1803107208577,-324.60694875707577) translate(102.14128472222222 112.30902777777777)"/><path d="M-744.67-375.9l-.4.95-.52.87-.65.77-.78.65-.87.53-.93.4-1 .23-1 .08h-216.54l-.88.07-.85.2-.8.34-.74.44-.65.56-.56.66-.45.74-.34.8-.2.85-.07.88V-336h-.96v-29.9l.07-1 .25-1 .4-.93.52-.87.66-.77.77-.66.87-.53.94-.4 1-.23 1-.06h216.55l.88-.07.84-.2.8-.34.74-.45.67-.56.56-.66.46-.74.24-.6h1z" stroke="#3a414a" stroke-width=".05" fill="#3a414a"/><path d="M-972.9-335.73l-.96.44v-.73h.95z" fill="#3a414a"/><path stroke="#3a414a" stroke-width=".05" fill="#3a414a"/><path d="M-741.86-397.5h-5.95l2.96-9.15z" fill="#3a414a"/><path d="M-741.36-397.5h-1l-2.48-7.6-2.47 7.6h-1l3.46-10.7zM-744.36-375.17l.07.88.2.85.34.8.46.74.56.65.66.56.74.47.8.33.84.2.88.07h38.6l1 .08.97.24.94.38.86.53.77.67.66.77.52.87.4.95.23.98.08 1v32.63h-.95v-32.6l-.07-.88-.2-.84-.33-.8-.45-.74-.56-.66-.66-.56-.74-.45-.8-.34-.84-.2-.9-.08h-38.57l-1-.08-1-.23-.92-.38-.87-.53-.77-.67-.67-.78-.53-.86-.4-.95-.23-1-.08-1v-.84h.94z" stroke="#3a414a" stroke-width=".05" fill="#3a414a"/><path d="M-693.77-330l-.95-.08v-.47h.95z" fill="#3a414a"/><path stroke="#3a414a" stroke-width=".05" fill="#3a414a"/><path d="M-741.86-397.5h-5.95l2.96-9.15z" fill="#3a414a"/><path d="M-741.36-397.5h-1l-2.48-7.6-2.47 7.6h-1l3.46-10.7z" stroke="#3a414a" stroke-width=".05" fill="#3a414a"/><use xlink:href="#q" transform="matrix(1,0,0,1,-764.6656161042882,-397.49647701068915) translate(0 17.22222222222222)"/><path d="M-256.18-216.23c-22.64 0-41-13.4-41-29.92 0-13.22 11.1-24.37 28.33-28.46-1-38.87 67.34-46.35 94.68-31.4 13.67-22.43 82-14.95 82 7.5 41-7.5 82 22.43 54.68 59.83 27.34 29.92 0 67.32-54.67 52.36-13.66 19.44-68.33 19.44-82 0-27.34 14.95-82 7.47-82-29.93z" stroke="#000" stroke-width="4" fill="#fff"/><use xlink:href="#H" transform="matrix(1,0,0,1,-292.18031072085773,-315.952969084606) translate(92.60569444444444 47.77777777777778)"/><use xlink:href="#I" transform="matrix(1,0,0,1,-292.18031072085773,-315.952969084606) translate(26.4359809027778 80.04340277777777)"/><use xlink:href="#J" transform="matrix(1,0,0,1,-292.18031072085773,-315.952969084606) translate(214.22894965277777 80.04340277777777)"/><use xlink:href="#h" transform="matrix(1,0,0,1,-292.18031072085773,-315.952969084606) translate(49.7083420138889 112.30902777777777)"/><use xlink:href="#K" transform="matrix(1,0,0,1,-292.18031072085773,-315.952969084606) translate(82.5208420138889 112.30902777777777)"/><use xlink:href="#E" transform="matrix(1,0,0,1,-292.18031072085773,-315.952969084606) translate(143.49089409722222 112.30902777777777)"/><use xlink:href="#L" transform="matrix(1,0,0,1,-292.18031072085773,-315.952969084606) translate(182.16276909722222 112.30902777777777)"/><path d="M87.65-210.67c-22.65 0-41-15.13-41-33.8 0-14.9 11.1-27.5 28.33-32.12-1-43.87 67.34-52.3 94.68-35.42 13.66-25.34 82-16.9 82 8.44 41-8.44 82 25.34 54.67 67.57 27.34 33.77 0 76-54.67 59.1-13.67 21.97-68.34 21.97-82 0-27.34 16.9-82 8.45-82-33.77z" stroke="#000" stroke-width="4" fill="#fff"/><use xlink:href="#M" transform="matrix(1,0,0,1,51.6469773875242,-323.9139955464773) translate(43.98004340277778 56.30902777777778)"/><use xlink:href="#s" transform="matrix(1,0,0,1,51.6469773875242,-323.9139955464773) translate(119.54427951388888 56.30902777777778)"/><use xlink:href="#N" transform="matrix(1,0,0,1,51.6469773875242,-323.9139955464773) translate(152.725703125 56.30902777777778)"/><use xlink:href="#O" transform="matrix(1,0,0,1,51.6469773875242,-323.9139955464773) translate(23.751085069444443 88.57465277777777)"/><use xlink:href="#P" transform="matrix(1,0,0,1,51.6469773875242,-323.9139955464773) translate(127.22330729166667 88.57465277777777)"/><use xlink:href="#Q" transform="matrix(1,0,0,1,51.6469773875242,-323.9139955464773) translate(146.42903645833331 88.57465277777777)"/><use xlink:href="#R" transform="matrix(1,0,0,1,51.6469773875242,-323.9139955464773) translate(119.44401909722222 120.84027777777777)"/><path d="M-744 224c-19.88 0-36-10.75-36-24 0-10.6 9.75-19.55 24.88-22.82C-756 146-696 140-672 152c12-18 72-12 72 6 36-6 72 18 48 48 24 24 0 54-48 42-12 15.6-60 15.6-72 0-24 12-72 6-72-24z" fill="#fff"/><path d="M-755.78 222.57l-2.37-.5-5.18-1.86m-6.9-3.85l-1.9-1.36-2.7-2.6-1.15-1.45m-3.5-7.03l-.25-.97-.25-2.25-.02-.7.34-3.4.34-1.08m4.42-7.84l1.2-1.4 4.63-3.6 1.25-.63m8.33-3.6l4.38-1.27v-1.43l.08-1.35.16-1.3v-.03m2.8-7.7l.4-.64.8-1.17.93-1.18 1.06-1.2 1.22-1.2.94-.84m6.78-4.64l1.86-.98 2.97-1.35 2.68-1.02m7.9-2.34l1.58-.4 5.28-.97 1.23-.16m8.2-.8l2.47-.16 5.76-.02m8.2.55l3.18.37 4.5.8.47.1m7.9 2.28l1.15.43 2.1.94.55.26.55-.76.64-.78.74-.8.77-.7m7.02-4.1l.93-.37 2.72-.92 3.36-.86.8-.15m8.08-1.16h.2l5.7-.26 2.26.05m8.14.48l1.9.18 5.57.9.6.15m7.86 2.15l.06.02 2.98 1.16 2.33 1.1 1.83 1 .2.13m5.76 5.63l.07.14.27.57.22.57.17.56.12.54.1.55.04.55v.43l3.78-.43m7.6-.4l2.76-.03 4.83.46m7.5 1.3l.95.18 5.7 1.78.6.26m6.86 3.3l1.5.83 3.3 2.34 1.4 1.2m5.08 5.64l.02.04 1.32 2.2 1 2.18.75 2.16.07.3m.63 7.55l-.1 1.18-.5 2.52-.82 2.72-.4.93m-3.62 6.68l-1.74 2.5-.46.6 2.6 2.86m4.23 6.43l1 2.24.8 2.44.5 2.3.05.33m-.32 7.68l-.1.43-.62 1.98-.85 1.95-1.1 1.92-.52.7m-5.34 5.53l-1.68 1.25-2.95 1.73-2 .92m-7.3 2.46l-3.46.77-4.15.5m-7.72.26l-1.18.02-6.5-.6m-7.6-1.33l-3.8-.75-.7.85-.84.88-1 .92-.17.13m-6.66 4.03l-2.37 1-3.24 1.08-1.75.45m-7.63 1.54l-4.7.55-3.06.14m-7.8.02l-1-.02-5.63-.5-1.12-.2m-7.64-1.5l-.42-.1-3.48-1.08-2.84-1.1-.6-.28m-6.64-4.02l-.84-.73-.9-.9-.74-.85-.24-.3-2.73 1.25-1.3.5m-8.44 2.44l-1.6.35-4.85.73-2.25.2m-8.78.27l-4.75-.27-4-.5m-8.6-1.88l-.84-.23-3.5-1.2-3.05-1.3-.8-.43m-7.37-4.75l-.4-.33-1.5-1.4-1.28-1.38-1.13-1.4-1-1.4-.42-.72m-3.03-8.2l-.04-.2-.22-1.76-.1-1.85V224l-3.95-.27" stroke="#000" stroke-width="2" fill="none"/><use xlink:href="#S" transform="matrix(1,0,0,1,-775,145) translate(33.26845486111112 31.84027777777778)"/><use xlink:href="#T" transform="matrix(1,0,0,1,-775,145) translate(146.81012152777777 31.84027777777778)"/><use xlink:href="#U" transform="matrix(1,0,0,1,-775,145) translate(9.461380208333333 64.10590277777777)"/><use xlink:href="#V" transform="matrix(1,0,0,1,-775,145) translate(93.61936631944444 64.10590277777777)"/><use xlink:href="#W" transform="matrix(1,0,0,1,-775,145) translate(132.29124131944445 64.10590277777777)"/><use xlink:href="#X" transform="matrix(1,0,0,1,-775,145) translate(188.98611979166668 64.10590277777777)"/><use xlink:href="#Y" transform="matrix(1,0,0,1,-775,145) translate(103.64497395833334 96.37152777777777)"/><path d="M-558.6-224.88c-21.3 0-38.58-13.4-38.58-29.92 0-13.22 10.45-24.38 26.66-28.46-.94-38.87 63.35-46.35 89.07-31.4 12.86-22.43 77.15-14.95 77.15 7.5 38.58-7.5 77.16 22.44 51.44 59.84 25.72 29.92 0 67.32-51.44 52.36-12.85 19.45-64.3 19.45-77.15 0-25.72 14.96-77.15 7.48-77.15-29.92z" stroke="#000" stroke-width="4" fill="#fff"/><use xlink:href="#Z" transform="matrix(1,0,0,1,-592.1803107208577,-324.60694875707577) translate(29.858298611111106 60.90277777777778)"/><use xlink:href="#aa" transform="matrix(1,0,0,1,-592.1803107208577,-324.60694875707577) translate(103.28494791666667 60.90277777777778)"/><use xlink:href="#ab" transform="matrix(1,0,0,1,-592.1803107208577,-324.60694875707577) translate(40.46485243055557 93.16840277777777)"/><use xlink:href="#ac" transform="matrix(1,0,0,1,-592.1803107208577,-324.60694875707577) translate(101.022578125 93.16840277777777)"/><path d="M-744.36-373.5l.07.87.2.84.34.8.46.75.56.66.66.57.74.46.8.33.84.2.88.07h264.25l1 .08.98.25.95.38.87.54.77.66.65.77.53.87.4.93.23 1 .08 1v34.28h-.94v-34.26l-.07-.88-.2-.84-.34-.8-.45-.74-.56-.66-.66-.56-.74-.46-.8-.33-.85-.2-.88-.07h-264.25l-1-.08-1-.23-.92-.4-.87-.52-.77-.67-.67-.77-.53-.85-.4-.94-.23-.98-.08-1v-2.5h.94z" stroke="#3a414a" stroke-width=".05" fill="#3a414a"/><path d="M-468.1-326.9l-.96.36v-.7h.94z" fill="#3a414a"/><path stroke="#3a414a" stroke-width=".05" fill="#3a414a"/><path d="M-741.86-397.5h-5.95l2.96-9.15z" fill="#3a414a"/><path d="M-741.36-397.5h-1l-2.48-7.6-2.47 7.6h-1l3.46-10.7z" stroke="#3a414a" stroke-width=".05" fill="#3a414a"/><path d="M-973.4-144.08V-8.16a6 6 0 0 0 6 6h325.78a6 6 0 0 1 6 6v120.03" stroke="#3a414a" fill="none"/><path d="M-973.03-144.38l.12.05v.26h-.96v-.78z" stroke="#3a414a" stroke-width=".05" fill="#3a414a"/><path d="M-635.6 138.64l-4.65-14.27h9.27z" stroke="#3a414a" fill="#3a414a"/><path d="M-718.6-182.45v155.1a6 6 0 0 0 6 6h71a6 6 0 0 1 6 6v139.22" stroke="#3a414a" fill="none"/><path d="M-718.1-182.74v.3h-.97v-.72z" stroke="#3a414a" stroke-width=".05" fill="#3a414a"/><path d="M-635.6 138.64l-4.65-14.27h9.27z" stroke="#3a414a" fill="#3a414a"/><path d="M-468.6-182.47v155.1a6 6 0 0 1-6 6h-155a6 6 0 0 0-6 6v139.24" stroke="#3a414a" fill="none"/><path d="M-468.1-182.76v.3h-.96v-.7z" stroke="#3a414a" stroke-width=".05" fill="#3a414a"/><path d="M-635.6 138.64l-4.65-14.27h9.27z" stroke="#3a414a" fill="#3a414a"/><path d="M-16.7-369.14l-.08 1-.24.98-.4.94-.52.87-.66.77-.77.66-.87.53-.94.4-1 .24-.98.08H-154.5l-.87.07-.84.2-.8.32-.75.45-.66.57-.57.66-.46.73-.33.8-.2.85-.07.88v38.6h-.95v-38.64l.08-1 .24-.98.4-.94.52-.86.66-.78.77-.66.86-.53.94-.4.98-.23 1-.07H-23.2l.88-.07.85-.2.8-.34.74-.45.66-.55.56-.66.44-.75.33-.8.2-.84.07-.88v-2.22h.96z" stroke="#3a414a" stroke-width=".05" fill="#3a414a"/><path d="M-160.03-318.2l-.95.3v-.66h.95z" fill="#3a414a"/><path stroke="#3a414a" stroke-width=".05" fill="#3a414a"/><path d="M-12.72-392.9h-8.92l4.46-13.75z" fill="#3a414a"/><path d="M-12.22-392.9h-1l-3.96-12.2-3.96 12.2h-1l4.96-15.3zM-15.1-370.8l.67.56.74.45.8.35.86.2.88.07H205.3l1 .07 1 .23.94.4.86.52.77.66.66.8.53.85.4.94.23.98.07 1v33.07h-.95v-33.04l-.07-.87-.2-.85-.33-.8-.46-.73-.56-.66-.66-.58-.74-.45-.8-.33-.84-.2-.88-.07H-11.2l-1-.08-.98-.25-.94-.4-.87-.52-.76-.66-.66-.77-.3-.5h1.12z" stroke="#3a414a" stroke-width=".05" fill="#3a414a"/><path d="M211.77-329.13l-.95-.04v-.5h.95z" fill="#3a414a"/><path stroke="#3a414a" stroke-width=".05" fill="#3a414a"/><path d="M-12.72-392.9h-8.92l4.46-13.75z" fill="#3a414a"/><path d="M-12.22-392.9h-1l-3.96-12.2-3.96 12.2h-1l4.96-15.3z" stroke="#3a414a" stroke-width=".05" fill="#3a414a"/><g><use xlink:href="#ad" transform="matrix(1,0,0,1,-29.86694266530215,-392.91302316467556) translate(0 17.22222222222222)"/></g><path d="M-700 66a6 6 0 0 1 6-6h107.32a6 6 0 0 1 6 6v24.9a6 6 0 0 1-6 6H-694a6 6 0 0 1-6-6z" fill="none"/><g><use xlink:href="#ae" transform="matrix(1,0,0,1,-695,65) translate(0 21.58376736111111)"/></g><path d="M99.32 102.45c-19.88 0-36-10.75-36-24 0-10.6 9.75-19.55 24.88-22.83-.88-31.17 59.12-37.17 83.12-25.17 12-18 72-12 72 6 36-6 72 18 48 48 24 24 0 54-48 42-12 15.6-60 15.6-72 0-24 12-72 6-72-24z" fill="#fff"/><path d="M87.55 101.02l-2.37-.5-5.2-1.86m-6.88-3.86l-1.9-1.36-2.7-2.58-1.15-1.46m-3.5-7.03l-.26-.97-.26-2.25-.02-.7.35-3.4.33-1.08m4.42-7.84l1.2-1.4 4.63-3.6 1.25-.63m8.33-3.6l4.37-1.28V54.2l.1-1.36.15-1.3v-.02m2.8-7.7l.4-.64.8-1.17.92-1.17 1.06-1.2 1.2-1.2.95-.84m6.78-4.65l1.87-.98 2.96-1.35 2.68-1.02m7.9-2.34l1.58-.4 5.27-.98 1.23-.16m8.2-.8l2.47-.17 5.75-.02m8.22.55l3.16.36 4.52.8.45.1m7.9 2.3l1.15.42 2.1.93.54.25.55-.77.64-.77.77-.78.77-.7m7-4.1l.93-.38 2.73-.9 3.36-.87.8-.15m8.07-1.16l.18-.02 5.72-.25 2.26.04m8.14.5l1.9.17 5.57.92.58.14m7.87 2.14l.06.02 3 1.16 2.33 1.1 1.82 1 .2.13m5.77 5.64l.08.15.27.56.2.56.18.56.13.54.08.55.05.55.02.43 3.8-.43m7.58-.4l2.76-.03 4.83.45m7.48 1.3l.97.18 5.7 1.78.6.27m6.86 3.3l1.5.83 3.32 2.34 1.38 1.2m5.08 5.65l.03.03 1.33 2.2 1 2.18.75 2.17.07.3m.63 7.55l-.1 1.18-.5 2.52-.83 2.72-.4.94m-3.6 6.67l-1.76 2.5-.48.6 2.6 2.86m4.23 6.44l1 2.25.8 2.43.5 2.3.05.33m-.32 7.67l-.1.42-.62 1.98-.85 1.95-1.1 1.92-.5.7m-5.34 5.53l-1.68 1.24-2.94 1.74-2.02.93m-7.3 2.45l-3.46.78-4.15.48m-7.7.27l-1.18.02-6.5-.6m-7.6-1.32l-3.8-.75-.7.85-.84.88-1 .9-.17.15m-6.63 4.03l-2.38.98-3.25 1.1-1.75.44m-7.63 1.54l-4.7.55-3.05.14m-7.8.03l-1-.02-5.62-.5-1.13-.2m-7.63-1.5l-.43-.1-3.47-1.07-2.84-1.1-.62-.28m-6.64-4.02l-.84-.73-.9-.9-.74-.85-.24-.3-2.73 1.24-1.3.48m-8.45 2.46l-1.6.36-4.84.73-2.24.2m-8.8.27l-4.74-.27-4-.5m-8.6-1.88l-.84-.23-3.5-1.22-3.04-1.3-.8-.4m-7.38-4.76l-.4-.32-1.5-1.4-1.3-1.38-1.12-1.4-.98-1.4-.43-.7m-3.04-8.2l-.05-.23-.22-1.73-.1-1.85v-.57l-3.96-.27" stroke="#000" stroke-width="2" fill="none"/><g><use xlink:href="#af" transform="matrix(1,0,0,1,68.3234886937621,23.449010416666667) translate(45.61372395833333 29.537777777777777)"/><use xlink:href="#T" transform="matrix(1,0,0,1,68.3234886937621,23.449010416666667) translate(137.46485243055554 29.537777777777777)"/><use xlink:href="#ag" transform="matrix(1,0,0,1,68.3234886937621,23.449010416666667) translate(21.831171875000003 61.80340277777778)"/><use xlink:href="#V" transform="matrix(1,0,0,1,68.3234886937621,23.449010416666667) translate(109.38542534722222 61.80340277777778)"/><use xlink:href="#ah" transform="matrix(1,0,0,1,68.3234886937621,23.449010416666667) translate(148.05730034722222 61.80340277777778)"/><use xlink:href="#ai" transform="matrix(1,0,0,1,68.3234886937621,23.449010416666667) translate(43.511293402777774 94.06902777777776)"/><use xlink:href="#aj" transform="matrix(1,0,0,1,68.3234886937621,23.449010416666667) translate(98.81728298611111 94.06902777777776)"/></g><path d="M140-54a6 6 0 0 1 6-6h107.32a6 6 0 0 1 6 6v24.9a6 6 0 0 1-6 6H146a6 6 0 0 1-6-6z" fill="none"/><g><use xlink:href="#ae" transform="matrix(1,0,0,1,145,-55) translate(0 21.58376736111111)"/></g><path d="M183.32-163.12V5.05" stroke="#3a414a" fill="none"/><path d="M183.8-163.4v.3h-.95v-.73z" stroke="#3a414a" stroke-width=".05" fill="#3a414a"/><path d="M183.32 19.82L178.7 5.55h9.26z" stroke="#3a414a" fill="#3a414a"/><path d="M-275.42 115.5c-24.62 0-44.58-16.58-44.58-37.05 0-16.37 12.07-30.2 30.8-35.25-1.08-48.13 73.2-57.4 102.93-38.87C-171.4-23.47-97.1-14.2-97.1 13.6-52.55 4.33-7.97 41.4-37.7 87.7c29.72 37.07 0 83.4-59.43 64.87-14.87 24.08-74.3 24.08-89.17 0-29.72 18.53-89.15 9.26-89.15-37.06z" fill="#fff"/><path d="M-287.37 114.16l-5.33-1.54-2.3-.95m-7.17-3.58l-.1-.06-4-2.84-2.24-2m-5.3-6l-1.15-1.6-1.87-3.38-.85-2.03m-2.05-7.75l-.08-.5-.2-3.5.3-4.2m2.17-8.07l.42-1.12 2.26-4.2 1.45-1.95m5.7-6.15l4.4-3.34 2.5-1.38m7.63-3.46l2.38-.9 1.6-.46V41l.1-1.84m1.35-7.98l.5-1.67.6-1.7.7-1.68.77-1.64.43-.8m4.5-6.7l.33-.4 1.38-1.55 1.52-1.53 1.66-1.53.85-.7m6.6-4.7l1.03-.64 2.68-1.46 2.95-1.43.52-.2m7.56-2.9l2.5-.8 4.16-1.08 1.15-.24m7.97-1.45l4.8-.54 3.26-.2m8.1-.13l3.32.1 4.6.4h.16m8 1.26l.1.02 3.6.83 3.24.93.9.3m7.5 3.04l1.3.67 1.78 1 .45.3.6-1.05.67-1.04.74-1.02.06-.07m5.5-5.17l1.14-.8 1.65-1 1.85-1 1.93-.9m7.15-2.44l1.23-.33 3.5-.74 2.68-.43m7.53-.7l2.66-.1 4.9.06m7.54.67l2.4.3 4.68.86.38.1m7.3 1.97l.45.13 3.36 1.23 2.9 1.24.33.16m6.55 3.78l1.13.83 1.33 1.1 1.14 1.04.98 1 .85.98.12.16m3.45 6.67l.03.14.18.82.13.84.1.85.02.87v.23l3.86-.67m7.8-.7l2.05-.06 4.53.14 1.22.13m7.75 1.08l4.14 1 3.4 1.05m7.25 2.96l.9.44 3.38 1.86 2.5 1.6m6.15 4.8l2.26 2.2 2.08 2.35.95 1.22m4.24 6.56l.97 1.96 1.05 2.5.85 2.57.05.2m1.47 7.68v.08l.16 2.78-.03 2.88-.17 2.08m-1.37 7.7l-.84 2.9-1.3 3.58-.4.9m-3.47 7.03l-2.03 3.34v.02l2.35 3.16m4.07 6.73l.72 1.38 1.52 3.55.8 2.33m1.8 7.66l.02.06.3 3.14.07 3.06-.1 1.6m-1.27 7.75l-.56 1.9-1 2.6-1.16 2.48-.2.33m-4.43 6.5l-.06.07-1.96 2.1-2.16 1.98-1.56 1.22m-6.66 4.17l-2.77 1.3-3.44 1.27-1.12.32m-7.68 1.72l-3.6.46-4.24.2m-7.87-.3l-4.44-.46-3.34-.62m-7.67-1.76l-3.33-.88-.48-.15h-.02l-.74 1.13-.84 1.14-.9 1.07m-6.28 5.45l-.7.47-1.98 1.2-2.25 1.18-2.4 1.1m-7.88 2.68l-2.1.56-4 .83-2.06.3m-8.3.83l-3.42.13-4.8-.1h-.1m-8.3-.84l-.74-.1-4.13-.8-3.27-.8m-7.87-2.72l-1.66-.72-2.34-1.18-2.06-1.2-1.28-.83m-6.28-5.44l-.63-.72-.88-1.14-.77-1.13-.22-.33-2.35 1.37-1.27.65m-7.63 3.22l-3.12.98-3.68.94-1.2.23m-8.2 1.2l-2.84.24-4.3.1-1.16-.02m-8.28-.6l-3.06-.45-3.85-.78-1.26-.32m-7.9-2.54l-1.04-.4-2.9-1.32-2.7-1.4-.82-.5m-6.8-4.74l-1.12-.96-1.75-1.67-1.6-1.7-1.32-1.57m-4.48-6.97l-.4-.75-.9-2.04-.8-2.13-.7-2.22-.15-.58m-1.4-8.17l-.1-1.35-.07-2.8-4-.22" stroke="#000" stroke-width="2" fill="none"/><g><use xlink:href="#ak" transform="matrix(1,0,0,1,-315,-9.196718750000016) translate(53.612638888888895 65.52777777777777)"/><use xlink:href="#al" transform="matrix(1,0,0,1,-315,-9.196718750000016) translate(157.71420138888888 65.52777777777777)"/><use xlink:href="#am" transform="matrix(1,0,0,1,-315,-9.196718750000016) translate(215.43989583333334 65.52777777777777)"/><use xlink:href="#ai" transform="matrix(1,0,0,1,-315,-9.196718750000016) translate(17.7697482638889 97.79340277777777)"/><use xlink:href="#an" transform="matrix(1,0,0,1,-315,-9.196718750000016) translate(73.07573784722223 97.79340277777777)"/><use xlink:href="#ao" transform="matrix(1,0,0,1,-315,-9.196718750000016) translate(186.35698784722223 97.79340277777777)"/><use xlink:href="#ap" transform="matrix(1,0,0,1,-315,-9.196718750000016) translate(219.53841145833331 97.79340277777777)"/><use xlink:href="#aq" transform="matrix(1,0,0,1,-315,-9.196718750000016) translate(48.47592013888889 130.05902777777777)"/><use xlink:href="#al" transform="matrix(1,0,0,1,-315,-9.196718750000016) translate(100.21203125 130.05902777777777)"/><use xlink:href="#ar" transform="matrix(1,0,0,1,-315,-9.196718750000016) translate(157.93772569444442 130.05902777777777)"/></g><path d="M-160.5-173.84v145.28" stroke="#3a414a" fill="none"/><path d="M-160.03-174.16v.34h-.95v-.7z" stroke="#3a414a" stroke-width=".05" fill="#3a414a"/><path d="M-160.5-13.8l-4.64-14.27h9.27z" stroke="#3a414a" fill="#3a414a"/><path d="M-220-83.6a6 6 0 0 1 6-6h107.32a6 6 0 0 1 6 6v24.9a6 6 0 0 1-6 6H-214a6 6 0 0 1-6-6z" fill="none"/><g><use xlink:href="#ae" transform="matrix(1,0,0,1,-215,-84.60694875707577) translate(0 21.58376736111111)"/></g><defs><path d="M783 20c-382 0-661-292-661-764 0-473 279-766 661-766 302 0 548 182 601 489h-190c-42-204-217-313-411-313-268 0-476 208-476 590 0 381 209 588 476 588 195 0 369-110 411-313h190c-52 303-296 489-601 489" id="as"/><path d="M613 24c-304 0-509-231-509-576 0-350 205-580 509-580 305 0 511 230 511 580 0 345-206 576-511 576zm0-161c226 0 329-195 329-415 0-222-103-419-329-419-223 0-326 196-326 419 0 220 103 415 326 415" id="at"/><path d="M338-670V0H158v-1118h173l1 207c72-158 192-221 342-221 226 0 378 139 378 422V0H872v-695c0-172-96-275-252-275-161 0-282 109-282 300" id="au"/><path d="M678-1118v154H420V0H240v-964H20v-154h220v-149c0-194 155-293 318-293 85 0 141 18 168 30l-50 154c-19-6-47-17-97-17-111 0-159 58-159 166v109h258" id="av"/><path d="M158 0v-1118h180V0H158zm91-1301c-68 0-125-53-125-119s57-119 125-119c69 0 126 53 126 119s-57 119-126 119" id="aw"/><path d="M471 26C259 26 90-98 90-318c0-256 228-303 435-329 202-27 287-16 287-108 0-139-79-219-234-219-161 0-248 86-283 164l-173-57c86-203 278-265 451-265 150 0 419 46 419 395V0H815v-152h-12C765-73 660 26 471 26zm31-159c199 0 310-134 310-271v-155c-30 35-226 55-295 64-131 17-246 59-246 186 0 116 97 176 231 176" id="ax"/><path d="M677 24c-213 0-288-135-325-197h-20V0H158v-1490h180v551h14c37-59 106-193 324-193 279 0 474 222 474 576 0 356-194 580-473 580zm-27-161c209 0 317-186 317-421 0-232-105-413-317-413-206 0-314 166-314 413 0 249 111 421 314 421" id="ay"/><path d="M338-1490V0H158v-1490h180" id="az"/><path d="M577 24c-279 0-473-224-473-580 0-354 195-576 474-576 218 0 287 134 324 193h14v-551h180V0H922v-173h-20C865-111 790 24 577 24zm27-161c203 0 314-172 314-421 0-247-108-413-314-413-212 0-317 181-317 413 0 235 108 421 317 421" id="aA"/><path d="M628 24c-324 0-524-230-524-574 0-343 198-582 503-582 237 0 487 146 487 559v75H286c9 234 145 362 343 362 132 0 231-58 273-172l174 48C1024-91 857 24 628 24zM287-650h624c-17-190-120-322-304-322-192 0-309 151-320 322" id="aB"/><g id="a"><use transform="matrix(0.013020833333333334,0,0,0.013020833333333334,0,0)" xlink:href="#as"/><use transform="matrix(0.013020833333333334,0,0,0.013020833333333334,19.479166666666668,0)" xlink:href="#at"/><use transform="matrix(0.013020833333333334,0,0,0.013020833333333334,35.46875,0)" xlink:href="#au"/><use transform="matrix(0.013020833333333334,0,0,0.013020833333333334,51.223958333333336,0)" xlink:href="#av"/><use transform="matrix(0.013020833333333334,0,0,0.013020833333333334,61.09375,0)" xlink:href="#aw"/><use transform="matrix(0.013020833333333334,0,0,0.013020833333333334,67.55208333333333,0)" xlink:href="#ax"/><use transform="matrix(0.013020833333333334,0,0,0.013020833333333334,82.52604166666666,0)" xlink:href="#ay"/><use transform="matrix(0.013020833333333334,0,0,0.013020833333333334,98.85416666666666,0)" xlink:href="#aw"/><use transform="matrix(0.013020833333333334,0,0,0.013020833333333334,105.31249999999999,0)" xlink:href="#az"/><use transform="matrix(0.013020833333333334,0,0,0.013020833333333334,111.77083333333331,0)" xlink:href="#aw"/><use transform="matrix(0.013020833333333334,0,0,0.013020833333333334,118.22916666666664,0)" xlink:href="#aA"/><use transform="matrix(0.013020833333333334,0,0,0.013020833333333334,134.55729166666663,0)" xlink:href="#ax"/><use transform="matrix(0.013020833333333334,0,0,0.013020833333333334,149.53124999999997,0)" xlink:href="#aA"/><use transform="matrix(0.013020833333333334,0,0,0.013020833333333334,165.85937499999997,0)" xlink:href="#aB"/></g><path d="M598-1118v154H368v674c0 100 37 144 132 144 23 0 62-6 92-12L629-6c-37 13-88 20-134 20-193 0-307-107-307-290v-688H20v-154h168v-266h180v266h230" id="aC"/><path d="M537 14c-226 0-379-139-379-422v-710h180v695c0 172 97 275 253 275 160 0 281-109 281-300v-670h181V0H879v-209C806-46 684 14 537 14" id="aD"/><path d="M158 0v-1118h174v172h12c41-113 157-188 290-188 26 0 70 2 91 3v181c-11-2-60-10-108-10-161 0-279 109-279 260V0H158" id="aE"/><g id="b"><use transform="matrix(0.010850694444444444,0,0,0.010850694444444444,0,0)" xlink:href="#as"/><use transform="matrix(0.010850694444444444,0,0,0.010850694444444444,16.23263888888889,0)" xlink:href="#at"/><use transform="matrix(0.010850694444444444,0,0,0.010850694444444444,29.557291666666664,0)" xlink:href="#au"/><use transform="matrix(0.010850694444444444,0,0,0.010850694444444444,42.68663194444444,0)" xlink:href="#aC"/><use transform="matrix(0.010850694444444444,0,0,0.010850694444444444,49.95659722222222,0)" xlink:href="#aw"/><use transform="matrix(0.010850694444444444,0,0,0.010850694444444444,55.338541666666664,0)" xlink:href="#au"/><use transform="matrix(0.010850694444444444,0,0,0.010850694444444444,68.46788194444444,0)" xlink:href="#aD"/><use transform="matrix(0.010850694444444444,0,0,0.010850694444444444,81.60807291666666,0)" xlink:href="#ax"/><use transform="matrix(0.010850694444444444,0,0,0.010850694444444444,94.08637152777777,0)" xlink:href="#aE"/></g><path d="M784 20c-382 0-662-292-662-764 0-473 280-766 662-766s660 293 660 766c0 472-278 764-660 764zm0-176c266 0 475-207 475-588 0-383-209-590-475-590-268 0-477 208-477 590 0 380 209 588 477 588" id="aF"/><path d="M158 418v-1536h174v179h20c37-59 106-193 324-193 279 0 474 222 474 576 0 356-194 580-473 580-213 0-288-135-325-197h-14v591H158zm492-555c209 0 317-186 317-421 0-232-105-413-317-413-206 0-314 166-314 413 0 249 111 421 314 421" id="aG"/><g id="c"><use transform="matrix(0.010850694444444444,0,0,0.010850694444444444,0,0)" xlink:href="#aF"/><use transform="matrix(0.010850694444444444,0,0,0.010850694444444444,16.9921875,0)" xlink:href="#aG"/><use transform="matrix(0.010850694444444444,0,0,0.010850694444444444,30.598958333333332,0)" xlink:href="#aB"/><use transform="matrix(0.010850694444444444,0,0,0.010850694444444444,43.5546875,0)" xlink:href="#aE"/><use transform="matrix(0.010850694444444444,0,0,0.010850694444444444,51.920572916666664,0)" xlink:href="#ax"/><use transform="matrix(0.010850694444444444,0,0,0.010850694444444444,64.39887152777777,0)" xlink:href="#au"/><use transform="matrix(0.010850694444444444,0,0,0.010850694444444444,77.52821180555554,0)" xlink:href="#aA"/><use transform="matrix(0.010850694444444444,0,0,0.010850694444444444,91.13498263888887,0)" xlink:href="#at"/></g><path d="M613 24c-304 0-509-231-509-576 0-350 205-580 509-580 216 0 392 114 453 309l-173 49c-33-115-133-197-280-197-223 0-326 196-326 419 0 220 103 415 326 415 150 0 252-85 285-206l172 49C1010-95 832 24 613 24" id="aH"/><path d="M158 0v-1118h175l1 205c55-151 181-225 313-225 147 0 245 90 285 228 53-141 190-228 352-228 194 0 352 125 352 384V0h-181v-749c0-161-105-225-225-225-151 0-243 103-243 244V0H807v-767c0-124-93-207-219-207-131 0-250 92-250 270V0H158" id="aI"/><g id="d"><use transform="matrix(0.010850694444444444,0,0,0.010850694444444444,0,0)" xlink:href="#aH"/><use transform="matrix(0.010850694444444444,0,0,0.010850694444444444,12.6953125,0)" xlink:href="#at"/><use transform="matrix(0.010850694444444444,0,0,0.010850694444444444,26.01996527777778,0)" xlink:href="#aI"/></g><path d="M180 0v-1490h901v168H370v510h643v168H370V0H180" id="aJ"/><path d="M338-670V0H158v-1490h180v566c73-149 190-208 336-208 226 0 379 139 379 422V0H872v-695c0-172-96-275-252-275-161 0-282 109-282 300" id="aK"/><path d="M538 24C308 24 148-78 108-271l171-41c32 123 123 178 257 178 156 0 256-77 256-169 0-77-54-128-164-154l-186-44c-203-48-300-148-300-305 0-192 176-326 414-326 230 0 351 112 402 269l-163 42c-31-80-94-158-238-158-133 0-233 69-233 162 0 83 57 129 188 160l169 40c203 48 298 149 298 302 0 196-179 339-441 339" id="aL"/><g id="e"><use transform="matrix(0.010850694444444444,0,0,0.010850694444444444,0,0)" xlink:href="#aJ"/><use transform="matrix(0.010850694444444444,0,0,0.010850694444444444,12.57595486111111,0)" xlink:href="#ax"/><use transform="matrix(0.010850694444444444,0,0,0.010850694444444444,25.05425347222222,0)" xlink:href="#az"/><use transform="matrix(0.010850694444444444,0,0,0.010850694444444444,30.436197916666664,0)" xlink:href="#aK"/><use transform="matrix(0.010850694444444444,0,0,0.010850694444444444,43.576388888888886,0)" xlink:href="#ax"/><use transform="matrix(0.010850694444444444,0,0,0.010850694444444444,56.0546875,0)" xlink:href="#aL"/></g><g id="f"><use transform="matrix(0.010850694444444444,0,0,0.010850694444444444,0,0)" xlink:href="#aG"/><use transform="matrix(0.010850694444444444,0,0,0.010850694444444444,13.823784722222221,0)" xlink:href="#ax"/><use transform="matrix(0.010850694444444444,0,0,0.010850694444444444,26.302083333333332,0)" xlink:href="#aE"/><use transform="matrix(0.010850694444444444,0,0,0.010850694444444444,34.299045138888886,0)" xlink:href="#aH"/><use transform="matrix(0.010850694444444444,0,0,0.010850694444444444,46.994357638888886,0)" xlink:href="#aw"/><use transform="matrix(0.010850694444444444,0,0,0.010850694444444444,52.37630208333333,0)" xlink:href="#ax"/><use transform="matrix(0.010850694444444444,0,0,0.010850694444444444,64.85460069444444,0)" xlink:href="#aw"/><use transform="matrix(0.010850694444444444,0,0,0.010850694444444444,70.23654513888889,0)" xlink:href="#aL"/></g><path d="M180 0v-1490h510c348 0 508 194 508 460 0 198-88 351-276 417L1256 0h-220L726-579c-117 2-238 0-356 1V0H180zm190-747h312c235 0 327-108 327-283 0-177-92-293-329-293H370v576" id="aM"/><path d="M502 418V313h118c73 0 98-17 98-66s-25-65-98-65h-82l21-161C285-4 104-228 104-552c0-350 205-580 509-580 216 0 392 114 453 309l-173 49c-33-115-133-197-280-197-223 0-326 196-326 419 0 220 103 415 326 415 150 0 252-85 285-206l172 49C1015-110 859 5 663 22v64c130 5 189 54 189 162 0 118-71 170-231 170H502" id="aN"/><path d="M471 26C259 26 90-98 90-318c0-256 228-303 435-329 202-27 287-16 287-108 0-139-79-219-234-219-161 0-248 86-283 164l-173-57c86-203 278-265 451-265 150 0 419 46 419 395V0H815v-152h-12C765-73 660 26 471 26zm31-159c199 0 310-134 310-271v-155c-30 35-226 55-295 64-131 17-246 59-246 186 0 116 97 176 231 176zm187-1180c-99 0-192-83-243-83-35 0-51 40-53 79H267c4-120 55-208 162-208 104 0 174 85 241 85 33 0 49-23 56-81h123c-4 126-62 208-160 208" id="aO"/><g id="g"><use transform="matrix(0.010850694444444444,0,0,0.010850694444444444,0,0)" xlink:href="#aM"/><use transform="matrix(0.010850694444444444,0,0,0.010850694444444444,13.975694444444445,0)" xlink:href="#aB"/><use transform="matrix(0.010850694444444444,0,0,0.010850694444444444,26.931423611111104,0)" xlink:href="#aH"/><use transform="matrix(0.010850694444444444,0,0,0.010850694444444444,39.62673611111111,0)" xlink:href="#aD"/><use transform="matrix(0.010850694444444444,0,0,0.010850694444444444,52.76692708333333,0)" xlink:href="#aG"/><use transform="matrix(0.010850694444444444,0,0,0.010850694444444444,66.37369791666666,0)" xlink:href="#aB"/><use transform="matrix(0.010850694444444444,0,0,0.010850694444444444,79.32942708333333,0)" xlink:href="#aE"/><use transform="matrix(0.010850694444444444,0,0,0.010850694444444444,87.6953125,0)" xlink:href="#ax"/><use transform="matrix(0.010850694444444444,0,0,0.010850694444444444,100.17361111111111,0)" xlink:href="#aN"/><use transform="matrix(0.010850694444444444,0,0,0.010850694444444444,113.0859375,0)" xlink:href="#aO"/><use transform="matrix(0.010850694444444444,0,0,0.010850694444444444,125.5642361111111,0)" xlink:href="#at"/></g><g id="h"><use transform="matrix(0.010850694444444444,0,0,0.010850694444444444,0,0)" xlink:href="#aA"/><use transform="matrix(0.010850694444444444,0,0,0.010850694444444444,13.606770833333332,0)" xlink:href="#aB"/></g><path d="M645 0H180v-1490h484c435 0 692 280 692 742 0 466-257 748-711 748zM370-168h263c363 0 539-218 539-580 0-358-176-574-521-574H370v1154" id="aP"/><g id="i"><use transform="matrix(0.010850694444444444,0,0,0.010850694444444444,0,0)" xlink:href="#aP"/><use transform="matrix(0.010850694444444444,0,0,0.010850694444444444,16.03732638888889,0)" xlink:href="#ax"/><use transform="matrix(0.010850694444444444,0,0,0.010850694444444444,28.515625,0)" xlink:href="#aA"/><use transform="matrix(0.010850694444444444,0,0,0.010850694444444444,42.12239583333333,0)" xlink:href="#at"/><use transform="matrix(0.010850694444444444,0,0,0.010850694444444444,55.44704861111111,0)" xlink:href="#aL"/></g><path d="M180 0v-1490h190v1322h690V0H180" id="aQ"/><path d="M611 442c-248 0-391-105-460-228l146-94c47 65 117 165 314 165 178 0 307-82 307-266v-224h-17C863-141 792-18 576-18c-268 0-472-195-472-546 0-346 197-568 476-568 216 0 288 133 326 193h17v-179h175V29c0 289-215 413-487 413zm-5-620c203 0 314-146 314-390 0-237-108-403-314-403-213 0-319 180-319 403 0 230 109 390 319 390" id="aR"/><g id="j"><use transform="matrix(0.010850694444444444,0,0,0.010850694444444444,0,0)" xlink:href="#aQ"/><use transform="matrix(0.010850694444444444,0,0,0.010850694444444444,12.565104166666666,0)" xlink:href="#at"/><use transform="matrix(0.010850694444444444,0,0,0.010850694444444444,25.889756944444443,0)" xlink:href="#aR"/></g><path d="M180 0v-1490h908v168H370v486h669v168H370v500h727V0H180" id="aS"/><g id="k"><use transform="matrix(0.010850694444444444,0,0,0.010850694444444444,0,0)" xlink:href="#aS"/><use transform="matrix(0.010850694444444444,0,0,0.010850694444444444,13.35720486111111,0)" xlink:href="#aE"/><use transform="matrix(0.010850694444444444,0,0,0.010850694444444444,22.0703125,0)" xlink:href="#aE"/><use transform="matrix(0.010850694444444444,0,0,0.010850694444444444,30.06727430555556,0)" xlink:href="#at"/><use transform="matrix(0.010850694444444444,0,0,0.010850694444444444,43.391927083333336,0)" xlink:href="#aL"/></g><path d="M657 26c-323 0-524-166-541-416h195c15 169 171 246 346 246 202 0 356-106 356-265 5-203-294-238-475-293-239-73-380-191-380-389 0-252 224-419 512-419 294 0 499 171 508 396H992c-17-145-151-228-328-228-193 0-321 102-321 242 0 156 175 211 284 241l149 41c160 44 422 134 422 412 0 244-197 432-541 432" id="aT"/><g id="l"><use transform="matrix(0.010850694444444444,0,0,0.010850694444444444,0,0)" xlink:href="#aT"/><use transform="matrix(0.010850694444444444,0,0,0.010850694444444444,14.2578125,0)" xlink:href="#aB"/><use transform="matrix(0.010850694444444444,0,0,0.010850694444444444,27.213541666666664,0)" xlink:href="#aI"/></g><g id="m"><use transform="matrix(0.010850694444444444,0,0,0.010850694444444444,0,0)" xlink:href="#aJ"/><use transform="matrix(0.010850694444444444,0,0,0.010850694444444444,12.57595486111111,0)" xlink:href="#ax"/><use transform="matrix(0.010850694444444444,0,0,0.010850694444444444,25.05425347222222,0)" xlink:href="#az"/><use transform="matrix(0.010850694444444444,0,0,0.010850694444444444,30.436197916666664,0)" xlink:href="#aK"/><use transform="matrix(0.010850694444444444,0,0,0.010850694444444444,43.576388888888886,0)" xlink:href="#ax"/><use transform="matrix(0.010850694444444444,0,0,0.010850694444444444,56.0546875,0)" xlink:href="#aL"/></g><path d="M158 0v-1118h180V0H158zm12-1264l140-294h201l-194 294H170" id="aU"/><g id="n"><use transform="matrix(0.010850694444444444,0,0,0.010850694444444444,0,0)" xlink:href="#as"/><use transform="matrix(0.010850694444444444,0,0,0.010850694444444444,16.23263888888889,0)" xlink:href="#aE"/><use transform="matrix(0.010850694444444444,0,0,0.010850694444444444,24.94574652777778,0)" xlink:href="#aU"/><use transform="matrix(0.010850694444444444,0,0,0.010850694444444444,30.32769097222222,0)" xlink:href="#aC"/><use transform="matrix(0.010850694444444444,0,0,0.010850694444444444,37.59765625,0)" xlink:href="#aw"/><use transform="matrix(0.010850694444444444,0,0,0.010850694444444444,42.97960069444444,0)" xlink:href="#aH"/><use transform="matrix(0.010850694444444444,0,0,0.010850694444444444,55.89192708333333,0)" xlink:href="#ax"/><use transform="matrix(0.010850694444444444,0,0,0.010850694444444444,68.37022569444444,0)" xlink:href="#aL"/></g><path fill="#333" d="M49 0l509-1490h400L1480 0h-339l-115-346H497L386 0H49zm524-585h374c-75-213-124-402-192-666-66 268-110 453-182 666" id="aV"/><path fill="#333" d="M135 0v-1490h340l471 754c59 97 122 210 187 365-32-387-14-721-19-1119h312V0h-341C855-382 627-689 427-1113c32 420 16 695 20 1113H135" id="aW"/><path fill="#333" d="M659 0H135v-1490h529c448 0 721 280 721 744 0 466-273 746-726 746zM440-263h204c287 0 437-148 437-483 0-333-150-481-435-481H440v964" id="aX"/><g id="o"><use transform="matrix(0.013020833333333334,0,0,0.013020833333333334,0,0)" xlink:href="#aV"/><use transform="matrix(0.013020833333333334,0,0,0.013020833333333334,19.908854166666668,0)" xlink:href="#aW"/><use transform="matrix(0.013020833333333334,0,0,0.013020833333333334,40.234375,0)" xlink:href="#aX"/></g><g id="p"><use transform="matrix(0.010850694444444444,0,0,0.010850694444444444,0,0)" xlink:href="#as"/><use transform="matrix(0.010850694444444444,0,0,0.010850694444444444,16.23263888888889,0)" xlink:href="#aE"/><use transform="matrix(0.010850694444444444,0,0,0.010850694444444444,24.598524305555554,0)" xlink:href="#ax"/><use transform="matrix(0.010850694444444444,0,0,0.010850694444444444,37.07682291666667,0)" xlink:href="#aL"/><use transform="matrix(0.010850694444444444,0,0,0.010850694444444444,48.80642361111111,0)" xlink:href="#aK"/><use transform="matrix(0.010850694444444444,0,0,0.010850694444444444,61.94661458333333,0)" xlink:href="#aB"/><use transform="matrix(0.010850694444444444,0,0,0.010850694444444444,74.90234375,0)" xlink:href="#aL"/></g><g id="q"><use transform="matrix(0.008680555555555556,0,0,0.008680555555555556,0,0)" xlink:href="#aV"/><use transform="matrix(0.008680555555555556,0,0,0.008680555555555556,13.272569444444445,0)" xlink:href="#aW"/><use transform="matrix(0.008680555555555556,0,0,0.008680555555555556,26.822916666666668,0)" xlink:href="#aX"/></g><g id="r"><use transform="matrix(0.010850694444444444,0,0,0.010850694444444444,0,0)" xlink:href="#aT"/><use transform="matrix(0.010850694444444444,0,0,0.010850694444444444,14.2578125,0)" xlink:href="#ax"/><use transform="matrix(0.010850694444444444,0,0,0.010850694444444444,26.73611111111111,0)" xlink:href="#aC"/><use transform="matrix(0.010850694444444444,0,0,0.010850694444444444,34.006076388888886,0)" xlink:href="#aw"/><use transform="matrix(0.010850694444444444,0,0,0.010850694444444444,39.38802083333333,0)" xlink:href="#aL"/><use transform="matrix(0.010850694444444444,0,0,0.010850694444444444,51.11762152777778,0)" xlink:href="#av"/><use transform="matrix(0.010850694444444444,0,0,0.010850694444444444,58.99522569444444,0)" xlink:href="#ax"/><use transform="matrix(0.010850694444444444,0,0,0.010850694444444444,71.47352430555556,0)" xlink:href="#aN"/><use transform="matrix(0.010850694444444444,0,0,0.010850694444444444,84.38585069444444,0)" xlink:href="#aO"/><use transform="matrix(0.010850694444444444,0,0,0.010850694444444444,96.86414930555556,0)" xlink:href="#at"/></g><g id="s"><use transform="matrix(0.010850694444444444,0,0,0.010850694444444444,0,0)" xlink:href="#aA"/><use transform="matrix(0.010850694444444444,0,0,0.010850694444444444,13.606770833333332,0)" xlink:href="#at"/></g><path d="M763 24c-353 0-583-224-583-531v-983h190v968c0 214 149 370 393 370 243 0 391-156 391-370v-968h190v983c0 307-230 531-581 531" id="aY"/><path d="M471 26C259 26 90-98 90-318c0-256 228-303 435-329 202-27 287-16 287-108 0-139-79-219-234-219-161 0-248 86-283 164l-173-57c86-203 278-265 451-265 150 0 419 46 419 395V0H815v-152h-12C765-73 660 26 471 26zm31-159c199 0 310-134 310-271v-155c-30 35-226 55-295 64-131 17-246 59-246 186 0 116 97 176 231 176zm-23-1131l140-294h201l-194 294H479" id="aZ"/><g id="t"><use transform="matrix(0.010850694444444444,0,0,0.010850694444444444,0,0)" xlink:href="#aY"/><use transform="matrix(0.010850694444444444,0,0,0.010850694444444444,16.536458333333332,0)" xlink:href="#aL"/><use transform="matrix(0.010850694444444444,0,0,0.010850694444444444,28.266059027777775,0)" xlink:href="#aD"/><use transform="matrix(0.010850694444444444,0,0,0.010850694444444444,41.40625,0)" xlink:href="#aZ"/><use transform="matrix(0.010850694444444444,0,0,0.010850694444444444,53.88454861111112,0)" xlink:href="#aE"/><use transform="matrix(0.010850694444444444,0,0,0.010850694444444444,62.59765625,0)" xlink:href="#aw"/><use transform="matrix(0.010850694444444444,0,0,0.010850694444444444,67.97960069444444,0)" xlink:href="#at"/></g><path fill="#333" d="M135 0v-1490h468l242 684c30 94 76 293 111 455 34-161 80-360 110-455l238-684h470V0h-307c0-447-3-765 11-1227-122 503-246 788-395 1227H826C676-435 552-717 427-1215c15 453 11 775 11 1215H135" id="ba"/><path fill="#333" d="M135 0v-1490h305c1 251 0 501-5 746 157-254 405-512 598-746h373L849-845 1422 0h-361L638-644 440-426V0H135" id="bb"/><path fill="#333" d="M135 0v-1490h997v253H440v360h640v249H440v375h694V0H135" id="bc"/><path fill="#333" d="M169-607c0-330 107-732 258-974h279c-145 311-231 674-231 974 0 262 67 512 231 886H427C258-1 169-307 169-607" id="bd"/><path fill="#333" d="M568-82v-393H183v-240h385v-393h254v393h386v240H822v393H568" id="be"/><path fill="#333" d="M67 279c166-379 230-627 230-886 0-300-86-663-230-974h278c151 241 258 644 258 974 0 302-90 608-258 886H67" id="bf"/><g id="u"><use transform="matrix(0.008680555555555556,0,0,0.008680555555555556,0,0)" xlink:href="#ba"/><use transform="matrix(0.008680555555555556,0,0,0.008680555555555556,16.5625,0)" xlink:href="#aV"/><use transform="matrix(0.008680555555555556,0,0,0.008680555555555556,29.835069444444443,0)" xlink:href="#bb"/><use transform="matrix(0.008680555555555556,0,0,0.008680555555555556,42.62152777777778,0)" xlink:href="#bc"/><use transform="matrix(0.008680555555555556,0,0,0.008680555555555556,53.420138888888886,0)" xlink:href="#bd"/><use transform="matrix(0.008680555555555556,0,0,0.008680555555555556,60.12152777777777,0)" xlink:href="#be"/><use transform="matrix(0.008680555555555556,0,0,0.008680555555555556,72.1875,0)" xlink:href="#be"/><use transform="matrix(0.008680555555555556,0,0,0.008680555555555556,84.25347222222223,0)" xlink:href="#bf"/></g><g id="v"><use transform="matrix(0.010850694444444444,0,0,0.010850694444444444,0,0)" xlink:href="#aM"/><use transform="matrix(0.010850694444444444,0,0,0.010850694444444444,13.975694444444445,0)" xlink:href="#aB"/><use transform="matrix(0.010850694444444444,0,0,0.010850694444444444,26.931423611111104,0)" xlink:href="#aH"/><use transform="matrix(0.010850694444444444,0,0,0.010850694444444444,39.62673611111111,0)" xlink:href="#aD"/><use transform="matrix(0.010850694444444444,0,0,0.010850694444444444,52.76692708333333,0)" xlink:href="#aG"/><use transform="matrix(0.010850694444444444,0,0,0.010850694444444444,66.37369791666666,0)" xlink:href="#aB"/><use transform="matrix(0.010850694444444444,0,0,0.010850694444444444,79.32942708333333,0)" xlink:href="#aE"/><use transform="matrix(0.010850694444444444,0,0,0.010850694444444444,87.6953125,0)" xlink:href="#ax"/><use transform="matrix(0.010850694444444444,0,0,0.010850694444444444,100.17361111111111,0)" xlink:href="#aN"/><use transform="matrix(0.010850694444444444,0,0,0.010850694444444444,113.0859375,0)" xlink:href="#aO"/><use transform="matrix(0.010850694444444444,0,0,0.010850694444444444,125.5642361111111,0)" xlink:href="#at"/></g><path d="M613 24c-304 0-509-231-509-576 0-350 205-580 509-580 305 0 511 230 511 580 0 345-206 576-511 576zm0-161c226 0 329-195 329-415 0-222-103-419-329-419-223 0-326 196-326 419 0 220 103 415 326 415zm-79-1127l140-294h201l-194 294H534" id="bg"/><g id="w"><use transform="matrix(0.010850694444444444,0,0,0.010850694444444444,0,0)" xlink:href="#ax"/><use transform="matrix(0.010850694444444444,0,0,0.010850694444444444,12.47829861111111,0)" xlink:href="#aG"/><use transform="matrix(0.010850694444444444,0,0,0.010850694444444444,26.085069444444443,0)" xlink:href="#bg"/><use transform="matrix(0.010850694444444444,0,0,0.010850694444444444,39.40972222222222,0)" xlink:href="#aL"/></g><g id="x"><use transform="matrix(0.010850694444444444,0,0,0.010850694444444444,0,0)" xlink:href="#av"/><use transform="matrix(0.010850694444444444,0,0,0.010850694444444444,7.877604166666666,0)" xlink:href="#ax"/><use transform="matrix(0.010850694444444444,0,0,0.010850694444444444,20.35590277777778,0)" xlink:href="#az"/><use transform="matrix(0.010850694444444444,0,0,0.010850694444444444,25.73784722222222,0)" xlink:href="#aK"/><use transform="matrix(0.010850694444444444,0,0,0.010850694444444444,38.87803819444444,0)" xlink:href="#ax"/><use transform="matrix(0.010850694444444444,0,0,0.010850694444444444,51.35633680555556,0)" xlink:href="#aL"/></g><g id="y"><use transform="matrix(0.010850694444444444,0,0,0.010850694444444444,0,0)" xlink:href="#aC"/><use transform="matrix(0.010850694444444444,0,0,0.010850694444444444,7.052951388888888,0)" xlink:href="#aB"/><use transform="matrix(0.010850694444444444,0,0,0.010850694444444444,20.008680555555554,0)" xlink:href="#aE"/><use transform="matrix(0.010850694444444444,0,0,0.010850694444444444,28.721788194444443,0)" xlink:href="#aI"/><use transform="matrix(0.010850694444444444,0,0,0.010850694444444444,48.18793402777778,0)" xlink:href="#aw"/><use transform="matrix(0.010850694444444444,0,0,0.010850694444444444,53.56987847222221,0)" xlink:href="#au"/><use transform="matrix(0.010850694444444444,0,0,0.010850694444444444,66.69921874999999,0)" xlink:href="#ax"/><use transform="matrix(0.010850694444444444,0,0,0.010850694444444444,79.1775173611111,0)" xlink:href="#aN"/><use transform="matrix(0.010850694444444444,0,0,0.010850694444444444,92.08984374999997,0)" xlink:href="#aO"/><use transform="matrix(0.010850694444444444,0,0,0.010850694444444444,104.56814236111111,0)" xlink:href="#at"/></g><g id="z"><use transform="matrix(0.010850694444444444,0,0,0.010850694444444444,0,0)" xlink:href="#aE"/><use transform="matrix(0.010850694444444444,0,0,0.010850694444444444,7.996961805555555,0)" xlink:href="#aB"/><use transform="matrix(0.010850694444444444,0,0,0.010850694444444444,20.95269097222222,0)" xlink:href="#aG"/><use transform="matrix(0.010850694444444444,0,0,0.010850694444444444,34.55946180555556,0)" xlink:href="#aB"/><use transform="matrix(0.010850694444444444,0,0,0.010850694444444444,47.51519097222222,0)" xlink:href="#au"/><use transform="matrix(0.010850694444444444,0,0,0.010850694444444444,60.64453125,0)" xlink:href="#aC"/><use transform="matrix(0.010850694444444444,0,0,0.010850694444444444,67.91449652777777,0)" xlink:href="#aw"/><use transform="matrix(0.010850694444444444,0,0,0.010850694444444444,73.29644097222221,0)" xlink:href="#au"/><use transform="matrix(0.010850694444444444,0,0,0.010850694444444444,86.42578124999999,0)" xlink:href="#at"/></g><g id="A"><use transform="matrix(0.010850694444444444,0,0,0.010850694444444444,0,0)" xlink:href="#au"/><use transform="matrix(0.010850694444444444,0,0,0.010850694444444444,13.129340277777777,0)" xlink:href="#at"/></g><g id="B"><use transform="matrix(0.010850694444444444,0,0,0.010850694444444444,0,0)" xlink:href="#aL"/><use transform="matrix(0.010850694444444444,0,0,0.010850694444444444,11.729600694444445,0)" xlink:href="#aw"/><use transform="matrix(0.010850694444444444,0,0,0.010850694444444444,17.11154513888889,0)" xlink:href="#aL"/><use transform="matrix(0.010850694444444444,0,0,0.010850694444444444,28.841145833333336,0)" xlink:href="#aC"/><use transform="matrix(0.010850694444444444,0,0,0.010850694444444444,35.89409722222222,0)" xlink:href="#aB"/><use transform="matrix(0.010850694444444444,0,0,0.010850694444444444,48.849826388888886,0)" xlink:href="#aI"/><use transform="matrix(0.010850694444444444,0,0,0.010850694444444444,68.31597222222221,0)" xlink:href="#ax"/></g><path d="M98-1322v-168h1126v168H757V0H567v-1322H98" id="bh"/><path d="M613 24c-304 0-509-231-509-576 0-350 205-580 509-580 305 0 511 230 511 580 0 345-206 576-511 576zm0-161c226 0 329-195 329-415 0-222-103-419-329-419-223 0-326 196-326 419 0 220 103 415 326 415zm131-1176c-99 0-192-83-243-83-35 0-51 40-53 79H322c4-120 55-208 162-208 104 0 174 85 241 85 33 0 49-23 56-81h123c-4 126-62 208-160 208" id="bi"/><g id="C"><use transform="matrix(0.010850694444444444,0,0,0.010850694444444444,0,0)" xlink:href="#bh"/><use transform="matrix(0.010850694444444444,0,0,0.010850694444444444,13.0859375,0)" xlink:href="#aE"/><use transform="matrix(0.010850694444444444,0,0,0.010850694444444444,21.451822916666664,0)" xlink:href="#ax"/><use transform="matrix(0.010850694444444444,0,0,0.010850694444444444,33.93012152777777,0)" xlink:href="#au"/><use transform="matrix(0.010850694444444444,0,0,0.010850694444444444,47.05946180555556,0)" xlink:href="#aL"/><use transform="matrix(0.010850694444444444,0,0,0.010850694444444444,58.789062499999986,0)" xlink:href="#ax"/><use transform="matrix(0.010850694444444444,0,0,0.010850694444444444,71.2673611111111,0)" xlink:href="#aN"/><use transform="matrix(0.010850694444444444,0,0,0.010850694444444444,83.9626736111111,0)" xlink:href="#bi"/><use transform="matrix(0.010850694444444444,0,0,0.010850694444444444,97.28732638888887,0)" xlink:href="#aB"/><use transform="matrix(0.010850694444444444,0,0,0.010850694444444444,110.24305555555556,0)" xlink:href="#aL"/></g><path d="M481 0L54-1118h197c107 314 236 620 325 951 87-331 217-637 324-951h197L670 0H481" id="bj"/><g id="D"><use transform="matrix(0.010850694444444444,0,0,0.010850694444444444,0,0)" xlink:href="#aE"/><use transform="matrix(0.010850694444444444,0,0,0.010850694444444444,7.996961805555555,0)" xlink:href="#aB"/><use transform="matrix(0.010850694444444444,0,0,0.010850694444444444,20.518663194444443,0)" xlink:href="#bj"/><use transform="matrix(0.010850694444444444,0,0,0.010850694444444444,32.57378472222222,0)" xlink:href="#aB"/><use transform="matrix(0.010850694444444444,0,0,0.010850694444444444,45.529513888888886,0)" xlink:href="#aE"/><use transform="matrix(0.010850694444444444,0,0,0.010850694444444444,54.24262152777778,0)" xlink:href="#aC"/><use transform="matrix(0.010850694444444444,0,0,0.010850694444444444,61.51258680555555,0)" xlink:href="#aw"/><use transform="matrix(0.010850694444444444,0,0,0.010850694444444444,66.89453125,0)" xlink:href="#aA"/><use transform="matrix(0.010850694444444444,0,0,0.010850694444444444,80.50130208333333,0)" xlink:href="#ax"/><use transform="matrix(0.010850694444444444,0,0,0.010850694444444444,92.97960069444444,0)" xlink:href="#aL"/></g><g id="E"><use transform="matrix(0.010850694444444444,0,0,0.010850694444444444,0,0)" xlink:href="#aB"/><use transform="matrix(0.010850694444444444,0,0,0.010850694444444444,12.955729166666666,0)" xlink:href="#aI"/></g><g id="F"><use transform="matrix(0.010850694444444444,0,0,0.010850694444444444,0,0)" xlink:href="#aG"/><use transform="matrix(0.010850694444444444,0,0,0.010850694444444444,13.606770833333332,0)" xlink:href="#aB"/><use transform="matrix(0.010850694444444444,0,0,0.010850694444444444,26.5625,0)" xlink:href="#aE"/><use transform="matrix(0.010850694444444444,0,0,0.010850694444444444,34.55946180555556,0)" xlink:href="#aA"/><use transform="matrix(0.010850694444444444,0,0,0.010850694444444444,48.166232638888886,0)" xlink:href="#ax"/></g><path d="M65 0l393-574-370-544h210c88 136 192 297 267 435 67-142 176-302 264-435h206L661-564 1053 0H844c-94-144-206-310-287-458C484-308 366-142 273 0H65" id="bk"/><g id="G"><use transform="matrix(0.010850694444444444,0,0,0.010850694444444444,0,0)" xlink:href="#aH"/><use transform="matrix(0.010850694444444444,0,0,0.010850694444444444,12.6953125,0)" xlink:href="#at"/><use transform="matrix(0.010850694444444444,0,0,0.010850694444444444,26.01996527777778,0)" xlink:href="#au"/><use transform="matrix(0.010850694444444444,0,0,0.010850694444444444,39.14930555555556,0)" xlink:href="#aB"/><use transform="matrix(0.010850694444444444,0,0,0.010850694444444444,51.60590277777778,0)" xlink:href="#bk"/><use transform="matrix(0.010850694444444444,0,0,0.010850694444444444,63.73697916666667,0)" xlink:href="#aO"/><use transform="matrix(0.010850694444444444,0,0,0.010850694444444444,76.21527777777779,0)" xlink:href="#at"/></g><g id="H"><use transform="matrix(0.010850694444444444,0,0,0.010850694444444444,0,0)" xlink:href="#aM"/><use transform="matrix(0.010850694444444444,0,0,0.010850694444444444,13.975694444444445,0)" xlink:href="#aB"/><use transform="matrix(0.010850694444444444,0,0,0.010850694444444444,26.931423611111104,0)" xlink:href="#aG"/><use transform="matrix(0.010850694444444444,0,0,0.010850694444444444,40.53819444444444,0)" xlink:href="#at"/><use transform="matrix(0.010850694444444444,0,0,0.010850694444444444,53.86284722222222,0)" xlink:href="#aE"/><use transform="matrix(0.010850694444444444,0,0,0.010850694444444444,62.57595486111111,0)" xlink:href="#aC"/><use transform="matrix(0.010850694444444444,0,0,0.010850694444444444,69.95442708333333,0)" xlink:href="#ax"/><use transform="matrix(0.010850694444444444,0,0,0.010850694444444444,82.43272569444444,0)" xlink:href="#aE"/></g><g id="I"><use transform="matrix(0.010850694444444444,0,0,0.010850694444444444,0,0)" xlink:href="#ax"/><use transform="matrix(0.010850694444444444,0,0,0.010850694444444444,12.47829861111111,0)" xlink:href="#aD"/><use transform="matrix(0.010850694444444444,0,0,0.010850694444444444,25.618489583333332,0)" xlink:href="#aC"/><use transform="matrix(0.010850694444444444,0,0,0.010850694444444444,32.67144097222222,0)" xlink:href="#at"/><use transform="matrix(0.010850694444444444,0,0,0.010850694444444444,45.99609375,0)" xlink:href="#aI"/><use transform="matrix(0.010850694444444444,0,0,0.010850694444444444,65.46223958333333,0)" xlink:href="#ax"/><use transform="matrix(0.010850694444444444,0,0,0.010850694444444444,77.94053819444444,0)" xlink:href="#aC"/><use transform="matrix(0.010850694444444444,0,0,0.010850694444444444,85.21050347222221,0)" xlink:href="#aw"/><use transform="matrix(0.010850694444444444,0,0,0.010850694444444444,90.59244791666666,0)" xlink:href="#aH"/><use transform="matrix(0.010850694444444444,0,0,0.010850694444444444,103.50477430555556,0)" xlink:href="#ax"/><use transform="matrix(0.010850694444444444,0,0,0.010850694444444444,115.98307291666666,0)" xlink:href="#aI"/><use transform="matrix(0.010850694444444444,0,0,0.010850694444444444,135.44921875,0)" xlink:href="#aB"/><use transform="matrix(0.010850694444444444,0,0,0.010850694444444444,148.40494791666666,0)" xlink:href="#au"/><use transform="matrix(0.010850694444444444,0,0,0.010850694444444444,161.53428819444443,0)" xlink:href="#aC"/><use transform="matrix(0.010850694444444444,0,0,0.010850694444444444,168.58723958333331,0)" xlink:href="#aB"/></g><g id="J"><use transform="matrix(0.010850694444444444,0,0,0.010850694444444444,0,0)" xlink:href="#az"/><use transform="matrix(0.010850694444444444,0,0,0.010850694444444444,5.381944444444445,0)" xlink:href="#at"/><use transform="matrix(0.010850694444444444,0,0,0.010850694444444444,18.70659722222222,0)" xlink:href="#aR"/></g><g id="K"><use transform="matrix(0.010850694444444444,0,0,0.010850694444444444,0,0)" xlink:href="#aB"/><use transform="matrix(0.010850694444444444,0,0,0.010850694444444444,12.955729166666666,0)" xlink:href="#aE"/><use transform="matrix(0.010850694444444444,0,0,0.010850694444444444,21.668836805555554,0)" xlink:href="#aE"/><use transform="matrix(0.010850694444444444,0,0,0.010850694444444444,29.665798611111104,0)" xlink:href="#at"/><use transform="matrix(0.010850694444444444,0,0,0.010850694444444444,42.990451388888886,0)" xlink:href="#aL"/></g><g id="L"><use transform="matrix(0.010850694444444444,0,0,0.010850694444444444,0,0)" xlink:href="#aH"/><use transform="matrix(0.010850694444444444,0,0,0.010850694444444444,12.6953125,0)" xlink:href="#aE"/><use transform="matrix(0.010850694444444444,0,0,0.010850694444444444,21.061197916666664,0)" xlink:href="#ax"/><use transform="matrix(0.010850694444444444,0,0,0.010850694444444444,33.53949652777777,0)" xlink:href="#aL"/><use transform="matrix(0.010850694444444444,0,0,0.010850694444444444,45.26909722222221,0)" xlink:href="#aK"/><use transform="matrix(0.010850694444444444,0,0,0.010850694444444444,58.409288194444436,0)" xlink:href="#aL"/></g><g id="M"><use transform="matrix(0.010850694444444444,0,0,0.010850694444444444,0,0)" xlink:href="#aF"/><use transform="matrix(0.010850694444444444,0,0,0.010850694444444444,16.9921875,0)" xlink:href="#aG"/><use transform="matrix(0.010850694444444444,0,0,0.010850694444444444,30.598958333333332,0)" xlink:href="#aN"/><use transform="matrix(0.010850694444444444,0,0,0.010850694444444444,43.51128472222222,0)" xlink:href="#aO"/><use transform="matrix(0.010850694444444444,0,0,0.010850694444444444,55.98958333333333,0)" xlink:href="#at"/></g><g id="N"><use transform="matrix(0.010850694444444444,0,0,0.010850694444444444,0,0)" xlink:href="#aY"/><use transform="matrix(0.010850694444444444,0,0,0.010850694444444444,16.536458333333332,0)" xlink:href="#aL"/><use transform="matrix(0.010850694444444444,0,0,0.010850694444444444,28.266059027777775,0)" xlink:href="#aD"/><use transform="matrix(0.010850694444444444,0,0,0.010850694444444444,41.40625,0)" xlink:href="#aZ"/><use transform="matrix(0.010850694444444444,0,0,0.010850694444444444,53.88454861111112,0)" xlink:href="#aE"/><use transform="matrix(0.010850694444444444,0,0,0.010850694444444444,62.59765625,0)" xlink:href="#aw"/><use transform="matrix(0.010850694444444444,0,0,0.010850694444444444,67.97960069444444,0)" xlink:href="#at"/></g><g id="O"><use transform="matrix(0.010850694444444444,0,0,0.010850694444444444,0,0)" xlink:href="#aF"/><use transform="matrix(0.010850694444444444,0,0,0.010850694444444444,16.9921875,0)" xlink:href="#ay"/><use transform="matrix(0.010850694444444444,0,0,0.010850694444444444,30.598958333333332,0)" xlink:href="#aL"/><use transform="matrix(0.010850694444444444,0,0,0.010850694444444444,42.32855902777778,0)" xlink:href="#aB"/><use transform="matrix(0.010850694444444444,0,0,0.010850694444444444,55.28428819444444,0)" xlink:href="#aE"/><use transform="matrix(0.010850694444444444,0,0,0.010850694444444444,63.99739583333333,0)" xlink:href="#bj"/><use transform="matrix(0.010850694444444444,0,0,0.010850694444444444,76.37803819444444,0)" xlink:href="#ax"/><use transform="matrix(0.010850694444444444,0,0,0.010850694444444444,88.85633680555556,0)" xlink:href="#aE"/></g><use transform="matrix(0.010850694444444444,0,0,0.010850694444444444,0,0)" xlink:href="#aB" id="P"/><g id="Q"><use transform="matrix(0.010850694444444444,0,0,0.010850694444444444,0,0)" xlink:href="#aE"/><use transform="matrix(0.010850694444444444,0,0,0.010850694444444444,7.996961805555555,0)" xlink:href="#aB"/><use transform="matrix(0.010850694444444444,0,0,0.010850694444444444,20.95269097222222,0)" xlink:href="#aG"/><use transform="matrix(0.010850694444444444,0,0,0.010850694444444444,34.55946180555556,0)" xlink:href="#at"/><use transform="matrix(0.010850694444444444,0,0,0.010850694444444444,47.88411458333333,0)" xlink:href="#aE"/><use transform="matrix(0.010850694444444444,0,0,0.010850694444444444,56.59722222222222,0)" xlink:href="#aC"/><use transform="matrix(0.010850694444444444,0,0,0.010850694444444444,63.97569444444444,0)" xlink:href="#ax"/><use transform="matrix(0.010850694444444444,0,0,0.010850694444444444,76.45399305555556,0)" xlink:href="#aE"/></g><path d="M295 13c-75 0-135-60-135-135s60-135 135-135 135 60 135 135S370 13 295 13" id="bl"/><g id="R"><use transform="matrix(0.010850694444444444,0,0,0.010850694444444444,0,0)" xlink:href="#aB"/><use transform="matrix(0.010850694444444444,0,0,0.010850694444444444,12.955729166666666,0)" xlink:href="#aE"/><use transform="matrix(0.010850694444444444,0,0,0.010850694444444444,21.668836805555554,0)" xlink:href="#aE"/><use transform="matrix(0.010850694444444444,0,0,0.010850694444444444,29.665798611111104,0)" xlink:href="#at"/><use transform="matrix(0.010850694444444444,0,0,0.010850694444444444,42.990451388888886,0)" xlink:href="#aL"/><use transform="matrix(0.010850694444444444,0,0,0.010850694444444444,54.72005208333333,0)" xlink:href="#bl"/></g><g id="S"><use transform="matrix(0.010850694444444444,0,0,0.010850694444444444,0,0)" xlink:href="#as"/><use transform="matrix(0.010850694444444444,0,0,0.010850694444444444,16.23263888888889,0)" xlink:href="#at"/><use transform="matrix(0.010850694444444444,0,0,0.010850694444444444,29.557291666666664,0)" xlink:href="#au"/><use transform="matrix(0.010850694444444444,0,0,0.010850694444444444,42.68663194444444,0)" xlink:href="#av"/><use transform="matrix(0.010850694444444444,0,0,0.010850694444444444,50.91145833333333,0)" xlink:href="#aw"/><use transform="matrix(0.010850694444444444,0,0,0.010850694444444444,56.29340277777778,0)" xlink:href="#ax"/><use transform="matrix(0.010850694444444444,0,0,0.010850694444444444,68.77170138888889,0)" xlink:href="#au"/><use transform="matrix(0.010850694444444444,0,0,0.010850694444444444,81.90104166666666,0)" xlink:href="#aN"/><use transform="matrix(0.010850694444444444,0,0,0.010850694444444444,94.81336805555556,0)" xlink:href="#ax"/></g><g id="T"><use transform="matrix(0.010850694444444444,0,0,0.010850694444444444,0,0)" xlink:href="#aA"/><use transform="matrix(0.010850694444444444,0,0,0.010850694444444444,13.606770833333332,0)" xlink:href="#at"/></g><g id="U"><use transform="matrix(0.010850694444444444,0,0,0.010850694444444444,0,0)" xlink:href="#aD"/><use transform="matrix(0.010850694444444444,0,0,0.010850694444444444,13.140190972222221,0)" xlink:href="#aL"/><use transform="matrix(0.010850694444444444,0,0,0.010850694444444444,24.869791666666664,0)" xlink:href="#aD"/><use transform="matrix(0.010850694444444444,0,0,0.010850694444444444,38.009982638888886,0)" xlink:href="#aZ"/><use transform="matrix(0.010850694444444444,0,0,0.010850694444444444,50.48828125,0)" xlink:href="#aE"/><use transform="matrix(0.010850694444444444,0,0,0.010850694444444444,59.201388888888886,0)" xlink:href="#aw"/><use transform="matrix(0.010850694444444444,0,0,0.010850694444444444,64.58333333333333,0)" xlink:href="#at"/></g><g id="V"><use transform="matrix(0.010850694444444444,0,0,0.010850694444444444,0,0)" xlink:href="#aB"/><use transform="matrix(0.010850694444444444,0,0,0.010850694444444444,12.955729166666666,0)" xlink:href="#aI"/></g><g id="W"><use transform="matrix(0.010850694444444444,0,0,0.010850694444444444,0,0)" xlink:href="#aH"/><use transform="matrix(0.010850694444444444,0,0,0.010850694444444444,12.91232638888889,0)" xlink:href="#ax"/><use transform="matrix(0.010850694444444444,0,0,0.010850694444444444,25.390625,0)" xlink:href="#aL"/><use transform="matrix(0.010850694444444444,0,0,0.010850694444444444,37.12022569444444,0)" xlink:href="#at"/></g><g id="X"><use transform="matrix(0.010850694444444444,0,0,0.010850694444444444,0,0)" xlink:href="#aA"/><use transform="matrix(0.010850694444444444,0,0,0.010850694444444444,13.606770833333332,0)" xlink:href="#aB"/></g><g id="Y"><use transform="matrix(0.010850694444444444,0,0,0.010850694444444444,0,0)" xlink:href="#aB"/><use transform="matrix(0.010850694444444444,0,0,0.010850694444444444,12.955729166666666,0)" xlink:href="#aE"/><use transform="matrix(0.010850694444444444,0,0,0.010850694444444444,21.668836805555554,0)" xlink:href="#aE"/><use transform="matrix(0.010850694444444444,0,0,0.010850694444444444,29.665798611111104,0)" xlink:href="#at"/><use transform="matrix(0.010850694444444444,0,0,0.010850694444444444,42.990451388888886,0)" xlink:href="#aL"/></g><g id="Z"><use transform="matrix(0.010850694444444444,0,0,0.010850694444444444,0,0)" xlink:href="#aP"/><use transform="matrix(0.010850694444444444,0,0,0.010850694444444444,16.03732638888889,0)" xlink:href="#ax"/><use transform="matrix(0.010850694444444444,0,0,0.010850694444444444,28.515625,0)" xlink:href="#aA"/><use transform="matrix(0.010850694444444444,0,0,0.010850694444444444,42.12239583333333,0)" xlink:href="#at"/><use transform="matrix(0.010850694444444444,0,0,0.010850694444444444,55.44704861111111,0)" xlink:href="#aL"/></g><g id="aa"><use transform="matrix(0.010850694444444444,0,0,0.010850694444444444,0,0)" xlink:href="#aH"/><use transform="matrix(0.010850694444444444,0,0,0.010850694444444444,12.6953125,0)" xlink:href="#at"/><use transform="matrix(0.010850694444444444,0,0,0.010850694444444444,26.01996527777778,0)" xlink:href="#au"/><use transform="matrix(0.010850694444444444,0,0,0.010850694444444444,39.14930555555556,0)" xlink:href="#aL"/><use transform="matrix(0.010850694444444444,0,0,0.010850694444444444,50.87890625,0)" xlink:href="#aw"/><use transform="matrix(0.010850694444444444,0,0,0.010850694444444444,56.26085069444444,0)" xlink:href="#aL"/><use transform="matrix(0.010850694444444444,0,0,0.010850694444444444,67.99045138888889,0)" xlink:href="#aC"/><use transform="matrix(0.010850694444444444,0,0,0.010850694444444444,75.04340277777777,0)" xlink:href="#aB"/><use transform="matrix(0.010850694444444444,0,0,0.010850694444444444,87.99913194444444,0)" xlink:href="#au"/><use transform="matrix(0.010850694444444444,0,0,0.010850694444444444,101.12847222222221,0)" xlink:href="#aC"/><use transform="matrix(0.010850694444444444,0,0,0.010850694444444444,108.18142361111111,0)" xlink:href="#aB"/><use transform="matrix(0.010850694444444444,0,0,0.010850694444444444,121.13715277777777,0)" xlink:href="#aL"/></g><g id="ab"><use transform="matrix(0.010850694444444444,0,0,0.010850694444444444,0,0)" xlink:href="#aB"/><use transform="matrix(0.010850694444444444,0,0,0.010850694444444444,12.955729166666666,0)" xlink:href="#au"/><use transform="matrix(0.010850694444444444,0,0,0.010850694444444444,26.085069444444443,0)" xlink:href="#aC"/><use transform="matrix(0.010850694444444444,0,0,0.010850694444444444,33.35503472222222,0)" xlink:href="#aE"/><use transform="matrix(0.010850694444444444,0,0,0.010850694444444444,41.35199652777777,0)" xlink:href="#aB"/></g><g id="ac"><use transform="matrix(0.010850694444444444,0,0,0.010850694444444444,0,0)" xlink:href="#aA"/><use transform="matrix(0.010850694444444444,0,0,0.010850694444444444,13.606770833333332,0)" xlink:href="#aw"/><use transform="matrix(0.010850694444444444,0,0,0.010850694444444444,18.98871527777778,0)" xlink:href="#aL"/><use transform="matrix(0.010850694444444444,0,0,0.010850694444444444,30.71831597222222,0)" xlink:href="#aG"/><use transform="matrix(0.010850694444444444,0,0,0.010850694444444444,44.32508680555556,0)" xlink:href="#at"/><use transform="matrix(0.010850694444444444,0,0,0.010850694444444444,57.64973958333333,0)" xlink:href="#aL"/><use transform="matrix(0.010850694444444444,0,0,0.010850694444444444,69.37934027777779,0)" xlink:href="#aw"/><use transform="matrix(0.010850694444444444,0,0,0.010850694444444444,74.76128472222223,0)" xlink:href="#aC"/><use transform="matrix(0.010850694444444444,0,0,0.010850694444444444,82.03125,0)" xlink:href="#aw"/><use transform="matrix(0.010850694444444444,0,0,0.010850694444444444,87.41319444444444,0)" xlink:href="#bj"/><use transform="matrix(0.010850694444444444,0,0,0.010850694444444444,99.46831597222221,0)" xlink:href="#at"/><use transform="matrix(0.010850694444444444,0,0,0.010850694444444444,112.79296875,0)" xlink:href="#aL"/></g><path fill="#333" d="M789 20C394 20 94-260 94-744c0-487 300-766 695-766s695 279 695 766c0 485-300 764-695 764zm0-271c231 0 385-174 385-493 0-321-154-495-385-495s-385 175-385 495c0 319 154 493 385 493" id="bm"/><path fill="#333" d="M135 0v-1490h581c339 0 533 192 533 485 0 204-94 351-264 424L1302 0H964L680-532H440V0H135zm305-779h220c186 0 274-77 274-226 0-150-88-233-275-233H440v459" id="bn"/><g id="ad"><use transform="matrix(0.008680555555555556,0,0,0.008680555555555556,0,0)" xlink:href="#bm"/><use transform="matrix(0.008680555555555556,0,0,0.008680555555555556,13.697916666666668,0)" xlink:href="#bn"/></g><path d="M180 0v-1490h270l367 940c28 72 75 218 110 339 35-117 81-264 110-339l362-940h271V0h-187c2-448-5-837 7-1287-157 497-311 829-483 1287H842C666-458 514-784 354-1284c12 438 5 843 7 1284H180" id="bo"/><path d="M52 0l541-1490h220L1361 0h-200l-149-416H398L254 0H52zm404-582h497c-103-290-145-390-251-756-108 377-145 460-246 756" id="bp"/><path d="M180 0v-1490h190c0 262 1 526-3 784 217-279 467-523 702-784h249L716-845 1319 0h-225L585-716 370-489V0H180" id="bq"/><path d="M218-607c0-325 108-727 258-974h175c-155 315-250 682-250 974 0 265 78 531 250 886H476C306-10 218-315 218-607" id="br"/><path d="M593-100v-404H195v-159h398v-403h169v403h398v159H762v404H593" id="bs"/><path d="M96 279C273-86 346-350 346-607c0-292-95-659-250-974h175c150 246 258 650 258 974 0 297-91 602-258 886H96" id="bt"/><g id="ae"><use transform="matrix(0.010850694444444444,0,0,0.010850694444444444,0,0)" xlink:href="#bo"/><use transform="matrix(0.010850694444444444,0,0,0.010850694444444444,20.07378472222222,0)" xlink:href="#bp"/><use transform="matrix(0.010850694444444444,0,0,0.010850694444444444,35.40581597222222,0)" xlink:href="#bq"/><use transform="matrix(0.010850694444444444,0,0,0.010850694444444444,50.33637152777778,0)" xlink:href="#aS"/><use transform="matrix(0.010850694444444444,0,0,0.010850694444444444,63.693576388888886,0)" xlink:href="#br"/><use transform="matrix(0.010850694444444444,0,0,0.010850694444444444,71.79904513888889,0)" xlink:href="#bs"/><use transform="matrix(0.010850694444444444,0,0,0.010850694444444444,86.50173611111111,0)" xlink:href="#bs"/><use transform="matrix(0.010850694444444444,0,0,0.010850694444444444,101.20442708333334,0)" xlink:href="#bt"/></g><path d="M628 24c-324 0-524-230-524-574 0-343 198-582 503-582 237 0 487 146 487 559v75H286c9 234 145 362 343 362 132 0 231-58 273-172l174 48C1024-91 857 24 628 24zM287-650h624c-17-190-120-322-304-322-192 0-309 151-320 322zm172-632H282v-9l235-267h171l236 267v9H745l-142-175" id="bu"/><g id="af"><use transform="matrix(0.010850694444444444,0,0,0.010850694444444444,0,0)" xlink:href="#bp"/><use transform="matrix(0.010850694444444444,0,0,0.010850694444444444,15.33203125,0)" xlink:href="#aR"/><use transform="matrix(0.010850694444444444,0,0,0.010850694444444444,28.96050347222222,0)" xlink:href="#bu"/><use transform="matrix(0.010850694444444444,0,0,0.010850694444444444,41.916232638888886,0)" xlink:href="#au"/><use transform="matrix(0.010850694444444444,0,0,0.010850694444444444,55.045572916666664,0)" xlink:href="#aH"/><use transform="matrix(0.010850694444444444,0,0,0.010850694444444444,67.74088541666666,0)" xlink:href="#aw"/><use transform="matrix(0.010850694444444444,0,0,0.010850694444444444,73.1228298611111,0)" xlink:href="#ax"/></g><g id="ag"><use transform="matrix(0.010850694444444444,0,0,0.010850694444444444,0,0)" xlink:href="#aY"/><use transform="matrix(0.010850694444444444,0,0,0.010850694444444444,16.536458333333332,0)" xlink:href="#aL"/><use transform="matrix(0.010850694444444444,0,0,0.010850694444444444,28.266059027777775,0)" xlink:href="#aD"/><use transform="matrix(0.010850694444444444,0,0,0.010850694444444444,41.40625,0)" xlink:href="#aZ"/><use transform="matrix(0.010850694444444444,0,0,0.010850694444444444,53.88454861111112,0)" xlink:href="#aE"/><use transform="matrix(0.010850694444444444,0,0,0.010850694444444444,62.59765625,0)" xlink:href="#aw"/><use transform="matrix(0.010850694444444444,0,0,0.010850694444444444,67.97960069444444,0)" xlink:href="#at"/></g><g id="ah"><use transform="matrix(0.010850694444444444,0,0,0.010850694444444444,0,0)" xlink:href="#aS"/><use transform="matrix(0.010850694444444444,0,0,0.010850694444444444,13.35720486111111,0)" xlink:href="#aE"/><use transform="matrix(0.010850694444444444,0,0,0.010850694444444444,22.0703125,0)" xlink:href="#aE"/><use transform="matrix(0.010850694444444444,0,0,0.010850694444444444,30.06727430555556,0)" xlink:href="#at"/><use transform="matrix(0.010850694444444444,0,0,0.010850694444444444,43.391927083333336,0)" xlink:href="#aL"/></g><g id="ai"><use transform="matrix(0.010850694444444444,0,0,0.010850694444444444,0,0)" xlink:href="#aI"/><use transform="matrix(0.010850694444444444,0,0,0.010850694444444444,19.466145833333332,0)" xlink:href="#ax"/><use transform="matrix(0.010850694444444444,0,0,0.010850694444444444,31.944444444444443,0)" xlink:href="#aw"/><use transform="matrix(0.010850694444444444,0,0,0.010850694444444444,37.326388888888886,0)" xlink:href="#aL"/></g><g id="aj"><use transform="matrix(0.010850694444444444,0,0,0.010850694444444444,0,0)" xlink:href="#aB"/><use transform="matrix(0.010850694444444444,0,0,0.010850694444444444,12.955729166666666,0)" xlink:href="#aL"/><use transform="matrix(0.010850694444444444,0,0,0.010850694444444444,24.68532986111111,0)" xlink:href="#aG"/><use transform="matrix(0.010850694444444444,0,0,0.010850694444444444,38.29210069444444,0)" xlink:href="#aB"/><use transform="matrix(0.010850694444444444,0,0,0.010850694444444444,51.24782986111111,0)" xlink:href="#aH"/><use transform="matrix(0.010850694444444444,0,0,0.010850694444444444,63.94314236111111,0)" xlink:href="#aw"/><use transform="matrix(0.010850694444444444,0,0,0.010850694444444444,69.32508680555556,0)" xlink:href="#av"/><use transform="matrix(0.010850694444444444,0,0,0.010850694444444444,77.54991319444444,0)" xlink:href="#aw"/><use transform="matrix(0.010850694444444444,0,0,0.010850694444444444,82.93185763888889,0)" xlink:href="#aH"/><use transform="matrix(0.010850694444444444,0,0,0.010850694444444444,95.62717013888889,0)" xlink:href="#at"/><use transform="matrix(0.010850694444444444,0,0,0.010850694444444444,108.95182291666666,0)" xlink:href="#aL"/></g><path d="M370-1490V0H180v-1490h190" id="bv"/><g id="ak"><use transform="matrix(0.010850694444444444,0,0,0.010850694444444444,0,0)" xlink:href="#bv"/><use transform="matrix(0.010850694444444444,0,0,0.010850694444444444,6.293402777777778,0)" xlink:href="#aC"/><use transform="matrix(0.010850694444444444,0,0,0.010850694444444444,13.346354166666666,0)" xlink:href="#aB"/><use transform="matrix(0.010850694444444444,0,0,0.010850694444444444,26.302083333333332,0)" xlink:href="#aE"/><use transform="matrix(0.010850694444444444,0,0,0.010850694444444444,34.66796875,0)" xlink:href="#ax"/><use transform="matrix(0.010850694444444444,0,0,0.010850694444444444,47.14626736111111,0)" xlink:href="#aN"/><use transform="matrix(0.010850694444444444,0,0,0.010850694444444444,59.84157986111112,0)" xlink:href="#bi"/><use transform="matrix(0.010850694444444444,0,0,0.010850694444444444,73.16623263888889,0)" xlink:href="#aB"/><use transform="matrix(0.010850694444444444,0,0,0.010850694444444444,86.12196180555556,0)" xlink:href="#aL"/></g><g id="al"><use transform="matrix(0.010850694444444444,0,0,0.010850694444444444,0,0)" xlink:href="#aH"/><use transform="matrix(0.010850694444444444,0,0,0.010850694444444444,12.91232638888889,0)" xlink:href="#ax"/><use transform="matrix(0.010850694444444444,0,0,0.010850694444444444,25.390625,0)" xlink:href="#aA"/><use transform="matrix(0.010850694444444444,0,0,0.010850694444444444,38.99739583333333,0)" xlink:href="#ax"/></g><path d="M126 0v-134l627-806v-11H146v-167h839v143L376-178v11h629V0H126" id="bw"/><g id="am"><use transform="matrix(0.010850694444444444,0,0,0.010850694444444444,0,0)" xlink:href="#bj"/><use transform="matrix(0.010850694444444444,0,0,0.010850694444444444,12.055121527777777,0)" xlink:href="#aB"/><use transform="matrix(0.010850694444444444,0,0,0.010850694444444444,24.685329861111104,0)" xlink:href="#bw"/></g><g id="an"><use transform="matrix(0.010850694444444444,0,0,0.010850694444444444,0,0)" xlink:href="#aH"/><use transform="matrix(0.010850694444444444,0,0,0.010850694444444444,12.6953125,0)" xlink:href="#at"/><use transform="matrix(0.010850694444444444,0,0,0.010850694444444444,26.01996527777778,0)" xlink:href="#au"/><use transform="matrix(0.010850694444444444,0,0,0.010850694444444444,39.14930555555556,0)" xlink:href="#av"/><use transform="matrix(0.010850694444444444,0,0,0.010850694444444444,47.37413194444444,0)" xlink:href="#aw"/><use transform="matrix(0.010850694444444444,0,0,0.010850694444444444,52.756076388888886,0)" xlink:href="#ax"/><use transform="matrix(0.010850694444444444,0,0,0.010850694444444444,64.90885416666666,0)" xlink:href="#bj"/><use transform="matrix(0.010850694444444444,0,0,0.010850694444444444,76.96397569444444,0)" xlink:href="#aB"/><use transform="matrix(0.010850694444444444,0,0,0.010850694444444444,89.91970486111111,0)" xlink:href="#aw"/><use transform="matrix(0.010850694444444444,0,0,0.010850694444444444,95.30164930555556,0)" xlink:href="#aL"/></g><g id="ao"><use transform="matrix(0.010850694444444444,0,0,0.010850694444444444,0,0)" xlink:href="#aA"/><use transform="matrix(0.010850694444444444,0,0,0.010850694444444444,13.606770833333332,0)" xlink:href="#at"/></g><g id="ap"><use transform="matrix(0.010850694444444444,0,0,0.010850694444444444,0,0)" xlink:href="#ax"/><use transform="matrix(0.010850694444444444,0,0,0.010850694444444444,12.47829861111111,0)" xlink:href="#aG"/><use transform="matrix(0.010850694444444444,0,0,0.010850694444444444,26.085069444444443,0)" xlink:href="#aG"/></g><g id="aq"><use transform="matrix(0.010850694444444444,0,0,0.010850694444444444,0,0)" xlink:href="#aH"/><use transform="matrix(0.010850694444444444,0,0,0.010850694444444444,12.6953125,0)" xlink:href="#at"/><use transform="matrix(0.010850694444444444,0,0,0.010850694444444444,26.01996527777778,0)" xlink:href="#aI"/></g><g id="ar"><use transform="matrix(0.010850694444444444,0,0,0.010850694444444444,0,0)" xlink:href="#ax"/><use transform="matrix(0.010850694444444444,0,0,0.010850694444444444,12.47829861111111,0)" xlink:href="#aC"/><use transform="matrix(0.010850694444444444,0,0,0.010850694444444444,19.74826388888889,0)" xlink:href="#aD"/><use transform="matrix(0.010850694444444444,0,0,0.010850694444444444,32.888454861111114,0)" xlink:href="#ax"/><use transform="matrix(0.010850694444444444,0,0,0.010850694444444444,45.36675347222223,0)" xlink:href="#az"/><use transform="matrix(0.010850694444444444,0,0,0.010850694444444444,50.74869791666667,0)" xlink:href="#aw"/><use transform="matrix(0.010850694444444444,0,0,0.010850694444444444,56.13064236111112,0)" xlink:href="#bw"/><use transform="matrix(0.010850694444444444,0,0,0.010850694444444444,68.40277777777779,0)" xlink:href="#ax"/><use transform="matrix(0.010850694444444444,0,0,0.010850694444444444,80.8810763888889,0)" xlink:href="#aN"/><use transform="matrix(0.010850694444444444,0,0,0.010850694444444444,93.7934027777778,0)" xlink:href="#aO"/><use transform="matrix(0.010850694444444444,0,0,0.010850694444444444,106.2717013888889,0)" xlink:href="#at"/></g></defs></g></svg>