<svg xmlns="http://www.w3.org/2000/svg" xmlns:xlink="http://www.w3.org/1999/xlink" xmlns:lucid="lucid" width="1825.83" height="819.96"><g transform="translate(702 -500)" lucid:page-tab-id="0_0"><path d="M-1000 500h2500v1000h-2500z" fill="#fff"/><path d="M25.94 584c-16.57 0-30-10.75-30-24 0-10.6 8.13-19.55 20.73-22.83C15.94 506 65.94 500 85.94 512c10-18 60-12 60 6 30-6 60 18 40 48 20 24 0 54-40 42-10 15.6-50 15.6-60 0-20 12-60 6-60-24z" stroke="#000" stroke-width="2" fill="#fff"/><use xlink:href="#a" transform="matrix(1,0,0,1,0.9417274880852204,505) translate(11.424270833333333 63.645833333333336)"/><path d="M-673 1043.3c-14.9 0-27-10.74-27-24 0-10.6 7.3-19.54 18.66-22.82C-682 965.3-637 959.3-619 971.3c9-18 54-12 54 6 27-6 54 18 36 48 18 24 0 54-36 42-9 15.6-45 15.6-54 0-18 12-54 6-54-24z" stroke="#000" stroke-width="4" fill="#fff"/><use xlink:href="#b" transform="matrix(1,0,0,1,-695,964.3070467894015) translate(17.381302083333345 45.59027777777778)"/><use xlink:href="#c" transform="matrix(1,0,0,1,-695,964.3070467894015) translate(40.91797743055557 77.85590277777777)"/><path d="M60.17 844c-13.25 0-24-10.75-24-24 0-10.6 6.5-19.55 16.6-22.83-.6-31.17 39.4-37.17 55.4-25.17 8-18 48-12 48 6 24-6 48 18 32 48 16 24 0 54-32 42-8 15.6-40 15.6-48 0-16 12-48 6-48-24z" stroke="#000" stroke-width="2" fill="#fff"/><use xlink:href="#d" transform="matrix(1,0,0,1,41.17271189161805,765) translate(29.33138888888889 45.59027777777778)"/><use xlink:href="#e" transform="matrix(1,0,0,1,41.17271189161805,765) translate(37.43750868055555 77.85590277777777)"/><path d="M787.83 844c-13.26 0-24-10.75-24-24 0-10.6 6.5-19.55 16.58-22.83C779.84 766 819.84 760 835.84 772c8-18 48-12 48 6 24-6 48 18 32 48 16 24 0 54-32 42-8 15.6-40 15.6-48 0-16 12-48 6-48-24z" stroke="#000" stroke-width="2" fill="#fff"/><use xlink:href="#f" transform="matrix(1,0,0,1,768.8272881083819,765) translate(25.979392361111106 31.84027777777778)"/><use xlink:href="#g" transform="matrix(1,0,0,1,768.8272881083819,765) translate(16.32769097222223 64.10590277777777)"/><use xlink:href="#h" transform="matrix(1,0,0,1,768.8272881083819,765) translate(35.05598958333334 64.10590277777777)"/><use xlink:href="#i" transform="matrix(1,0,0,1,768.8272881083819,765) translate(39.48807291666667 96.37152777777777)"/><path d="M-536 843.3c-13.25 0-24-10.74-24-24 0-10.6 6.5-19.54 16.58-22.82C-544 765.3-504 759.3-488 771.3c8-18 48-12 48 6 24-6 48 18 32 48 16 24 0 54-32 42-8 15.6-40 15.6-48 0-16 12-48 6-48-24z" stroke="#000" stroke-width="2" fill="#fff"/><use xlink:href="#j" transform="matrix(1,0,0,1,-555,764.3070467894015) translate(31.524097222222228 31.84027777777778)"/><use xlink:href="#k" transform="matrix(1,0,0,1,-555,764.3070467894015) translate(8.504340277777786 64.10590277777777)"/><use xlink:href="#l" transform="matrix(1,0,0,1,-555,764.3070467894015) translate(41.316840277777786 64.10590277777777)"/><use xlink:href="#m" transform="matrix(1,0,0,1,-555,764.3070467894015) translate(49.70942708333334 96.37152777777777)"/><path d="M86.43 691.94h-560.4l-.9.07-.84.2-.8.34-.75.45-.66.56-.57.66-.45.73-.33.8-.2.85-.07.88v64.25h-.96v-64.3l.08-.98.24-1 .4-.93.52-.87.66-.77.77-.66.86-.53.94-.4 1-.23.98-.08H86.43zm30.22-20.2h-.95v-34.66h.95z" stroke="#3a414a" stroke-width=".05" fill="#3a414a"/><path d="M-479.52 762l-.96.47v-.75h.96z" fill="#3a414a"/><path stroke="#3a414a" stroke-width=".05" fill="#3a414a"/><path d="M120.8 636.58h-9.26l4.63-14.27z" fill="#3a414a"/><path d="M121.46 637.05h-10.58l5.3-16.28zm-9.27-.95h7.95l-3.98-12.25zM116.65 762.42h-.95V704h.95zm0-90.68h-.95v-34.66h.95z" stroke="#3a414a" stroke-width=".05" fill="#3a414a"/><path d="M116.65 762.7l-.95.47v-.76h.95z" fill="#3a414a"/><path stroke="#3a414a" stroke-width=".05" fill="#3a414a"/><path d="M120.8 636.58h-9.26l4.63-14.27z" fill="#3a414a"/><path d="M121.46 637.05h-10.58l5.3-16.28zm-9.27-.95h7.95l-3.98-12.25zM837.85 691.33l1 .08.98.25.94.4.86.52.78.66.67.77.53.87.4.94.22 1 .08 1v64.62h-.95v-64.6l-.07-.88-.2-.84-.33-.8-.45-.74-.57-.66-.66-.56-.74-.45-.8-.35-.84-.2-.9-.07H145.93v-.95zm-721.2-19.6h-.95V637.1h.95z" stroke="#3a414a" stroke-width=".05" fill="#3a414a"/><path d="M844.3 762.7l-.95.47v-.76h.95z" fill="#3a414a"/><path stroke="#3a414a" stroke-width=".05" fill="#3a414a"/><path d="M120.8 636.58h-9.26l4.63-14.27z" fill="#3a414a"/><path d="M121.46 637.05h-10.58l5.3-16.28zm-9.27-.95h7.95l-3.98-12.25z" stroke="#3a414a" stroke-width=".05" fill="#3a414a"/><use xlink:href="#n" transform="matrix(1,0,0,1,86.42661814161805,671.7364874536653) translate(0 25.833333333333336)"/><path d="M-410 1043.3c-16.57 0-30-10.74-30-24 0-10.6 8.12-19.54 20.73-22.82C-420 965.3-370 959.3-350 971.3c10-18 60-12 60 6 30-6 60 18 40 48 20 24 0 54-40 42-10 15.6-50 15.6-60 0-20 12-60 6-60-24z" stroke="#000" stroke-width="4" fill="#fff"/><use xlink:href="#o" transform="matrix(1,0,0,1,-435.00000000000006,964.3070467894015) translate(19.79383680555557 30.818142361111114)"/><use xlink:href="#p" transform="matrix(1,0,0,1,-435.00000000000006,964.3070467894015) translate(42.53689236111112 63.083767361111114)"/><use xlink:href="#q" transform="matrix(1,0,0,1,-435.00000000000006,964.3070467894015) translate(121.37803819444443 63.083767361111114)"/><use xlink:href="#r" transform="matrix(1,0,0,1,-435.00000000000006,964.3070467894015) translate(48.08702256944444 95.34939236111111)"/><path d="M-463.35 914.56l.07.9.2.83.33.8.45.73.57.66.66.55.74.45.8.34.84.2.9.07H-346l1 .08.98.24.94.4.87.52.78.66.66.77.53.87.4.94.23 1 .08.98v34.15h-.96v-34.1l-.06-.88-.2-.85-.34-.8-.45-.74-.56-.65-.65-.57-.74-.44-.8-.33-.84-.2-.88-.07h-111.83l-1-.08-.98-.24-.94-.4-.86-.52-.78-.66-.67-.77-.53-.88-.4-.94-.22-1-.08-.98V911h.95z" stroke="#3a414a" stroke-width=".05" fill="#3a414a"/><path d="M-339.52 961.03l-.96.36v-.7h.96z" fill="#3a414a"/><path stroke="#3a414a" stroke-width=".05" fill="#3a414a"/><path d="M-461.25 889.5h-5.15l2.57-7.93z" fill="#3a414a"/><path d="M-460.75 889.5h-1l-2.08-6.4-2.07 6.4h-1l3.07-9.46zM-463.35 913.3l-.08 1-.24.98-.4.93-.52.88-.65.77-.77.66-.87.54-.93.4-.98.23-1 .08h-115.6l-.88.07-.84.2-.8.33-.74.45-.66.57-.56.66-.46.74-.33.8-.2.84-.07.9v32.8h-.95v-32.85l.1-1 .23-.98.4-.94.52-.86.66-.78.78-.67.87-.53.94-.4.97-.22 1-.08h115.58l.9-.07.83-.2.8-.33.74-.46.66-.56.56-.66.45-.74.33-.8.2-.84.07-.88V911h.95z" stroke="#3a414a" stroke-width=".05" fill="#3a414a"/><path d="M-590.94 958.62l-.95-.05v-.5h.96z" fill="#3a414a"/><path stroke="#3a414a" stroke-width=".05" fill="#3a414a"/><path d="M-461.25 889.5h-5.15l2.57-7.93z" fill="#3a414a"/><path d="M-460.75 889.5h-1l-2.08-6.4-2.07 6.4h-1l3.07-9.46z" stroke="#3a414a" stroke-width=".05" fill="#3a414a"/><use xlink:href="#s" transform="matrix(1,0,0,1,-476.5139200528264,889.5033637011553) translate(0 17.22222222222222)"/><path d="M-536 1283.3c-13.25 0-24-10.74-24-24 0-10.6 6.5-19.54 16.58-22.82-.58-31.17 39.42-37.17 55.42-25.17 8-18 48-12 48 6 24-6 48 18 32 48 16 24 0 54-32 42-8 15.6-40 15.6-48 0-16 12-48 6-48-24z" fill="#fff"/><path d="M-549.3 1279.2l-.73-.42-3.74-3.34-2.1-2.86m-3.55-8.62l-.43-1.93-.15-2.72.4-3.74m2.2-7.16l2.3-3.8 2.17-2.22m6.03-4.45l3.48-1.45.08-3.1.07-.6m1.55-7.2l.88-2.16 1.08-2.1 1.28-2 .2-.27m5.1-5.35l2.08-1.56 2.56-1.57 1.6-.8m6.92-2.6l1.32-.38 3.93-.77 2.02-.2m7.4-.16l2.64.2 3.54.62 1.1.28m6.93 2.56l.03.02 1.9 1.1 1.2.85.7-1.37.84-1.3.4-.5m5.82-4.65l1.05-.54 2.43-.94 2.88-.78.74-.12m7.45-.62l3.18.15 4.1.62.16.04m7.13 2.25l2.45 1.22 2.13 1.35 1.7 1.33.05.07m4.2 6.1l.3 1.1.22 1.18.08 1.23v.18l3.2-.62.46-.04m7.4 0l1.56.18 3.05.7 2.6.88m6.53 3.52l1.78 1.33 2.25 2.08 1.42 1.6m4.02 6.23l1 2.32.93 2.93.37 1.8m.56 7.4v.6l-.42 3.66-.67 3.08m-2.46 7l-1.22 2.7-.35.67 1.88 3.22m2.86 6.83l.66 2.2.68 3.9.06 1.18m-.34 7.4l-.37 1.93-.94 3-.96 2.12m-4.27 6.03l-1 1.03-2.08 1.64-2.27 1.4-.64.3m-7.07 2.2l-.53.1-3.4.27-3.48-.16m-7.27-1.48l-2.7-.8-.85-.3-.86 1.48-1.04 1.44h-.02m-5.32 4.5l-1.5.88-2.64 1.17-2.26.74m-6.87 1.3l-1.38.15h-4l-1.6-.15m-6.88-1.3l-2.08-.66-2.67-1.17-1.66-.94m-5.32-4.5l-1-1.36-.87-1.47-.05-.1-2.24 1.5-1.3.7m-7.83 2.83l-2.94.52-3.55.25-1.82-.06m-8.23-1.3l-.2-.04-3-1.08-2.74-1.32-1.62-1m-6.2-5.53l-.54-.62-1.53-2.23-1.32-2.45-.78-1.9m-1.92-8.1l-.24-3.06v-1.1l-4.68-.48" stroke="#000" stroke-width="2" fill="none"/><use xlink:href="#t" transform="matrix(1,0,0,1,-555,1204.3070467894015) translate(24.41059895833333 45.59027777777778)"/><use xlink:href="#u" transform="matrix(1,0,0,1,-555,1204.3070467894015) translate(25.76216145833335 77.85590277777777)"/><use xlink:href="#v" transform="matrix(1,0,0,1,-555,1204.3070467894015) translate(58.94358506944445 77.85590277777777)"/><path d="M-463.27 1183.2h-.95v-11.72h.95zm-146.25-50.73l.06.88.2.84.34.8.45.73.56.66.65.56.74.45.8.34.84.2.88.07h134.25l1 .1 1 .23.93.4.86.52.77.66.66.78.52.87.4.94.23.97.08 1v5.5h-.95v-5.46l-.07-.88-.2-.84-.32-.8-.46-.74-.56-.66-.66-.56-.74-.45-.8-.34-.84-.2-.88-.07h-134.26l-1-.08-.98-.23-.94-.4-.87-.52-.78-.66-.66-.78-.53-.87-.4-.94-.23-1-.08-1v-54.6h.96z" stroke="#3a414a" stroke-width=".05" fill="#3a414a"/><path d="M-610.22 1077.3l.7.3v.32h-.96v-.74z" fill="#3a414a"/><path stroke="#3a414a" stroke-width=".05" fill="#3a414a"/><path d="M-463.75 1197.95l-4.63-14.26h9.27z" fill="#3a414a"/><path d="M-463.75 1199.5l-5.3-16.3h10.6zm-3.98-15.34l4 12.26 3.97-12.26z" stroke="#3a414a" stroke-width=".05" fill="#3a414a"/><path d="M-461.83 1183.27h-.95v-11.8h.95zm122.3-50.75l-.07 1-.24.98-.4.94-.52.87-.66.78-.77.66-.86.53-.94.4-1 .23-.98.07h-110.3l-.9.07-.83.2-.8.34-.75.45-.66.56-.57.65-.45.74-.34.8-.2.84-.07.88v5.45h-.95v-5.5l.08-.98.24-1 .4-.94.52-.87.66-.78.77-.66.86-.53.94-.4.98-.23 1-.08h110.3l.88-.07.85-.2.8-.33.75-.45.66-.57.57-.65.45-.74.33-.8.2-.84.07-.88v-54.63h.96z" stroke="#3a414a" stroke-width=".05" fill="#3a414a"/><path d="M-339.52 1077.53v.33h-.96v-.7z" fill="#3a414a"/><path stroke="#3a414a" stroke-width=".05" fill="#3a414a"/><path d="M-462.3 1198.03l-4.64-14.26h9.27z" fill="#3a414a"/><path d="M-462.3 1199.57l-5.3-16.28h10.6zm-3.98-15.33l3.98 12.26 3.98-12.26z" stroke="#3a414a" stroke-width=".05" fill="#3a414a"/><use xlink:href="#w" transform="matrix(1,0,0,1,-507.78000508114224,1149.9659279746825) translate(0 17.22222222222222)"/><path d="M-170 1043.3c-16.57 0-30-10.74-30-24 0-10.6 8.12-19.54 20.73-22.82C-180 965.3-130 959.3-110 971.3c10-18 60-12 60 6 30-6 60 18 40 48 20 24 0 54-40 42-10 15.6-50 15.6-60 0-20 12-60 6-60-24z" stroke="#000" stroke-width="4" fill="#fff"/><use xlink:href="#x" transform="matrix(1,0,0,1,-195,964.3070467894015) translate(38.40191840277778 45.59027777777778)"/><use xlink:href="#y" transform="matrix(1,0,0,1,-195,964.3070467894015) translate(137.04558159722222 45.59027777777778)"/><use xlink:href="#z" transform="matrix(1,0,0,1,-195,964.3070467894015) translate(41.56641493055557 77.85590277777777)"/><path d="M70 1043.3c-16.57 0-30-10.74-30-24 0-10.6 8.12-19.54 20.73-22.82C60 965.3 110 959.3 130 971.3c10-18 60-12 60 6 30-6 60 18 40 48 20 24 0 54-40 42-10 15.6-50 15.6-60 0-20 12-60 6-60-24z" stroke="#000" stroke-width="4" fill="#fff"/><use xlink:href="#A" transform="matrix(1,0,0,1,45,964.3070467894015) translate(18.176223958333335 45.59027777777778)"/><use xlink:href="#y" transform="matrix(1,0,0,1,45,964.3070467894015) translate(157.27127604166668 45.59027777777778)"/><use xlink:href="#B" transform="matrix(1,0,0,1,45,964.3070467894015) translate(71.41667534722222 77.85590277777777)"/><path d="M132.82 914.95l-.08 1-.24.98-.38.94-.53.87-.67.77-.78.67-.86.53-.95.4-1 .23-1 .07H-93.97l-.88.07-.85.2-.8.34-.75.46-.66.56-.57.66-.45.74-.33.8-.2.84-.08.9v33.75h-.94v-33.8l.07-1 .24-.97.4-.94.52-.88.66-.77.77-.66.86-.54.94-.4 1-.23.98-.08h220.35l.88-.07.85-.2.8-.33.74-.45.65-.57.56-.66.47-.73.33-.8.2-.85.07-.9v-5.74h.95z" stroke="#3a414a" stroke-width=".05" fill="#3a414a"/><path d="M-99.53 961.03l-.94.36v-.7h.94z" fill="#3a414a"/><path stroke="#3a414a" stroke-width=".05" fill="#3a414a"/><path d="M134.1 887.65h-3.5l1.75-5.38z" fill="#3a414a"/><path d="M134.6 887.65h-1l-1.25-3.85-1.25 3.85h-1l2.25-6.92zM132.82 913.6l.07.9.2.83.32.8.46.74.56.66.66.56.74.44.8.34.84.2.88.07h16.3l1 .08 1 .23.93.4.86.52.77.66.66.78.52.86.4.94.23 1 .07.98v32.5h-.94v-32.46l-.08-.88-.2-.85-.33-.78-.45-.74-.56-.66-.66-.57-.74-.45-.8-.33-.85-.2-.87-.07h-16.3l-1-.08-1-.24-.93-.4-.86-.52-.77-.66-.66-.77-.53-.87-.38-.94-.25-1-.08-.98v-4.48h.95z" stroke="#3a414a" stroke-width=".05" fill="#3a414a"/><path d="M161.13 958.63l-.95-.06v-.5h.94z" fill="#3a414a"/><path stroke="#3a414a" stroke-width=".05" fill="#3a414a"/><path d="M134.1 887.65h-3.5l1.75-5.38z" fill="#3a414a"/><path d="M134.6 887.65h-1l-1.25-3.85-1.25 3.85h-1l2.25-6.92z" stroke="#3a414a" stroke-width=".05" fill="#3a414a"/><use xlink:href="#C" transform="matrix(1,0,0,1,112.5146946165694,887.6477527816976) translate(0 17.22222222222222)"/><path d="M610 1044c-16.57 0-30-10.74-30-24 0-10.6 8.12-19.55 20.73-22.83C600 966 650 960 670 972c10-18 60-12 60 6 30-6 60 18 40 48 20 24 0 54-40 42-10 15.6-50 15.6-60 0-20 12-60 6-60-24z" stroke="#000" stroke-width="4" fill="#fff"/><use xlink:href="#D" transform="matrix(1,0,0,1,585,965) translate(51.34266493055556 45.59027777777778)"/><use xlink:href="#y" transform="matrix(1,0,0,1,585,965) translate(125.09483506944444 45.59027777777778)"/><use xlink:href="#E" transform="matrix(1,0,0,1,585,965) translate(39.32574652777778 77.85590277777777)"/><path d="M953.83 1044c-16.57 0-30-10.74-30-24 0-10.6 8.12-19.55 20.73-22.83-.73-31.17 49.27-37.17 69.27-25.17 10-18 60-12 60 6 30-6 60 18 40 48 20 24 0 54-40 42-10 15.6-50 15.6-60 0-20 12-60 6-60-24z" stroke="#000" stroke-width="4" fill="#fff"/><use xlink:href="#F" transform="matrix(1,0,0,1,928.8272881083819,965) translate(56.45747395833334 45.59027777777778)"/><use xlink:href="#G" transform="matrix(1,0,0,1,928.8272881083819,965) translate(44.39844618055557 77.85590277777777)"/><path d="M436 1283.3c-19.88 0-36-10.74-36-24 0-10.6 9.75-19.54 24.88-22.82C424 1205.3 484 1199.3 508 1211.3c12-18 72-12 72 6 36-6 72 18 48 48 24 24 0 54-48 42-12 15.6-60 15.6-72 0-24 12-72 6-72-24z" fill="#fff"/><path d="M424.22 1281.88l-2.37-.5-5.18-1.86m-6.9-3.87l-1.9-1.36-2.7-2.58-1.15-1.46m-3.5-7.04l-.25-.96-.25-2.25-.02-.7.34-3.4.34-1.08m4.42-7.83l1.2-1.42 4.63-3.6 1.25-.62m8.33-3.6l4.38-1.28v-1.42l.08-1.36.16-1.3v-.02m2.8-7.7l.4-.64.8-1.17.93-1.18 1.06-1.2 1.22-1.22.94-.83m6.78-4.64l1.86-.98 2.97-1.34 2.68-1.03m7.9-2.33l1.6-.4 5.26-1 1.23-.14m8.2-.8l2.47-.17 5.76-.02m8.2.56l3.18.36 4.5.8.47.1m7.9 2.3l1.16.4 2.1.95.54.26.55-.76.64-.77.74-.8.77-.7m7.03-4.1l.92-.37 2.72-.9 3.36-.88.8-.14m8.08-1.16l.2-.02 5.7-.26 2.26.06m8.14.5l1.9.17 5.57.9.6.15m7.86 2.13l.06.02 2.98 1.16 2.33 1.1 1.83 1.02.2.12m5.76 5.63l.07.14.27.58.22.56.17.55.12.55.1.55.04.55v.43l3.78-.42m7.6-.4l2.76-.04 4.83.46m7.5 1.3l.95.2 5.7 1.77.6.26m6.86 3.3l1.5.82 3.3 2.35 1.4 1.2m5.08 5.65l.02.04 1.32 2.2 1 2.17.75 2.16.07.3m.63 7.55l-.1 1.18-.5 2.52-.82 2.72-.4.94m-3.62 6.67l-1.74 2.52-.46.6 2.6 2.85m4.23 6.43l1 2.25.8 2.44.5 2.3.05.32m-.32 7.67l-.1.4-.62 2-.85 1.93-1.1 1.93-.52.7m-5.34 5.53l-1.68 1.23-2.95 1.74-2 .92m-7.3 2.44l-3.46.77-4.15.5m-7.72.27h-1.18l-6.5-.6m-7.6-1.3l-3.8-.76-.7.86-.84.88-1 .9-.17.15m-6.66 4.02l-2.37.98-3.24 1.1-1.75.44m-7.63 1.54l-4.7.54-3.06.15m-7.8.02l-1-.03-5.63-.52-1.12-.18m-7.64-1.5l-.42-.1-3.48-1.08-2.84-1.1-.6-.3m-6.65-4l-.82-.74-.9-.9-.74-.85-.24-.3-2.73 1.25-1.3.5m-8.44 2.45l-1.6.36-4.85.73-2.25.18m-8.78.27l-4.75-.27-4-.5m-8.6-1.87l-.84-.22-3.5-1.22-3.05-1.3-.8-.4m-7.37-4.76l-.4-.32-1.5-1.4-1.28-1.38-1.13-1.4-1-1.4-.42-.72m-3.03-8.2l-.04-.2-.22-1.75-.1-1.85v-.57l-3.95-.26" stroke="#000" stroke-width="2" fill="none"/><use xlink:href="#H" transform="matrix(1,0,0,1,405,1204.3070467894015) translate(14.8752170138889 30.818142361111114)"/><use xlink:href="#I" transform="matrix(1,0,0,1,405,1204.3070467894015) translate(182.7029079861111 30.818142361111114)"/><use xlink:href="#J" transform="matrix(1,0,0,1,405,1204.3070467894015) translate(51.5234375 63.083767361111114)"/><use xlink:href="#K" transform="matrix(1,0,0,1,405,1204.3070467894015) translate(64.34353298611111 95.34939236111111)"/><path d="M310 1043.3c-16.57 0-30-10.74-30-24 0-10.6 8.12-19.54 20.73-22.82C300 965.3 350 959.3 370 971.3c10-18 60-12 60 6 30-6 60 18 40 48 20 24 0 54-40 42-10 15.6-50 15.6-60 0-20 12-60 6-60-24z" stroke="#000" stroke-width="4" fill="#fff"/><use xlink:href="#A" transform="matrix(1,0,0,1,285,964.3070467894015) translate(18.176223958333335 45.59027777777778)"/><use xlink:href="#y" transform="matrix(1,0,0,1,285,964.3070467894015) translate(157.27127604166668 45.59027777777778)"/><use xlink:href="#B" transform="matrix(1,0,0,1,285,964.3070467894015) translate(71.41667534722222 77.85590277777777)"/><path d="M132.82 914.9l.07.9.2.84.32.8.46.73.56.66.66.57.74.45.8.33.84.2.88.07h235.66l1 .08.98.24.94.4.87.52.78.65.66.77.53.87.4.93.23 1 .08.98v33.8h-.96v-33.75l-.06-.9-.2-.83-.34-.8-.45-.74-.56-.66-.65-.56-.74-.45-.8-.33-.84-.2-.88-.07H138.33l-1-.07-1-.24-.93-.4-.86-.53-.77-.66-.66-.76-.53-.87-.38-.94-.25-1-.08-.98v-5.8h.95z" stroke="#3a414a" stroke-width=".05" fill="#3a414a"/><path d="M380.48 961.03l-.96.36v-.7h.96z" fill="#3a414a"/><path stroke="#3a414a" stroke-width=".05" fill="#3a414a"/><path d="M134.1 887.65h-3.5l1.75-5.38z" fill="#3a414a"/><path d="M134.6 887.65h-1l-1.25-3.85-1.25 3.85h-1l2.25-6.92zM544.86 1183.18h-.95v-17.1l.96.02zm-644.4-50.74l.08.88.2.84.34.8.45.74.56.66.65.56.74.46.8.33.84.2.88.08H538.4l1 .08 1 .24.93.38.86.54.76.66.66.77.54.87.38.93.24 1 .08 1v.13h-.95v-.1l-.06-.9-.2-.83-.33-.8-.45-.74-.56-.65-.67-.56-.74-.47-.8-.33-.85-.2-.88-.07h-632.4l-.98-.08-1-.23-.94-.4-.87-.53-.78-.66-.66-.78-.53-.86-.4-.94-.23-1-.07-1v-54.6h.94z" stroke="#3a414a" stroke-width=".05" fill="#3a414a"/><path d="M-99.53 1077.53v.33h-.94v-.7z" fill="#3a414a"/><path stroke="#3a414a" stroke-width=".05" fill="#3a414a"/><path d="M544.4 1197.94l-4.65-14.26h9.27z" fill="#3a414a"/><path d="M544.4 1199.48l-5.3-16.28h10.57zm-4-15.33l4 12.26 3.97-12.25zM544.86 1183.18h-.95v-17.1l.96.02zm-404.4-50.74l.08.88.2.84.34.8.45.74.56.66.65.56.74.46.8.33.84.2.88.08H538.4l1 .08 1 .24.93.38.86.54.76.66.66.77.54.87.38.93.24 1 .08 1v.13h-.95v-.1l-.06-.9-.2-.83-.33-.8-.45-.74-.56-.65-.67-.56-.74-.47-.8-.33-.85-.2-.88-.07h-392.4l-.98-.08-1-.23-.94-.4-.87-.53-.78-.66-.66-.78-.53-.86-.4-.94-.23-1-.07-1v-54.6h.94z" stroke="#3a414a" stroke-width=".05" fill="#3a414a"/><path d="M140.47 1077.53v.33h-.94v-.7z" fill="#3a414a"/><path stroke="#3a414a" stroke-width=".05" fill="#3a414a"/><path d="M544.4 1197.94l-4.65-14.26h9.27z" fill="#3a414a"/><path d="M544.4 1199.48l-5.3-16.28h10.57zm-4-15.33l4 12.26 3.97-12.25zM544.86 1183.18h-.95v-17.1l.96.02zm-164.38-50.74l.06.88.2.84.34.8.45.74.56.66.65.56.74.46.8.33.84.2.88.08H538.4l1 .08 1 .24.93.38.86.54.76.66.66.77.54.87.38.93.24 1 .08 1v.13h-.95v-.1l-.06-.9-.2-.83-.33-.8-.45-.74-.56-.65-.67-.56-.74-.47-.8-.33-.85-.2-.88-.07h-152.4l-.98-.08-1-.23-.94-.4-.87-.53-.78-.66-.66-.78-.53-.86-.4-.94-.23-1-.08-1v-54.6h.96z" stroke="#3a414a" stroke-width=".05" fill="#3a414a"/><path d="M380.48 1077.53v.33h-.96v-.7z" fill="#3a414a"/><path stroke="#3a414a" stroke-width=".05" fill="#3a414a"/><path d="M544.4 1197.94l-4.65-14.26h9.27z" fill="#3a414a"/><path d="M544.4 1199.48l-5.3-16.28h10.57zm-4-15.33l4 12.26 3.97-12.25zM544.86 1183.18h-.95v-17.1l.96.02zm135.62-50.36l-.08 1-.24.98-.4.94-.52.87-.66.78-.77.66-.86.53-.94.4-1 .23-.98.08H550.4l-.88.07-.84.2-.8.33-.74.45-.66.57-.56.65-.46.74-.33.8-.2.84-.05.64h-.95l.06-.8.23-.98.38-.94.55-.87.66-.78.78-.66.87-.53.93-.4 1-.23 1-.07h123.6l.88-.07.85-.2.8-.34.75-.45.66-.56.57-.65.45-.74.33-.8.2-.83.07-.9v-54.23h.96z" stroke="#3a414a" stroke-width=".05" fill="#3a414a"/><path d="M680.48 1078.23v.32h-.96v-.7z" fill="#3a414a"/><path stroke="#3a414a" stroke-width=".05" fill="#3a414a"/><path d="M544.4 1197.94l-4.65-14.26h9.27z" fill="#3a414a"/><path d="M544.4 1199.48l-5.3-16.28h10.57zm-4-15.33l4 12.26 3.97-12.25zM544.86 1183.18h-.95v-17.1l.96.02zm479.44-50.36l-.08 1-.23.98-.4.94-.53.87-.66.78-.77.66-.86.53-.94.4-1 .23-.98.08H550.4l-.88.07-.84.2-.8.33-.74.45-.66.57-.56.65-.46.74-.33.8-.2.84-.05.64h-.95l.06-.8.23-.98.38-.94.55-.87.66-.78.78-.66.87-.53.93-.4 1-.23 1-.07h467.43l.9-.07.83-.2.8-.34.74-.45.66-.56.57-.65.45-.74.33-.8.2-.83.07-.9v-54.23h.95z" stroke="#3a414a" stroke-width=".05" fill="#3a414a"/><path d="M1024.3 1078.23v.32h-.95v-.7z" fill="#3a414a"/><path stroke="#3a414a" stroke-width=".05" fill="#3a414a"/><path d="M544.4 1197.94l-4.65-14.26h9.27z" fill="#3a414a"/><path d="M544.4 1199.48l-5.3-16.28h10.57zm-4-15.33l4 12.26 3.97-12.25z" stroke="#3a414a" stroke-width=".05" fill="#3a414a"/><g><use xlink:href="#w" transform="matrix(1,0,0,1,498.9079596207654,1144.584949180579) translate(0 17.22222222222222)"/></g><path d="M860.48 915.3l-.08 1-.24.98-.4.94-.52.86-.66.77-.77.66-.86.54-.94.4-1 .23-.98.08h-168l-.88.07-.85.2-.8.33-.75.46-.66.57-.57.66-.45.74-.33.8-.2.84-.07.9v34.1h-.96v-34.14l.08-1 .24-1 .4-.92.52-.87.66-.77.77-.67.86-.53.94-.38 1-.24.98-.08h168l.88-.07.85-.2.8-.33.75-.46.66-.56.57-.66.45-.74.33-.8.2-.84.07-.88v-1.52h.96z" stroke="#3a414a" stroke-width=".05" fill="#3a414a"/><path d="M680.48 961.73l-.96.35v-.7h.96z" fill="#3a414a"/><path stroke="#3a414a" stroke-width=".05" fill="#3a414a"/><path d="M863.24 892.23h-6.48l3.24-9.96z" fill="#3a414a"/><path d="M863.74 892.23h-1L860 883.8l-2.74 8.43h-1l3.74-11.5zM860.48 913.95l.06.88.2.85.34.8.45.74.56.65.65.57.74.45.8.32.84.2.88.07h172.48l1 .07.98.24.94.4.86.53.78.66.66.76.53.87.4.94.22 1 .08.98v32.84h-.95V926l-.07-.9-.2-.84-.33-.8-.45-.74-.57-.66-.66-.56-.74-.45-.8-.33-.84-.2-.88-.08H865.98l-1-.08-.98-.23-.94-.4-.87-.52-.78-.65-.66-.77-.53-.87-.4-.93-.23-1-.08-.98v-.26h.96z" stroke="#3a414a" stroke-width=".05" fill="#3a414a"/><path d="M1044.95 959.32l-.95-.06v-.48h.95z" fill="#3a414a"/><path stroke="#3a414a" stroke-width=".05" fill="#3a414a"/><path d="M863.24 892.23h-6.48l3.24-9.96z" fill="#3a414a"/><path d="M863.74 892.23h-1L860 883.8l-2.74 8.43h-1l3.74-11.5z" stroke="#3a414a" stroke-width=".05" fill="#3a414a"/><g><use xlink:href="#C" transform="matrix(1,0,0,1,840.1692708333334,892.22613852502) translate(0 17.22222222222222)"/></g><defs><path d="M645 0H180v-1490h484c435 0 692 280 692 742 0 466-257 748-711 748zM370-168h263c363 0 539-218 539-580 0-358-176-574-521-574H370v1154" id="L"/><path d="M628 24c-324 0-524-230-524-574 0-343 198-582 503-582 237 0 487 146 487 559v75H286c9 234 145 362 343 362 132 0 231-58 273-172l174 48C1024-91 857 24 628 24zM287-650h624c-17-190-120-322-304-322-192 0-309 151-320 322" id="M"/><path d="M538 24C308 24 148-78 108-271l171-41c32 123 123 178 257 178 156 0 256-77 256-169 0-77-54-128-164-154l-186-44c-203-48-300-148-300-305 0-192 176-326 414-326 230 0 351 112 402 269l-163 42c-31-80-94-158-238-158-133 0-233 69-233 162 0 83 57 129 188 160l169 40c203 48 298 149 298 302 0 196-179 339-441 339" id="N"/><path d="M158 0v-1118h175l1 205c55-151 181-225 313-225 147 0 245 90 285 228 53-141 190-228 352-228 194 0 352 125 352 384V0h-181v-749c0-161-105-225-225-225-151 0-243 103-243 244V0H807v-767c0-124-93-207-219-207-131 0-250 92-250 270V0H158" id="O"/><path d="M158 418v-1536h174v179h20c37-59 106-193 324-193 279 0 474 222 474 576 0 356-194 580-473 580-213 0-288-135-325-197h-14v591H158zm492-555c209 0 317-186 317-421 0-232-105-413-317-413-206 0-314 166-314 413 0 249 111 421 314 421" id="P"/><path d="M338-670V0H158v-1118h173l1 207c72-158 192-221 342-221 226 0 378 139 378 422V0H872v-695c0-172-96-275-252-275-161 0-282 109-282 300" id="Q"/><path d="M338-670V0H158v-1490h180v566c73-149 190-208 336-208 226 0 379 139 379 422V0H872v-695c0-172-96-275-252-275-161 0-282 109-282 300" id="R"/><path d="M613 24c-304 0-509-231-509-576 0-350 205-580 509-580 305 0 511 230 511 580 0 345-206 576-511 576zm0-161c226 0 329-195 329-415 0-222-103-419-329-419-223 0-326 196-326 419 0 220 103 415 326 415" id="S"/><g id="a"><use transform="matrix(0.013020833333333334,0,0,0.013020833333333334,0,0)" xlink:href="#L"/><use transform="matrix(0.013020833333333334,0,0,0.013020833333333334,19.244791666666668,0)" xlink:href="#M"/><use transform="matrix(0.013020833333333334,0,0,0.013020833333333334,34.79166666666667,0)" xlink:href="#N"/><use transform="matrix(0.013020833333333334,0,0,0.013020833333333334,48.86718750000001,0)" xlink:href="#M"/><use transform="matrix(0.013020833333333334,0,0,0.013020833333333334,64.4140625,0)" xlink:href="#O"/><use transform="matrix(0.013020833333333334,0,0,0.013020833333333334,87.7734375,0)" xlink:href="#P"/><use transform="matrix(0.013020833333333334,0,0,0.013020833333333334,104.1015625,0)" xlink:href="#M"/><use transform="matrix(0.013020833333333334,0,0,0.013020833333333334,119.6484375,0)" xlink:href="#Q"/><use transform="matrix(0.013020833333333334,0,0,0.013020833333333334,135.40364583333334,0)" xlink:href="#R"/><use transform="matrix(0.013020833333333334,0,0,0.013020833333333334,151.171875,0)" xlink:href="#S"/></g><path d="M180 0v-1490h510c348 0 508 194 508 460 0 198-88 351-276 417L1256 0h-220L726-579c-117 2-238 0-356 1V0H180zm190-747h312c235 0 327-108 327-283 0-177-92-293-329-293H370v576" id="T"/><path d="M471 26C259 26 90-98 90-318c0-256 228-303 435-329 202-27 287-16 287-108 0-139-79-219-234-219-161 0-248 86-283 164l-173-57c86-203 278-265 451-265 150 0 419 46 419 395V0H815v-152h-12C765-73 660 26 471 26zm31-159c199 0 310-134 310-271v-155c-30 35-226 55-295 64-131 17-246 59-246 186 0 116 97 176 231 176" id="U"/><path d="M598-1118v154H368v674c0 100 37 144 132 144 23 0 62-6 92-12L629-6c-37 13-88 20-134 20-193 0-307-107-307-290v-688H20v-154h168v-266h180v266h230" id="V"/><path d="M158 0v-1118h174v172h12c41-113 157-188 290-188 26 0 70 2 91 3v181c-11-2-60-10-108-10-161 0-279 109-279 260V0H158" id="W"/><g id="b"><use transform="matrix(0.010850694444444444,0,0,0.010850694444444444,0,0)" xlink:href="#T"/><use transform="matrix(0.010850694444444444,0,0,0.010850694444444444,14.192708333333332,0)" xlink:href="#U"/><use transform="matrix(0.010850694444444444,0,0,0.010850694444444444,26.671006944444443,0)" xlink:href="#N"/><use transform="matrix(0.010850694444444444,0,0,0.010850694444444444,38.400607638888886,0)" xlink:href="#V"/><use transform="matrix(0.010850694444444444,0,0,0.010850694444444444,45.670572916666664,0)" xlink:href="#W"/><use transform="matrix(0.010850694444444444,0,0,0.010850694444444444,53.66753472222221,0)" xlink:href="#M"/><use transform="matrix(0.010850694444444444,0,0,0.010850694444444444,66.84027777777777,0)" xlink:href="#U"/><use transform="matrix(0.010850694444444444,0,0,0.010850694444444444,79.31857638888889,0)" xlink:href="#O"/><use transform="matrix(0.010850694444444444,0,0,0.010850694444444444,98.78472222222221,0)" xlink:href="#M"/><use transform="matrix(0.010850694444444444,0,0,0.010850694444444444,111.74045138888889,0)" xlink:href="#Q"/><use transform="matrix(0.010850694444444444,0,0,0.010850694444444444,124.86979166666666,0)" xlink:href="#V"/><use transform="matrix(0.010850694444444444,0,0,0.010850694444444444,131.92274305555554,0)" xlink:href="#S"/></g><path d="M784 20c-382 0-662-292-662-764 0-473 280-766 662-766s660 293 660 766c0 472-278 764-660 764zm0-176c266 0 475-207 475-588 0-383-209-590-475-590-268 0-477 208-477 590 0 380 209 588 477 588" id="X"/><path d="M158 0v-1118h180V0H158zm91-1301c-68 0-125-53-125-119s57-119 125-119c69 0 126 53 126 119s-57 119-126 119" id="Y"/><path d="M126 0v-134l627-806v-11H146v-167h839v143L376-178v11h629V0H126" id="Z"/><path d="M577 24c-279 0-473-224-473-580 0-354 195-576 474-576 218 0 287 134 324 193h14v-551h180V0H922v-173h-20C865-111 790 24 577 24zm27-161c203 0 314-172 314-421 0-247-108-413-314-413-212 0-317 181-317 413 0 235 108 421 317 421" id="aa"/><g id="c"><use transform="matrix(0.010850694444444444,0,0,0.010850694444444444,0,0)" xlink:href="#X"/><use transform="matrix(0.010850694444444444,0,0,0.010850694444444444,16.9921875,0)" xlink:href="#V"/><use transform="matrix(0.010850694444444444,0,0,0.010850694444444444,24.26215277777778,0)" xlink:href="#Y"/><use transform="matrix(0.010850694444444444,0,0,0.010850694444444444,29.64409722222222,0)" xlink:href="#O"/><use transform="matrix(0.010850694444444444,0,0,0.010850694444444444,49.11024305555556,0)" xlink:href="#Y"/><use transform="matrix(0.010850694444444444,0,0,0.010850694444444444,54.4921875,0)" xlink:href="#Z"/><use transform="matrix(0.010850694444444444,0,0,0.010850694444444444,66.76432291666667,0)" xlink:href="#U"/><use transform="matrix(0.010850694444444444,0,0,0.010850694444444444,79.24262152777779,0)" xlink:href="#aa"/><use transform="matrix(0.010850694444444444,0,0,0.010850694444444444,92.84939236111111,0)" xlink:href="#S"/></g><path d="M783 20c-382 0-661-292-661-764 0-473 279-766 661-766 302 0 548 182 601 489h-190c-42-204-217-313-411-313-268 0-476 208-476 590 0 381 209 588 476 588 195 0 369-110 411-313h190c-52 303-296 489-601 489" id="ab"/><path d="M537 14c-226 0-379-139-379-422v-710h180v695c0 172 97 275 253 275 160 0 281-109 281-300v-670h181V0H879v-209C806-46 684 14 537 14" id="ac"/><g id="d"><use transform="matrix(0.010850694444444444,0,0,0.010850694444444444,0,0)" xlink:href="#ab"/><use transform="matrix(0.010850694444444444,0,0,0.010850694444444444,16.23263888888889,0)" xlink:href="#S"/><use transform="matrix(0.010850694444444444,0,0,0.010850694444444444,29.557291666666664,0)" xlink:href="#Q"/><use transform="matrix(0.010850694444444444,0,0,0.010850694444444444,42.68663194444444,0)" xlink:href="#N"/><use transform="matrix(0.010850694444444444,0,0,0.010850694444444444,54.416232638888886,0)" xlink:href="#ac"/><use transform="matrix(0.010850694444444444,0,0,0.010850694444444444,67.55642361111111,0)" xlink:href="#O"/><use transform="matrix(0.010850694444444444,0,0,0.010850694444444444,87.02256944444444,0)" xlink:href="#S"/></g><path d="M180 0v-1490h908v168H370v486h669v168H370v500h727V0H180" id="ad"/><path d="M678-1118v154H420V0H240v-964H20v-154h220v-149c0-194 155-293 318-293 85 0 141 18 168 30l-50 154c-19-6-47-17-97-17-111 0-159 58-159 166v109h258" id="ae"/><path d="M613 24c-304 0-509-231-509-576 0-350 205-580 509-580 216 0 392 114 453 309l-173 49c-33-115-133-197-280-197-223 0-326 196-326 419 0 220 103 415 326 415 150 0 252-85 285-206l172 49C1010-95 832 24 613 24" id="af"/><g id="e"><use transform="matrix(0.010850694444444444,0,0,0.010850694444444444,0,0)" xlink:href="#ad"/><use transform="matrix(0.010850694444444444,0,0,0.010850694444444444,13.35720486111111,0)" xlink:href="#ae"/><use transform="matrix(0.010850694444444444,0,0,0.010850694444444444,21.58203125,0)" xlink:href="#Y"/><use transform="matrix(0.010850694444444444,0,0,0.010850694444444444,26.963975694444443,0)" xlink:href="#af"/><use transform="matrix(0.010850694444444444,0,0,0.010850694444444444,39.65928819444444,0)" xlink:href="#Y"/><use transform="matrix(0.010850694444444444,0,0,0.010850694444444444,45.041232638888886,0)" xlink:href="#M"/><use transform="matrix(0.010850694444444444,0,0,0.010850694444444444,57.99696180555555,0)" xlink:href="#Q"/><use transform="matrix(0.010850694444444444,0,0,0.010850694444444444,71.12630208333333,0)" xlink:href="#V"/><use transform="matrix(0.010850694444444444,0,0,0.010850694444444444,78.17925347222221,0)" xlink:href="#M"/></g><path d="M657 26c-323 0-524-166-541-416h195c15 169 171 246 346 246 202 0 356-106 356-265 5-203-294-238-475-293-239-73-380-191-380-389 0-252 224-419 512-419 294 0 499 171 508 396H992c-17-145-151-228-328-228-193 0-321 102-321 242 0 156 175 211 284 241l149 41c160 44 422 134 422 412 0 244-197 432-541 432" id="ag"/><g id="f"><use transform="matrix(0.010850694444444444,0,0,0.010850694444444444,0,0)" xlink:href="#ag"/><use transform="matrix(0.010850694444444444,0,0,0.010850694444444444,14.2578125,0)" xlink:href="#ac"/><use transform="matrix(0.010850694444444444,0,0,0.010850694444444444,27.39800347222222,0)" xlink:href="#P"/><use transform="matrix(0.010850694444444444,0,0,0.010850694444444444,41.00477430555556,0)" xlink:href="#S"/><use transform="matrix(0.010850694444444444,0,0,0.010850694444444444,54.32942708333333,0)" xlink:href="#W"/><use transform="matrix(0.010850694444444444,0,0,0.010850694444444444,63.04253472222222,0)" xlink:href="#V"/><use transform="matrix(0.010850694444444444,0,0,0.010850694444444444,70.09548611111111,0)" xlink:href="#M"/></g><use transform="matrix(0.010850694444444444,0,0,0.010850694444444444,0,0)" xlink:href="#U" id="g"/><path d="M180 0v-1490h270l367 940c28 72 75 218 110 339 35-117 81-264 110-339l362-940h271V0h-187c2-448-5-837 7-1287-157 497-311 829-483 1287H842C666-458 514-784 354-1284c12 438 5 843 7 1284H180" id="ah"/><path d="M537 14c-226 0-379-139-379-422v-710h180v695c0 172 97 275 253 275 160 0 281-109 281-300v-670h181V0H879v-209C806-46 684 14 537 14zm-11-1278l140-294h201l-194 294H526" id="ai"/><path d="M338-1490V0H158v-1490h180" id="aj"/><g id="h"><use transform="matrix(0.010850694444444444,0,0,0.010850694444444444,0,0)" xlink:href="#ah"/><use transform="matrix(0.010850694444444444,0,0,0.010850694444444444,20.07378472222222,0)" xlink:href="#ai"/><use transform="matrix(0.010850694444444444,0,0,0.010850694444444444,33.21397569444444,0)" xlink:href="#aj"/><use transform="matrix(0.010850694444444444,0,0,0.010850694444444444,38.92144097222222,0)" xlink:href="#V"/><use transform="matrix(0.010850694444444444,0,0,0.010850694444444444,46.19140625,0)" xlink:href="#Y"/><use transform="matrix(0.010850694444444444,0,0,0.010850694444444444,51.57335069444444,0)" xlink:href="#P"/><use transform="matrix(0.010850694444444444,0,0,0.010850694444444444,65.18012152777777,0)" xlink:href="#aj"/><use transform="matrix(0.010850694444444444,0,0,0.010850694444444444,70.56206597222221,0)" xlink:href="#S"/><use transform="matrix(0.010850694444444444,0,0,0.010850694444444444,83.88671874999999,0)" xlink:href="#N"/></g><path d="M763 24c-353 0-583-224-583-531v-983h190v968c0 214 149 370 393 370 243 0 391-156 391-370v-968h190v983c0 307-230 531-581 531" id="ak"/><path d="M471 26C259 26 90-98 90-318c0-256 228-303 435-329 202-27 287-16 287-108 0-139-79-219-234-219-161 0-248 86-283 164l-173-57c86-203 278-265 451-265 150 0 419 46 419 395V0H815v-152h-12C765-73 660 26 471 26zm31-159c199 0 310-134 310-271v-155c-30 35-226 55-295 64-131 17-246 59-246 186 0 116 97 176 231 176zm-23-1131l140-294h201l-194 294H479" id="al"/><g id="i"><use transform="matrix(0.010850694444444444,0,0,0.010850694444444444,0,0)" xlink:href="#ak"/><use transform="matrix(0.010850694444444444,0,0,0.010850694444444444,16.536458333333332,0)" xlink:href="#N"/><use transform="matrix(0.010850694444444444,0,0,0.010850694444444444,28.266059027777775,0)" xlink:href="#ac"/><use transform="matrix(0.010850694444444444,0,0,0.010850694444444444,41.40625,0)" xlink:href="#al"/><use transform="matrix(0.010850694444444444,0,0,0.010850694444444444,53.88454861111112,0)" xlink:href="#W"/><use transform="matrix(0.010850694444444444,0,0,0.010850694444444444,62.59765625,0)" xlink:href="#Y"/><use transform="matrix(0.010850694444444444,0,0,0.010850694444444444,67.97960069444444,0)" xlink:href="#S"/><use transform="matrix(0.010850694444444444,0,0,0.010850694444444444,81.30425347222221,0)" xlink:href="#N"/></g><path d="M98-1322v-168h1126v168H757V0H567v-1322H98" id="am"/><g id="j"><use transform="matrix(0.010850694444444444,0,0,0.010850694444444444,0,0)" xlink:href="#am"/><use transform="matrix(0.010850694444444444,0,0,0.010850694444444444,12.608506944444445,0)" xlink:href="#M"/><use transform="matrix(0.010850694444444444,0,0,0.010850694444444444,25.56423611111111,0)" xlink:href="#O"/><use transform="matrix(0.010850694444444444,0,0,0.010850694444444444,45.03038194444444,0)" xlink:href="#P"/><use transform="matrix(0.010850694444444444,0,0,0.010850694444444444,58.63715277777778,0)" xlink:href="#S"/></g><g id="k"><use transform="matrix(0.010850694444444444,0,0,0.010850694444444444,0,0)" xlink:href="#aa"/><use transform="matrix(0.010850694444444444,0,0,0.010850694444444444,13.606770833333332,0)" xlink:href="#M"/></g><g id="l"><use transform="matrix(0.010850694444444444,0,0,0.010850694444444444,0,0)" xlink:href="#T"/><use transform="matrix(0.010850694444444444,0,0,0.010850694444444444,13.975694444444445,0)" xlink:href="#M"/><use transform="matrix(0.010850694444444444,0,0,0.010850694444444444,26.931423611111104,0)" xlink:href="#N"/><use transform="matrix(0.010850694444444444,0,0,0.010850694444444444,38.66102430555555,0)" xlink:href="#P"/><use transform="matrix(0.010850694444444444,0,0,0.010850694444444444,52.267795138888886,0)" xlink:href="#S"/><use transform="matrix(0.010850694444444444,0,0,0.010850694444444444,65.59244791666666,0)" xlink:href="#N"/><use transform="matrix(0.010850694444444444,0,0,0.010850694444444444,77.3220486111111,0)" xlink:href="#V"/><use transform="matrix(0.010850694444444444,0,0,0.010850694444444444,84.70052083333331,0)" xlink:href="#U"/></g><g id="m"><use transform="matrix(0.010850694444444444,0,0,0.010850694444444444,0,0)" xlink:href="#T"/><use transform="matrix(0.010850694444444444,0,0,0.010850694444444444,14.192708333333332,0)" xlink:href="#al"/><use transform="matrix(0.010850694444444444,0,0,0.010850694444444444,26.671006944444443,0)" xlink:href="#P"/><use transform="matrix(0.010850694444444444,0,0,0.010850694444444444,40.27777777777777,0)" xlink:href="#Y"/><use transform="matrix(0.010850694444444444,0,0,0.010850694444444444,45.65972222222221,0)" xlink:href="#aa"/><use transform="matrix(0.010850694444444444,0,0,0.010850694444444444,59.26649305555554,0)" xlink:href="#S"/></g><path fill="#333" d="M49 0l509-1490h400L1480 0h-339l-115-346H497L386 0H49zm524-585h374c-75-213-124-402-192-666-66 268-110 453-182 666" id="an"/><path fill="#333" d="M135 0v-1490h340l471 754c59 97 122 210 187 365-32-387-14-721-19-1119h312V0h-341C855-382 627-689 427-1113c32 420 16 695 20 1113H135" id="ao"/><path fill="#333" d="M659 0H135v-1490h529c448 0 721 280 721 744 0 466-273 746-726 746zM440-263h204c287 0 437-148 437-483 0-333-150-481-435-481H440v964" id="ap"/><g id="n"><use transform="matrix(0.013020833333333334,0,0,0.013020833333333334,0,0)" xlink:href="#an"/><use transform="matrix(0.013020833333333334,0,0,0.013020833333333334,19.908854166666668,0)" xlink:href="#ao"/><use transform="matrix(0.013020833333333334,0,0,0.013020833333333334,40.234375,0)" xlink:href="#ap"/></g><path d="M611 442c-248 0-391-105-460-228l146-94c47 65 117 165 314 165 178 0 307-82 307-266v-224h-17C863-141 792-18 576-18c-268 0-472-195-472-546 0-346 197-568 476-568 216 0 288 133 326 193h17v-179h175V29c0 289-215 413-487 413zm-5-620c203 0 314-146 314-390 0-237-108-403-314-403-213 0-319 180-319 403 0 230 109 390 319 390" id="aq"/><g id="o"><use transform="matrix(0.010850694444444444,0,0,0.010850694444444444,0,0)" xlink:href="#ab"/><use transform="matrix(0.010850694444444444,0,0,0.010850694444444444,16.23263888888889,0)" xlink:href="#U"/><use transform="matrix(0.010850694444444444,0,0,0.010850694444444444,28.7109375,0)" xlink:href="#W"/><use transform="matrix(0.010850694444444444,0,0,0.010850694444444444,37.424045138888886,0)" xlink:href="#W"/><use transform="matrix(0.010850694444444444,0,0,0.010850694444444444,45.421006944444436,0)" xlink:href="#M"/><use transform="matrix(0.010850694444444444,0,0,0.010850694444444444,58.3767361111111,0)" xlink:href="#aq"/><use transform="matrix(0.010850694444444444,0,0,0.010850694444444444,72.00520833333331,0)" xlink:href="#U"/><use transform="matrix(0.010850694444444444,0,0,0.010850694444444444,84.48350694444443,0)" xlink:href="#O"/><use transform="matrix(0.010850694444444444,0,0,0.010850694444444444,103.94965277777776,0)" xlink:href="#M"/><use transform="matrix(0.010850694444444444,0,0,0.010850694444444444,116.90538194444441,0)" xlink:href="#Q"/><use transform="matrix(0.010850694444444444,0,0,0.010850694444444444,130.0347222222222,0)" xlink:href="#V"/><use transform="matrix(0.010850694444444444,0,0,0.010850694444444444,137.0876736111111,0)" xlink:href="#S"/></g><g id="p"><use transform="matrix(0.010850694444444444,0,0,0.010850694444444444,0,0)" xlink:href="#T"/><use transform="matrix(0.010850694444444444,0,0,0.010850694444444444,14.192708333333332,0)" xlink:href="#al"/><use transform="matrix(0.010850694444444444,0,0,0.010850694444444444,26.671006944444443,0)" xlink:href="#P"/><use transform="matrix(0.010850694444444444,0,0,0.010850694444444444,40.27777777777777,0)" xlink:href="#Y"/><use transform="matrix(0.010850694444444444,0,0,0.010850694444444444,45.65972222222221,0)" xlink:href="#aa"/><use transform="matrix(0.010850694444444444,0,0,0.010850694444444444,59.26649305555554,0)" xlink:href="#S"/></g><g id="q"><use transform="matrix(0.010850694444444444,0,0,0.010850694444444444,0,0)" xlink:href="#aa"/><use transform="matrix(0.010850694444444444,0,0,0.010850694444444444,13.606770833333332,0)" xlink:href="#U"/></g><path d="M370-1490V0H180v-1490h190" id="ar"/><g id="r"><use transform="matrix(0.010850694444444444,0,0,0.010850694444444444,0,0)" xlink:href="#ar"/><use transform="matrix(0.010850694444444444,0,0,0.010850694444444444,5.967881944444445,0)" xlink:href="#Q"/><use transform="matrix(0.010850694444444444,0,0,0.010850694444444444,19.09722222222222,0)" xlink:href="#V"/><use transform="matrix(0.010850694444444444,0,0,0.010850694444444444,26.15017361111111,0)" xlink:href="#M"/><use transform="matrix(0.010850694444444444,0,0,0.010850694444444444,39.10590277777778,0)" xlink:href="#W"/><use transform="matrix(0.010850694444444444,0,0,0.010850694444444444,47.819010416666664,0)" xlink:href="#ae"/><use transform="matrix(0.010850694444444444,0,0,0.010850694444444444,55.69661458333333,0)" xlink:href="#U"/><use transform="matrix(0.010850694444444444,0,0,0.010850694444444444,68.17491319444444,0)" xlink:href="#af"/><use transform="matrix(0.010850694444444444,0,0,0.010850694444444444,80.87022569444444,0)" xlink:href="#M"/></g><path fill="#333" d="M789 20C394 20 94-260 94-744c0-487 300-766 695-766s695 279 695 766c0 485-300 764-695 764zm0-271c231 0 385-174 385-493 0-321-154-495-385-495s-385 175-385 495c0 319 154 493 385 493" id="as"/><path fill="#333" d="M135 0v-1490h581c339 0 533 192 533 485 0 204-94 351-264 424L1302 0H964L680-532H440V0H135zm305-779h220c186 0 274-77 274-226 0-150-88-233-275-233H440v459" id="at"/><g id="s"><use transform="matrix(0.008680555555555556,0,0,0.008680555555555556,0,0)" xlink:href="#as"/><use transform="matrix(0.008680555555555556,0,0,0.008680555555555556,13.697916666666668,0)" xlink:href="#at"/></g><path d="M502 418V313h118c73 0 98-17 98-66s-25-65-98-65h-82l21-161C285-4 104-228 104-552c0-350 205-580 509-580 216 0 392 114 453 309l-173 49c-33-115-133-197-280-197-223 0-326 196-326 419 0 220 103 415 326 415 150 0 252-85 285-206l172 49C1015-110 859 5 663 22v64c130 5 189 54 189 162 0 118-71 170-231 170H502" id="au"/><path d="M471 26C259 26 90-98 90-318c0-256 228-303 435-329 202-27 287-16 287-108 0-139-79-219-234-219-161 0-248 86-283 164l-173-57c86-203 278-265 451-265 150 0 419 46 419 395V0H815v-152h-12C765-73 660 26 471 26zm31-159c199 0 310-134 310-271v-155c-30 35-226 55-295 64-131 17-246 59-246 186 0 116 97 176 231 176zm187-1180c-99 0-192-83-243-83-35 0-51 40-53 79H267c4-120 55-208 162-208 104 0 174 85 241 85 33 0 49-23 56-81h123c-4 126-62 208-160 208" id="av"/><g id="t"><use transform="matrix(0.010850694444444444,0,0,0.010850694444444444,0,0)" xlink:href="#ag"/><use transform="matrix(0.010850694444444444,0,0,0.010850694444444444,14.2578125,0)" xlink:href="#U"/><use transform="matrix(0.010850694444444444,0,0,0.010850694444444444,26.73611111111111,0)" xlink:href="#V"/><use transform="matrix(0.010850694444444444,0,0,0.010850694444444444,34.006076388888886,0)" xlink:href="#Y"/><use transform="matrix(0.010850694444444444,0,0,0.010850694444444444,39.38802083333333,0)" xlink:href="#N"/><use transform="matrix(0.010850694444444444,0,0,0.010850694444444444,51.11762152777778,0)" xlink:href="#ae"/><use transform="matrix(0.010850694444444444,0,0,0.010850694444444444,58.99522569444444,0)" xlink:href="#U"/><use transform="matrix(0.010850694444444444,0,0,0.010850694444444444,71.47352430555556,0)" xlink:href="#au"/><use transform="matrix(0.010850694444444444,0,0,0.010850694444444444,84.38585069444444,0)" xlink:href="#av"/><use transform="matrix(0.010850694444444444,0,0,0.010850694444444444,96.86414930555556,0)" xlink:href="#S"/></g><g id="u"><use transform="matrix(0.010850694444444444,0,0,0.010850694444444444,0,0)" xlink:href="#aa"/><use transform="matrix(0.010850694444444444,0,0,0.010850694444444444,13.606770833333332,0)" xlink:href="#S"/></g><g id="v"><use transform="matrix(0.010850694444444444,0,0,0.010850694444444444,0,0)" xlink:href="#ak"/><use transform="matrix(0.010850694444444444,0,0,0.010850694444444444,16.536458333333332,0)" xlink:href="#N"/><use transform="matrix(0.010850694444444444,0,0,0.010850694444444444,28.266059027777775,0)" xlink:href="#ac"/><use transform="matrix(0.010850694444444444,0,0,0.010850694444444444,41.40625,0)" xlink:href="#al"/><use transform="matrix(0.010850694444444444,0,0,0.010850694444444444,53.88454861111112,0)" xlink:href="#W"/><use transform="matrix(0.010850694444444444,0,0,0.010850694444444444,62.59765625,0)" xlink:href="#Y"/><use transform="matrix(0.010850694444444444,0,0,0.010850694444444444,67.97960069444444,0)" xlink:href="#S"/></g><path fill="#333" d="M135 0v-1490h468l242 684c30 94 76 293 111 455 34-161 80-360 110-455l238-684h470V0h-307c0-447-3-765 11-1227-122 503-246 788-395 1227H826C676-435 552-717 427-1215c15 453 11 775 11 1215H135" id="aw"/><path fill="#333" d="M135 0v-1490h305c1 251 0 501-5 746 157-254 405-512 598-746h373L849-845 1422 0h-361L638-644 440-426V0H135" id="ax"/><path fill="#333" d="M135 0v-1490h997v253H440v360h640v249H440v375h694V0H135" id="ay"/><path fill="#333" d="M169-607c0-330 107-732 258-974h279c-145 311-231 674-231 974 0 262 67 512 231 886H427C258-1 169-307 169-607" id="az"/><path fill="#333" d="M568-82v-393H183v-240h385v-393h254v393h386v240H822v393H568" id="aA"/><path fill="#333" d="M67 279c166-379 230-627 230-886 0-300-86-663-230-974h278c151 241 258 644 258 974 0 302-90 608-258 886H67" id="aB"/><g id="w"><use transform="matrix(0.008680555555555556,0,0,0.008680555555555556,0,0)" xlink:href="#aw"/><use transform="matrix(0.008680555555555556,0,0,0.008680555555555556,16.5625,0)" xlink:href="#an"/><use transform="matrix(0.008680555555555556,0,0,0.008680555555555556,29.835069444444443,0)" xlink:href="#ax"/><use transform="matrix(0.008680555555555556,0,0,0.008680555555555556,42.62152777777778,0)" xlink:href="#ay"/><use transform="matrix(0.008680555555555556,0,0,0.008680555555555556,53.420138888888886,0)" xlink:href="#az"/><use transform="matrix(0.008680555555555556,0,0,0.008680555555555556,60.12152777777777,0)" xlink:href="#aA"/><use transform="matrix(0.008680555555555556,0,0,0.008680555555555556,72.1875,0)" xlink:href="#aA"/><use transform="matrix(0.008680555555555556,0,0,0.008680555555555556,84.25347222222223,0)" xlink:href="#aB"/></g><g id="x"><use transform="matrix(0.010850694444444444,0,0,0.010850694444444444,0,0)" xlink:href="#T"/><use transform="matrix(0.010850694444444444,0,0,0.010850694444444444,13.975694444444445,0)" xlink:href="#M"/><use transform="matrix(0.010850694444444444,0,0,0.010850694444444444,26.931423611111104,0)" xlink:href="#aa"/><use transform="matrix(0.010850694444444444,0,0,0.010850694444444444,40.53819444444444,0)" xlink:href="#ac"/><use transform="matrix(0.010850694444444444,0,0,0.010850694444444444,53.678385416666664,0)" xlink:href="#au"/><use transform="matrix(0.010850694444444444,0,0,0.010850694444444444,66.59071180555554,0)" xlink:href="#av"/><use transform="matrix(0.010850694444444444,0,0,0.010850694444444444,79.06901041666666,0)" xlink:href="#S"/></g><g id="y"><use transform="matrix(0.010850694444444444,0,0,0.010850694444444444,0,0)" xlink:href="#aa"/><use transform="matrix(0.010850694444444444,0,0,0.010850694444444444,13.606770833333332,0)" xlink:href="#M"/></g><path d="M1096 418H916v-591h-14C865-111 790 24 577 24c-279 0-473-224-473-580 0-354 195-576 474-576 218 0 287 134 324 193h20v-179h174V418zM604-137c203 0 314-172 314-421 0-247-108-413-314-413-212 0-317 181-317 413 0 235 108 421 317 421" id="aC"/><path d="M613 24c-304 0-509-231-509-576 0-350 205-580 509-580 305 0 511 230 511 580 0 345-206 576-511 576zm0-161c226 0 329-195 329-415 0-222-103-419-329-419-223 0-326 196-326 419 0 220 103 415 326 415zm131-1176c-99 0-192-83-243-83-35 0-51 40-53 79H322c4-120 55-208 162-208 104 0 174 85 241 85 33 0 49-23 56-81h123c-4 126-62 208-160 208" id="aD"/><g id="z"><use transform="matrix(0.010850694444444444,0,0,0.010850694444444444,0,0)" xlink:href="#T"/><use transform="matrix(0.010850694444444444,0,0,0.010850694444444444,13.975694444444445,0)" xlink:href="#M"/><use transform="matrix(0.010850694444444444,0,0,0.010850694444444444,26.931423611111104,0)" xlink:href="#aC"/><use transform="matrix(0.010850694444444444,0,0,0.010850694444444444,40.53819444444444,0)" xlink:href="#ac"/><use transform="matrix(0.010850694444444444,0,0,0.010850694444444444,53.678385416666664,0)" xlink:href="#Y"/><use transform="matrix(0.010850694444444444,0,0,0.010850694444444444,59.06032986111111,0)" xlink:href="#N"/><use transform="matrix(0.010850694444444444,0,0,0.010850694444444444,70.78993055555556,0)" xlink:href="#Y"/><use transform="matrix(0.010850694444444444,0,0,0.010850694444444444,76.171875,0)" xlink:href="#au"/><use transform="matrix(0.010850694444444444,0,0,0.010850694444444444,88.8671875,0)" xlink:href="#aD"/><use transform="matrix(0.010850694444444444,0,0,0.010850694444444444,102.19184027777777,0)" xlink:href="#M"/><use transform="matrix(0.010850694444444444,0,0,0.010850694444444444,115.14756944444444,0)" xlink:href="#N"/></g><g id="A"><use transform="matrix(0.010850694444444444,0,0,0.010850694444444444,0,0)" xlink:href="#ab"/><use transform="matrix(0.010850694444444444,0,0,0.010850694444444444,16.23263888888889,0)" xlink:href="#S"/><use transform="matrix(0.010850694444444444,0,0,0.010850694444444444,29.557291666666664,0)" xlink:href="#O"/><use transform="matrix(0.010850694444444444,0,0,0.010850694444444444,49.0234375,0)" xlink:href="#P"/><use transform="matrix(0.010850694444444444,0,0,0.010850694444444444,62.63020833333333,0)" xlink:href="#W"/><use transform="matrix(0.010850694444444444,0,0,0.010850694444444444,70.62717013888889,0)" xlink:href="#M"/><use transform="matrix(0.010850694444444444,0,0,0.010850694444444444,83.58289930555556,0)" xlink:href="#N"/><use transform="matrix(0.010850694444444444,0,0,0.010850694444444444,95.3125,0)" xlink:href="#N"/><use transform="matrix(0.010850694444444444,0,0,0.010850694444444444,107.04210069444444,0)" xlink:href="#av"/><use transform="matrix(0.010850694444444444,0,0,0.010850694444444444,119.52039930555556,0)" xlink:href="#S"/></g><g id="B"><use transform="matrix(0.010850694444444444,0,0,0.010850694444444444,0,0)" xlink:href="#L"/><use transform="matrix(0.010850694444444444,0,0,0.010850694444444444,16.03732638888889,0)" xlink:href="#U"/><use transform="matrix(0.010850694444444444,0,0,0.010850694444444444,28.515625,0)" xlink:href="#aa"/><use transform="matrix(0.010850694444444444,0,0,0.010850694444444444,42.12239583333333,0)" xlink:href="#S"/><use transform="matrix(0.010850694444444444,0,0,0.010850694444444444,55.44704861111111,0)" xlink:href="#N"/></g><g id="C"><use transform="matrix(0.008680555555555556,0,0,0.008680555555555556,0,0)" xlink:href="#an"/><use transform="matrix(0.008680555555555556,0,0,0.008680555555555556,13.272569444444445,0)" xlink:href="#ao"/><use transform="matrix(0.008680555555555556,0,0,0.008680555555555556,26.822916666666668,0)" xlink:href="#ap"/></g><g id="D"><use transform="matrix(0.010850694444444444,0,0,0.010850694444444444,0,0)" xlink:href="#ab"/><use transform="matrix(0.010850694444444444,0,0,0.010850694444444444,16.23263888888889,0)" xlink:href="#U"/><use transform="matrix(0.010850694444444444,0,0,0.010850694444444444,28.7109375,0)" xlink:href="#af"/><use transform="matrix(0.010850694444444444,0,0,0.010850694444444444,41.40625,0)" xlink:href="#R"/><use transform="matrix(0.010850694444444444,0,0,0.010850694444444444,54.54644097222222,0)" xlink:href="#M"/></g><g id="E"><use transform="matrix(0.010850694444444444,0,0,0.010850694444444444,0,0)" xlink:href="#ar"/><use transform="matrix(0.010850694444444444,0,0,0.010850694444444444,5.967881944444445,0)" xlink:href="#Q"/><use transform="matrix(0.010850694444444444,0,0,0.010850694444444444,19.09722222222222,0)" xlink:href="#ae"/><use transform="matrix(0.010850694444444444,0,0,0.010850694444444444,26.671006944444443,0)" xlink:href="#S"/><use transform="matrix(0.010850694444444444,0,0,0.010850694444444444,39.99565972222222,0)" xlink:href="#W"/><use transform="matrix(0.010850694444444444,0,0,0.010850694444444444,48.70876736111111,0)" xlink:href="#O"/><use transform="matrix(0.010850694444444444,0,0,0.010850694444444444,68.17491319444444,0)" xlink:href="#U"/><use transform="matrix(0.010850694444444444,0,0,0.010850694444444444,80.65321180555556,0)" xlink:href="#au"/><use transform="matrix(0.010850694444444444,0,0,0.010850694444444444,93.34852430555556,0)" xlink:href="#aD"/><use transform="matrix(0.010850694444444444,0,0,0.010850694444444444,106.67317708333333,0)" xlink:href="#M"/><use transform="matrix(0.010850694444444444,0,0,0.010850694444444444,119.62890625,0)" xlink:href="#N"/></g><path d="M481 0L54-1118h197c107 314 236 620 325 951 87-331 217-637 324-951h197L670 0H481" id="aE"/><g id="F"><use transform="matrix(0.010850694444444444,0,0,0.010850694444444444,0,0)" xlink:href="#ag"/><use transform="matrix(0.010850694444444444,0,0,0.010850694444444444,14.2578125,0)" xlink:href="#M"/><use transform="matrix(0.010850694444444444,0,0,0.010850694444444444,27.213541666666664,0)" xlink:href="#W"/><use transform="matrix(0.010850694444444444,0,0,0.010850694444444444,35.92664930555555,0)" xlink:href="#aE"/><use transform="matrix(0.010850694444444444,0,0,0.010850694444444444,48.41579861111111,0)" xlink:href="#Y"/><use transform="matrix(0.010850694444444444,0,0,0.010850694444444444,53.79774305555556,0)" xlink:href="#aa"/><use transform="matrix(0.010850694444444444,0,0,0.010850694444444444,67.40451388888889,0)" xlink:href="#S"/><use transform="matrix(0.010850694444444444,0,0,0.010850694444444444,80.72916666666666,0)" xlink:href="#W"/></g><g id="G"><use transform="matrix(0.010850694444444444,0,0,0.010850694444444444,0,0)" xlink:href="#T"/><use transform="matrix(0.010850694444444444,0,0,0.010850694444444444,13.975694444444445,0)" xlink:href="#M"/><use transform="matrix(0.010850694444444444,0,0,0.010850694444444444,26.931423611111104,0)" xlink:href="#N"/><use transform="matrix(0.010850694444444444,0,0,0.010850694444444444,38.66102430555555,0)" xlink:href="#P"/><use transform="matrix(0.010850694444444444,0,0,0.010850694444444444,52.267795138888886,0)" xlink:href="#S"/><use transform="matrix(0.010850694444444444,0,0,0.010850694444444444,65.59244791666666,0)" xlink:href="#Q"/><use transform="matrix(0.010850694444444444,0,0,0.010850694444444444,78.72178819444443,0)" xlink:href="#N"/><use transform="matrix(0.010850694444444444,0,0,0.010850694444444444,90.45138888888887,0)" xlink:href="#Y"/><use transform="matrix(0.010850694444444444,0,0,0.010850694444444444,95.83333333333331,0)" xlink:href="#aE"/><use transform="matrix(0.010850694444444444,0,0,0.010850694444444444,107.88845486111111,0)" xlink:href="#S"/></g><path d="M180 0v-1490h901v168H370v510h643v168H370V0H180" id="aF"/><g id="H"><use transform="matrix(0.010850694444444444,0,0,0.010850694444444444,0,0)" xlink:href="#aF"/><use transform="matrix(0.010850694444444444,0,0,0.010850694444444444,12.369791666666666,0)" xlink:href="#ac"/><use transform="matrix(0.010850694444444444,0,0,0.010850694444444444,25.50998263888889,0)" xlink:href="#Q"/><use transform="matrix(0.010850694444444444,0,0,0.010850694444444444,38.639322916666664,0)" xlink:href="#af"/><use transform="matrix(0.010850694444444444,0,0,0.010850694444444444,51.334635416666664,0)" xlink:href="#Y"/><use transform="matrix(0.010850694444444444,0,0,0.010850694444444444,56.71657986111111,0)" xlink:href="#S"/><use transform="matrix(0.010850694444444444,0,0,0.010850694444444444,70.04123263888889,0)" xlink:href="#Q"/><use transform="matrix(0.010850694444444444,0,0,0.010850694444444444,83.17057291666666,0)" xlink:href="#U"/><use transform="matrix(0.010850694444444444,0,0,0.010850694444444444,95.64887152777777,0)" xlink:href="#O"/><use transform="matrix(0.010850694444444444,0,0,0.010850694444444444,115.1150173611111,0)" xlink:href="#M"/><use transform="matrix(0.010850694444444444,0,0,0.010850694444444444,128.07074652777777,0)" xlink:href="#Q"/><use transform="matrix(0.010850694444444444,0,0,0.010850694444444444,141.20008680555554,0)" xlink:href="#V"/><use transform="matrix(0.010850694444444444,0,0,0.010850694444444444,148.25303819444443,0)" xlink:href="#S"/></g><g id="I"><use transform="matrix(0.010850694444444444,0,0,0.010850694444444444,0,0)" xlink:href="#M"/><use transform="matrix(0.010850694444444444,0,0,0.010850694444444444,12.955729166666666,0)" xlink:href="#O"/></g><g id="J"><use transform="matrix(0.010850694444444444,0,0,0.010850694444444444,0,0)" xlink:href="#L"/><use transform="matrix(0.010850694444444444,0,0,0.010850694444444444,16.03732638888889,0)" xlink:href="#Y"/><use transform="matrix(0.010850694444444444,0,0,0.010850694444444444,21.419270833333336,0)" xlink:href="#N"/><use transform="matrix(0.010850694444444444,0,0,0.010850694444444444,33.14887152777778,0)" xlink:href="#P"/><use transform="matrix(0.010850694444444444,0,0,0.010850694444444444,46.75564236111111,0)" xlink:href="#S"/><use transform="matrix(0.010850694444444444,0,0,0.010850694444444444,60.0802951388889,0)" xlink:href="#N"/><use transform="matrix(0.010850694444444444,0,0,0.010850694444444444,71.80989583333334,0)" xlink:href="#Y"/><use transform="matrix(0.010850694444444444,0,0,0.010850694444444444,77.19184027777779,0)" xlink:href="#V"/><use transform="matrix(0.010850694444444444,0,0,0.010850694444444444,84.46180555555556,0)" xlink:href="#Y"/><use transform="matrix(0.010850694444444444,0,0,0.010850694444444444,89.84375,0)" xlink:href="#aE"/><use transform="matrix(0.010850694444444444,0,0,0.010850694444444444,101.8988715277778,0)" xlink:href="#S"/><use transform="matrix(0.010850694444444444,0,0,0.010850694444444444,115.22352430555556,0)" xlink:href="#N"/></g><path d="M180 0v-1490h190v1322h690V0H180" id="aG"/><g id="K"><use transform="matrix(0.010850694444444444,0,0,0.010850694444444444,0,0)" xlink:href="#aG"/><use transform="matrix(0.010850694444444444,0,0,0.010850694444444444,12.565104166666666,0)" xlink:href="#Y"/><use transform="matrix(0.010850694444444444,0,0,0.010850694444444444,17.94704861111111,0)" xlink:href="#O"/><use transform="matrix(0.010850694444444444,0,0,0.010850694444444444,37.41319444444444,0)" xlink:href="#Y"/><use transform="matrix(0.010850694444444444,0,0,0.010850694444444444,42.795138888888886,0)" xlink:href="#V"/><use transform="matrix(0.010850694444444444,0,0,0.010850694444444444,50.17361111111111,0)" xlink:href="#U"/><use transform="matrix(0.010850694444444444,0,0,0.010850694444444444,62.65190972222221,0)" xlink:href="#aa"/><use transform="matrix(0.010850694444444444,0,0,0.010850694444444444,76.25868055555554,0)" xlink:href="#S"/><use transform="matrix(0.010850694444444444,0,0,0.010850694444444444,89.58333333333331,0)" xlink:href="#N"/></g></defs></g></svg>